<svg width="48" height="48" viewBox="0 0 48 48" fill="none" xmlns="http://www.w3.org/2000/svg">
<path d="M29.1699 6.17022L29.2893 6.5H29.64H38C39.9239 6.5 41.5 8.07614 41.5 10V38C41.5 39.9239 39.9239 41.5 38 41.5H10C8.07614 41.5 6.5 39.9239 6.5 38V10C6.5 8.07614 8.07614 6.5 10 6.5H18.36H18.7107L18.8301 6.17022C19.6027 4.03634 21.6228 2.5 24 2.5C26.3772 2.5 28.3973 4.03634 29.1699 6.17022ZM19.6464 34.3536L20 34.7071L20.3536 34.3536L36.3536 18.3536L36.7059 18.0012L36.3548 17.6477L33.5348 14.8077L33.1813 14.4516L32.8264 14.8064L19.9993 27.6336L15.1729 22.8258L14.8193 22.4736L14.4664 22.8264L11.6464 25.6464L11.2929 26L11.6464 26.3536L19.6464 34.3536ZM26.5 8C26.5 6.62386 25.3761 5.5 24 5.5C22.6239 5.5 21.5 6.62386 21.5 8C21.5 9.37614 22.6239 10.5 24 10.5C25.3761 10.5 26.5 9.37614 26.5 8Z" fill="white" stroke="white"/>
</svg>
