<svg width="137" height="137" viewBox="0 0 137 137" fill="none" xmlns="http://www.w3.org/2000/svg">
<path d="M68.5 0C30.688 0 0 30.688 0 68.5C0 106.312 30.688 137 68.5 137C106.312 137 137 106.312 137 68.5C137 30.688 106.312 0 68.5 0ZM68.5 20.55C79.871 20.55 89.05 29.729 89.05 41.1C89.05 52.471 79.871 61.65 68.5 61.65C57.129 61.65 47.95 52.471 47.95 41.1C47.95 29.729 57.129 20.55 68.5 20.55ZM68.5 117.82C51.375 117.82 36.2365 109.052 27.4 95.763C27.6055 82.1315 54.8 74.665 68.5 74.665C82.1315 74.665 109.395 82.1315 109.6 95.763C100.763 109.052 85.625 117.82 68.5 117.82Z" fill="black" fill-opacity="0.5"/>
</svg>
