<svg width="158" height="158" viewBox="0 0 158 158" fill="none" xmlns="http://www.w3.org/2000/svg">
<path d="M79 0C35.392 0 0 35.392 0 79C0 122.608 35.392 158 79 158C122.608 158 158 122.608 158 79C158 35.392 122.608 0 79 0ZM79 23.7C92.114 23.7 102.7 34.286 102.7 47.4C102.7 60.514 92.114 71.1 79 71.1C65.886 71.1 55.3 60.514 55.3 47.4C55.3 34.286 65.886 23.7 79 23.7ZM79 135.88C59.25 135.88 41.791 125.768 31.6 110.442C31.837 94.721 63.2 86.11 79 86.11C94.721 86.11 126.163 94.721 126.4 110.442C116.209 125.768 98.75 135.88 79 135.88Z" fill="white" fill-opacity="0.8"/>
</svg>
