<svg width="576" height="453" viewBox="0 0 576 453" fill="none" xmlns="http://www.w3.org/2000/svg">
<g filter="url(#filter0_d)">
<path d="M406.048 0L496.51 49.4022C494.963 52.0872 493.966 55.058 493.579 58.1384C493.192 61.2189 493.422 64.3464 494.255 67.3356C495.089 70.3248 496.509 73.1149 498.432 75.5406C500.354 77.9662 502.741 79.9781 505.449 81.457C508.157 82.9359 511.132 83.8517 514.197 84.1501C517.263 84.4486 520.356 84.1236 523.295 83.1944C526.234 82.2653 528.957 80.7509 531.305 78.7409C533.652 76.731 535.576 74.2664 536.961 71.4932L567.806 88.338L487.908 237.057L326.15 148.719L406.048 0Z" fill="#F2F2F2"/>
<path d="M517.785 79.8824C507.471 79.8824 499.11 71.4525 499.11 61.0537C499.11 50.655 507.471 42.2251 517.785 42.2251C528.099 42.2251 536.46 50.655 536.46 61.0537C536.46 71.4525 528.099 79.8824 517.785 79.8824Z" fill="#6C63FF"/>
<path d="M178.895 398.133L81.0864 365.967C82.1283 363.045 82.5779 359.942 82.4084 356.842C82.239 353.741 81.4541 350.707 80.1001 347.918C78.7462 345.129 76.8507 342.642 74.5261 340.606C72.2016 338.569 69.4951 337.023 66.5671 336.06C63.6392 335.097 60.5493 334.737 57.4807 335C54.412 335.263 51.4269 336.144 48.7023 337.592C45.9776 339.04 43.569 341.024 41.6189 343.427C39.6689 345.831 38.2172 348.604 37.3498 351.584L3.99994 340.616L56.0222 179.819L230.917 237.337L178.895 398.133Z" fill="#F2F2F2"/>
<path d="M58.0781 377.199C47.7641 377.199 39.403 368.769 39.403 358.37C39.403 347.971 47.7641 339.541 58.0781 339.541C68.392 339.541 76.7532 347.971 76.7532 358.37C76.7532 368.769 68.392 377.199 58.0781 377.199Z" fill="#6C63FF"/>
<path d="M54.2244 88.2155H505.81V295.064H54.2244V88.2155Z" fill="#3F3D56"/>
<path d="M61.6746 95.7267H498.36V283.508H61.6746V95.7267Z" fill="white"/>
<path d="M106.088 274.552H148.496V288.997H106.088V274.552Z" fill="#3F3D56"/>
<path d="M150.788 285.53H181.734V289.575H150.788V285.53Z" fill="#6C63FF"/>
<path d="M462.829 166.795H296.063L270.208 179.494L229.013 199.729L202.078 148.883H125.859" stroke="#3F3D56" stroke-width="2" stroke-miterlimit="10"/>
<path d="M397.254 166.795L384.89 196.262H354.517" stroke="#3F3D56" stroke-width="2" stroke-miterlimit="10"/>
<path d="M350.903 166.795L308.671 143.683H278.871" stroke="#3F3D56" stroke-width="2" stroke-miterlimit="10"/>
<path d="M397.498 171.995C394.649 171.995 392.34 169.667 392.34 166.795C392.34 163.923 394.649 161.595 397.498 161.595C400.346 161.595 402.656 163.923 402.656 166.795C402.656 169.667 400.346 171.995 397.498 171.995Z" fill="#6C63FF"/>
<path d="M349.359 171.995C346.511 171.995 344.202 169.667 344.202 166.795C344.202 163.923 346.511 161.595 349.359 161.595C352.208 161.595 354.517 163.923 354.517 166.795C354.517 169.667 352.208 171.995 349.359 171.995Z" fill="#6C63FF"/>
<path d="M270.275 179.506L266.836 230.929H237.036" stroke="#3F3D56" stroke-width="2" stroke-miterlimit="10"/>
<path d="M212.881 169.275L245.632 143.683H214.686" stroke="#3F3D56" stroke-width="2" stroke-miterlimit="10"/>
<path d="M158.782 148.883L127.005 174.306H97.2052" stroke="#3F3D56" stroke-width="2" stroke-miterlimit="10"/>
<path d="M270.275 184.706C267.426 184.706 265.117 182.378 265.117 179.506C265.117 176.634 267.426 174.306 270.275 174.306C273.123 174.306 275.432 176.634 275.432 179.506C275.432 182.378 273.123 184.706 270.275 184.706Z" fill="#6C63FF"/>
<path d="M159.098 154.083C156.249 154.083 153.94 151.755 153.94 148.883C153.94 146.011 156.249 143.683 159.098 143.683C161.946 143.683 164.255 146.011 164.255 148.883C164.255 151.755 161.946 154.083 159.098 154.083Z" fill="#6C63FF"/>
<path d="M212.967 174.306C210.118 174.306 207.809 171.978 207.809 169.106C207.809 166.234 210.118 163.906 212.967 163.906C215.815 163.906 218.125 166.234 218.125 169.106C218.125 171.978 215.815 174.306 212.967 174.306Z" fill="#6C63FF"/>
<path d="M384.317 200.884H354.517" stroke="#3F3D56" stroke-width="2" stroke-miterlimit="10"/>
<path d="M108.07 52.1658C103.4 52.1658 99.6136 48.3488 99.6136 43.6402C99.6136 38.9317 103.4 35.1146 108.07 35.1146C112.74 35.1146 116.526 38.9317 116.526 43.6402C116.526 48.3488 112.74 52.1658 108.07 52.1658Z" stroke="#3F3D56" stroke-width="2" stroke-miterlimit="10"/>
<path d="M484.892 445C436.784 445 397.784 437.757 397.784 428.822C397.784 419.887 436.784 412.644 484.892 412.644C533.001 412.644 572 419.887 572 428.822C572 437.757 533.001 445 484.892 445Z" fill="#F2F2F2"/>
<path d="M425.069 285.23L440.609 293.135L439.604 295.154L424.064 287.249L425.069 285.23Z" fill="#6C63FF"/>
<path d="M427.596 270.527L428.294 274.75C428.294 274.75 427.247 303.962 434.926 294.811C442.606 285.661 437.37 273.343 437.37 273.343L435.275 269.823L427.596 270.527Z" fill="#FBBEBE"/>
<path d="M472.277 135.382C472.277 135.382 473.673 150.163 474.371 150.867C475.07 151.571 463.899 164.945 463.899 164.945L454.125 155.794C454.125 155.794 454.823 142.421 452.729 139.605C450.635 136.79 472.277 135.382 472.277 135.382Z" fill="#FBBEBE"/>
<path opacity="0.1" d="M472.277 135.382C472.277 135.382 473.673 150.163 474.371 150.867C475.07 151.571 463.899 164.945 463.899 164.945L454.125 155.794C454.125 155.794 454.823 142.421 452.729 139.605C450.635 136.79 472.277 135.382 472.277 135.382Z" fill="black"/>
<path d="M498.108 404.969V417.638L502.995 418.343L509.976 416.231L507.882 402.857L498.108 404.969Z" fill="#3F3D56"/>
<path d="M504.392 411.304C504.392 411.304 506.486 405.673 509.977 406.376C513.467 407.08 514.166 411.304 514.166 411.304C514.166 411.304 516.958 421.862 521.147 425.381C525.336 428.901 529.525 438.051 521.147 439.459C512.769 440.867 505.788 437.347 505.788 436.643C505.788 435.939 503.693 431.716 500.203 431.012C496.712 430.308 493.919 429.605 493.919 426.789C493.919 423.973 496.014 421.158 496.014 421.158C496.014 421.158 496.712 407.806 498.108 409.555C499.074 410.936 499.784 412.483 500.203 414.119L504.392 411.304Z" fill="#2F2E41"/>
<path d="M468.088 398.634L470.88 409.192L463.899 410.6L460.409 407.08L459.711 397.93L468.088 398.634Z" fill="#3F3D56"/>
<path d="M468.786 407.784C468.786 407.784 465.994 405.673 464.597 405.673H462.503C462.503 405.673 462.503 400.745 459.012 400.745C455.522 400.745 456.22 404.265 456.22 404.265C456.22 404.265 448.54 416.231 446.446 418.342C444.351 420.454 433.181 426.789 442.257 429.605C451.333 432.42 457.616 432.42 461.805 427.493C461.805 427.493 465.994 425.381 468.786 425.381C471.579 425.381 475.07 423.973 475.07 421.862C475.07 419.75 472.975 415.527 472.975 415.527C472.975 415.527 471.579 402.857 470.881 404.265C470.183 405.673 468.786 407.784 468.786 407.784Z" fill="#2F2E41"/>
<path d="M498.806 236.741V259.969C498.806 259.969 506.486 305.017 506.486 319.799C506.486 334.58 518.354 404.969 512.769 406.376C507.184 407.784 493.919 409.896 493.221 407.784C492.523 405.673 487.636 338.804 486.938 338.1C486.24 337.396 471.579 281.789 471.579 281.789L468.786 282.493L467.39 345.843C467.39 345.843 474.371 402.857 470.881 402.857C467.39 402.857 452.729 402.153 452.729 397.93C452.729 393.707 445.049 315.576 445.049 315.576C445.049 315.576 435.974 253.634 439.464 247.299C442.955 240.964 442.955 237.445 442.955 237.445L498.806 236.741Z" fill="#2F2E41"/>
<path d="M460.758 146.292C453.046 146.292 446.795 139.989 446.795 132.214C446.795 124.44 453.046 118.137 460.758 118.137C468.469 118.137 474.72 124.44 474.72 132.214C474.72 139.989 468.469 146.292 460.758 146.292Z" fill="#FBBEBE"/>
<path d="M463.899 156.498C463.899 156.498 472.626 149.108 473.324 146.292C473.324 146.292 477.862 150.867 477.862 151.571C477.862 152.275 497.41 154.387 502.297 160.018C507.184 165.649 511.373 177.615 511.373 177.615L499.505 200.139C499.505 200.139 498.806 212.809 498.806 214.217C498.806 215.624 502.297 238.149 500.901 238.853C499.505 239.556 485.542 246.595 473.673 245.187C461.805 243.78 449.936 241.668 446.446 241.668C442.955 241.668 440.162 243.076 440.162 241.668C440.162 240.26 442.257 237.445 442.257 236.037C442.257 234.629 442.955 231.11 442.955 228.998C442.955 226.887 444.351 223.367 444.351 220.552C444.351 217.736 428.992 179.726 428.992 179.726C428.992 179.726 429.69 167.76 440.861 162.129C452.031 156.498 453.427 154.387 453.427 154.387C453.427 154.387 453.645 150.163 454.234 150.163C454.823 150.163 456.918 156.498 462.503 157.202L463.899 156.498Z" fill="#D0CDE1"/>
<path d="M501.599 250.115L496.712 257.857L484.145 255.042L493.221 244.484L501.599 250.115Z" fill="#FBBEBE"/>
<path d="M433.181 174.095L428.992 179.726C428.992 179.726 420.614 220.552 422.011 235.333C423.407 250.115 424.803 261.377 424.803 261.377C424.803 261.377 422.011 271.935 424.105 271.935C426.199 271.935 438.766 272.639 438.766 270.527C438.766 268.416 437.37 255.042 437.37 255.042L440.86 224.071L448.54 213.513L433.181 174.095Z" fill="#D0CDE1"/>
<path d="M470.241 125.38C469.385 125.014 468.396 125.311 467.479 125.155C466.403 124.972 465.44 124.168 464.353 124.269C463.838 124.365 463.338 124.529 462.865 124.756C462.627 124.869 462.37 124.932 462.108 124.941C461.846 124.951 461.584 124.906 461.34 124.811C461.223 124.757 461.12 124.677 461.038 124.577C460.956 124.477 460.897 124.36 460.865 124.235C460.833 124.109 460.83 123.978 460.854 123.851C460.879 123.723 460.932 123.603 461.008 123.499C460.089 123.417 459.219 123.04 458.528 122.423C458.391 122.279 458.231 122.158 458.055 122.065C457.85 122.011 457.636 122 457.427 122.033C457.218 122.066 457.018 122.142 456.839 122.256L455.241 122.998C454.881 123.127 454.565 123.355 454.328 123.657C454.138 123.956 454.101 124.357 453.832 124.586C453.488 124.878 452.975 124.735 452.527 124.764C452.12 124.803 451.742 124.993 451.464 125.295C451.186 125.598 451.028 125.992 451.02 126.404C451.026 126.877 451.197 127.457 450.826 127.746C450.611 127.914 450.305 127.887 450.054 127.99C449.401 128.258 449.398 129.174 449.494 129.878C449.591 130.582 449.543 131.51 448.872 131.727C448.399 131.88 447.916 131.554 447.425 131.482C446.685 131.372 445.999 131.839 445.34 132.197C444.681 132.554 443.805 132.795 443.233 132.308C442.701 131.854 442.735 131.024 442.882 130.338C443.092 129.353 443.436 128.403 443.906 127.514C444.08 127.252 444.182 126.949 444.203 126.635C444.163 126.414 444.077 126.204 443.951 126.019C443.825 125.833 443.661 125.677 443.471 125.56C442.663 124.916 441.733 124.268 441.472 123.264C441.28 122.527 441.496 121.749 441.479 120.988C441.459 120.06 441.093 119.137 441.265 118.226C441.575 116.575 443.398 115.78 444.575 114.589C446.192 112.953 446.717 110.336 448.625 109.058C450.152 108.036 452.149 108.158 453.887 107.573C455.797 106.93 457.334 105.454 459.218 104.738C460.246 104.356 461.346 104.208 462.437 104.304C463.529 104.401 464.586 104.74 465.533 105.297C466.095 105.717 466.722 106.04 467.389 106.253C467.951 106.318 468.519 106.312 469.079 106.233C470.192 106.175 471.302 106.406 472.302 106.903C472.684 107.058 473.003 107.339 473.204 107.702C473.542 108.457 473.052 109.638 473.791 109.999C474.136 110.167 474.543 110.006 474.926 110.014C475.67 110.031 476.243 110.684 476.597 111.345C476.874 112.043 477.27 112.686 477.769 113.245C478.679 114.049 480.333 114.182 480.57 115.378C480.575 115.884 480.546 116.39 480.485 116.893C480.554 117.953 481.679 118.759 481.62 119.819C481.552 121.042 480.011 121.64 479.599 122.793C479.285 123.67 479.698 124.619 479.982 125.507C480.266 126.395 480.352 127.533 479.618 128.101C479.33 128.324 478.96 128.416 478.667 128.631C477.908 129.188 477.917 130.311 478.002 131.254C478.05 131.45 478.05 131.654 478.002 131.85C477.954 132.046 477.859 132.227 477.726 132.377C477.6 132.454 477.46 132.502 477.315 132.52C477.169 132.538 477.022 132.524 476.882 132.479C476.426 132.368 475.997 132.164 475.623 131.879C475.248 131.595 474.935 131.236 474.702 130.826C474.458 130.418 474.408 130.059 473.964 129.842C473.663 129.696 473.297 129.827 472.99 129.636C471.53 128.73 472.033 126.145 470.241 125.38Z" fill="#2F2E41"/>
<path d="M509.278 175.503L511.373 177.615C511.373 177.615 523.939 215.624 519.751 224.071C515.562 232.518 507.184 253.634 504.391 252.93C501.599 252.226 491.825 245.891 491.825 245.187C491.825 244.484 503.693 224.775 503.693 224.775C503.693 224.775 505.09 220.552 504.391 219.848C503.693 219.144 503.693 219.848 504.391 218.44C505.09 217.032 505.09 218.44 503.693 217.032C502.297 215.624 502.297 215.624 502.297 214.921C502.297 214.217 498.108 196.62 498.108 196.62L509.278 175.503Z" fill="#D0CDE1"/>
<path d="M498.458 258.209L483.098 253.282L481.004 258.209L497.759 261.728L498.458 258.209Z" fill="#2F2E41"/>
<path opacity="0.1" d="M498.458 258.209L483.098 253.282L481.004 258.209L497.759 261.728L498.458 258.209Z" fill="black"/>
<path opacity="0.1" d="M477.513 151.923L465.645 161.777L464.248 159.666L477.513 151.923Z" fill="black"/>
<path opacity="0.1" d="M453.776 154.739L462.154 159.666L461.456 161.777L453.776 154.739Z" fill="black"/>
</g>
<defs>
<filter id="filter0_d" x="0" y="0" width="576" height="453" filterUnits="userSpaceOnUse" color-interpolation-filters="sRGB">
<feFlood flood-opacity="0" result="BackgroundImageFix"/>
<feColorMatrix in="SourceAlpha" type="matrix" values="0 0 0 0 0 0 0 0 0 0 0 0 0 0 0 0 0 0 127 0"/>
<feOffset dy="4"/>
<feGaussianBlur stdDeviation="2"/>
<feColorMatrix type="matrix" values="0 0 0 0 0 0 0 0 0 0 0 0 0 0 0 0 0 0 0.25 0"/>
<feBlend mode="normal" in2="BackgroundImageFix" result="effect1_dropShadow"/>
<feBlend mode="normal" in="SourceGraphic" in2="effect1_dropShadow" result="shape"/>
</filter>
</defs>
</svg>
