<svg width="1056" height="992" viewBox="0 0 1056 992" fill="none" xmlns="http://www.w3.org/2000/svg">
<path d="M845.404 992C961.713 992 1056 977.998 1056 960.726C1056 943.454 961.713 929.453 845.404 929.453C729.095 929.453 634.808 943.454 634.808 960.726C634.808 977.998 729.095 992 845.404 992Z" fill="#E6E6E6"/>
<path d="M-62 0H1054.74C1054.74 120.579 1030.81 239.978 984.316 351.378C937.823 462.779 869.677 564 783.768 649.262C697.86 734.524 595.872 802.157 483.627 848.301C371.382 894.444 251.079 918.194 129.586 918.194H-62V0Z" fill="#3F3D56"/>
<path d="M760.882 313.122C810.921 313.122 851.486 272.862 851.486 223.2C851.486 173.537 810.921 133.278 760.882 133.278C710.843 133.278 670.278 173.537 670.278 223.2C670.278 272.862 710.843 313.122 760.882 313.122Z" fill="#F2F2F2"/>
<path d="M482.6 48.4945C486.889 48.4945 490.366 45.0437 490.366 40.7869C490.366 36.5301 486.889 33.0793 482.6 33.0793C478.311 33.0793 474.834 36.5301 474.834 40.7869C474.834 45.0437 478.311 48.4945 482.6 48.4945Z" fill="#FF6584"/>
<path d="M734.995 564.903C739.284 564.903 742.761 561.452 742.761 557.196C742.761 552.939 739.284 549.488 734.995 549.488C730.706 549.488 727.229 552.939 727.229 557.196C727.229 561.452 730.706 564.903 734.995 564.903Z" fill="#FF6584"/>
<path d="M760.882 48.4945C765.171 48.4945 768.648 45.0437 768.648 40.7869C768.648 36.5301 765.171 33.0793 760.882 33.0793C756.593 33.0793 753.116 36.5301 753.116 40.7869C753.116 45.0437 756.593 48.4945 760.882 48.4945Z" fill="#F2F2F2"/>
<path d="M869.606 419.743C873.895 419.743 877.372 416.293 877.372 412.036C877.372 407.779 873.895 404.328 869.606 404.328C865.317 404.328 861.84 407.779 861.84 412.036C861.84 416.293 865.317 419.743 869.606 419.743Z" fill="#F2F2F2"/>
<path d="M560.26 256.599C564.549 256.599 568.026 253.149 568.026 248.892C568.026 244.635 564.549 241.184 560.26 241.184C555.971 241.184 552.494 244.635 552.494 248.892C552.494 253.149 555.971 256.599 560.26 256.599Z" fill="#F2F2F2"/>
<path d="M149.955 205.216C154.244 205.216 157.721 201.765 157.721 197.508C157.721 193.251 154.244 189.8 149.955 189.8C145.666 189.8 142.189 193.251 142.189 197.508C142.189 201.765 145.666 205.216 149.955 205.216Z" fill="#F2F2F2"/>
<g filter="url(#filter0_d)">
<path d="M296.215 779.431C442.043 779.431 560.26 662.104 560.26 517.373C560.26 372.642 442.043 255.315 296.215 255.315C150.387 255.315 32.1707 372.642 32.1707 517.373C32.1707 662.104 150.387 779.431 296.215 779.431Z" fill="#6C63FF"/>
<path d="M559.76 517.373C559.76 661.824 441.77 778.931 296.215 778.931C150.66 778.931 32.6707 661.824 32.6707 517.373C32.6707 372.922 150.66 255.815 296.215 255.815C441.77 255.815 559.76 372.922 559.76 517.373Z" stroke="black"/>
</g>
<path opacity="0.2" d="M284.566 449.289C306.011 449.289 323.396 432.035 323.396 410.751C323.396 389.467 306.011 372.213 284.566 372.213C263.121 372.213 245.736 389.467 245.736 410.751C245.736 432.035 263.121 449.289 284.566 449.289Z" fill="black"/>
<path opacity="0.2" d="M284.566 735.755C321.738 735.755 351.872 705.848 351.872 668.956C351.872 632.064 321.738 602.157 284.566 602.157C247.394 602.157 217.261 632.064 217.261 668.956C217.261 705.848 247.394 735.755 284.566 735.755Z" fill="black"/>
<path opacity="0.2" d="M89.1215 584.172C98.4145 584.172 105.948 576.695 105.948 567.472C105.948 558.249 98.4145 550.773 89.1215 550.773C79.8286 550.773 72.2952 558.249 72.2952 567.472C72.2952 576.695 79.8286 584.172 89.1215 584.172Z" fill="black"/>
<path opacity="0.2" d="M753 185.694C757.94 185.694 761.945 181.72 761.945 176.817C761.945 171.914 757.94 167.939 753 167.939C748.06 167.939 744.056 171.914 744.056 176.817C744.056 181.72 748.06 185.694 753 185.694Z" fill="black"/>
<path opacity="0.2" d="M373.76 361.684C378.7 361.684 382.705 357.71 382.705 352.807C382.705 347.904 378.7 343.929 373.76 343.929C368.82 343.929 364.815 347.904 364.815 352.807C364.815 357.71 368.82 361.684 373.76 361.684Z" fill="black"/>
<path opacity="0.2" d="M272.917 540.496C279.351 540.496 284.566 535.32 284.566 528.934C284.566 522.549 279.351 517.373 272.917 517.373C266.484 517.373 261.268 522.549 261.268 528.934C261.268 535.32 266.484 540.496 272.917 540.496Z" fill="black"/>
<path opacity="0.2" d="M731.228 256.622C736.168 256.622 740.173 252.648 740.173 247.745C740.173 242.842 736.168 238.867 731.228 238.867C726.288 238.867 722.283 242.842 722.283 247.745C722.283 252.648 726.288 256.622 731.228 256.622Z" fill="black"/>
<path opacity="0.2" d="M490.481 475.004C495.421 475.004 499.426 471.03 499.426 466.127C499.426 461.224 495.421 457.249 490.481 457.249C485.541 457.249 481.536 461.224 481.536 466.127C481.536 471.03 485.541 475.004 490.481 475.004Z" fill="black"/>
<path opacity="0.2" d="M811.384 252.195C818.52 252.195 824.305 246.454 824.305 239.372C824.305 232.29 818.52 226.549 811.384 226.549C804.249 226.549 798.464 232.29 798.464 239.372C798.464 246.454 804.249 252.195 811.384 252.195Z" fill="black"/>
<path opacity="0.2" d="M416.612 569.491C423.747 569.491 429.532 563.75 429.532 556.668C429.532 549.586 423.747 543.845 416.612 543.845C409.476 543.845 403.691 549.586 403.691 556.668C403.691 563.75 409.476 569.491 416.612 569.491Z" fill="black"/>
<path opacity="0.2" d="M133.129 427.451C142.422 427.451 149.955 419.974 149.955 410.751C149.955 401.528 142.422 394.052 133.129 394.052C123.836 394.052 116.302 401.528 116.302 410.751C116.302 419.974 123.836 427.451 133.129 427.451Z" fill="black"/>
<path d="M759.53 902.058L761.364 918.446L744.853 916.624V896.595L759.53 902.058Z" fill="#FFB8B8"/>
<path d="M931.983 902.058L930.147 918.446L946.659 916.624V896.595L931.983 902.058Z" fill="#FFB8B8"/>
<path d="M757.695 548.822L750.356 736.365C750.356 736.365 726.506 876.567 732.01 880.209C737.514 883.85 732.01 903.879 732.01 903.879L763.199 907.521C763.199 907.521 763.199 892.954 770.537 887.492C777.875 882.029 845.756 625.296 845.756 625.296L915.471 872.926C915.471 872.926 913.637 887.492 919.14 887.492C924.644 887.492 926.479 907.521 926.479 907.521H957.667V887.492C957.667 887.492 966.84 885.671 961.336 871.105C955.833 856.538 935.652 548.822 935.652 548.822L757.695 548.822Z" fill="#2F2E41"/>
<path d="M748.522 902.058C748.522 902.058 739.349 896.596 735.68 900.237C732.01 903.879 702.657 940.295 702.657 940.295C702.657 940.295 662.295 965.786 698.987 973.07C735.68 980.353 763.199 945.758 765.033 942.116C766.868 938.474 763.199 909.342 761.364 912.983C759.529 916.625 754.026 914.804 752.191 912.983C750.356 911.162 748.522 902.058 748.522 902.058Z" fill="#2F2E41"/>
<path d="M942.99 902.058C942.99 902.058 952.163 896.596 955.833 900.237C959.502 903.879 988.856 940.295 988.856 940.295C988.856 940.295 1029.22 965.786 992.525 973.07C955.833 980.353 928.313 945.758 926.479 942.116C924.644 938.474 928.313 909.342 930.148 912.983C931.983 916.625 937.486 914.804 939.321 912.983C941.156 911.162 942.99 902.058 942.99 902.058Z" fill="#2F2E41"/>
<path d="M868.689 279.343C889.46 279.343 906.298 262.631 906.298 242.016C906.298 221.401 889.46 204.689 868.689 204.689C847.917 204.689 831.079 221.401 831.079 242.016C831.079 262.631 847.917 279.343 868.689 279.343Z" fill="#FFB8B8"/>
<path d="M843.922 262.955L838.417 319.4L882.448 328.505L893.456 261.135L843.922 262.955Z" fill="#FFB8B8"/>
<path d="M889.787 306.655C889.787 306.655 878.779 330.325 838.418 304.834L763.199 548.822C763.199 548.822 864.102 608.908 928.314 563.388L906.298 317.579L889.787 306.655Z" fill="#575A89"/>
<path d="M845.756 279.342L810.898 273.88L807.229 297.551C807.229 297.551 759.53 303.013 754.026 321.221L759.53 455.961C759.53 455.961 743.018 485.094 757.695 503.302C757.695 503.302 733.845 552.463 752.191 561.568C752.191 561.568 794.387 541.539 820.072 547.001C820.072 547.001 834.748 543.359 834.748 532.435C834.748 521.51 845.756 279.342 845.756 279.342Z" fill="#2F2E41"/>
<path d="M887.952 282.984L908.133 288.447L909.967 313.938C909.967 313.938 959.502 344.892 961.336 363.1C963.171 381.308 924.644 468.706 924.644 468.706C924.644 468.706 939.321 494.198 933.817 510.585C933.817 510.585 957.667 557.926 942.99 570.671C942.99 570.671 915.471 577.955 911.802 567.03C908.133 556.105 875.11 430.469 889.787 370.383C889.787 370.383 875.11 293.909 887.952 282.984Z" fill="#2F2E41"/>
<path d="M909.05 342.282H908.36V323.507C908.36 322.08 908.076 320.667 907.526 319.349C906.976 318.031 906.17 316.833 905.153 315.824C904.136 314.815 902.929 314.014 901.601 313.468C900.272 312.922 898.849 312.641 897.411 312.641H857.333C855.895 312.641 854.472 312.922 853.143 313.468C851.815 314.014 850.608 314.815 849.591 315.824C848.575 316.833 847.768 318.031 847.218 319.349C846.668 320.667 846.385 322.08 846.385 323.507V426.506C846.385 427.933 846.668 429.346 847.218 430.664C847.768 431.982 848.575 433.18 849.591 434.189C850.608 435.198 851.815 435.999 853.143 436.545C854.472 437.091 855.895 437.372 857.333 437.372H897.411C898.849 437.372 900.272 437.091 901.601 436.545C902.929 435.999 904.136 435.198 905.153 434.189C906.17 433.18 906.976 431.982 907.526 430.664C908.076 429.346 908.36 427.933 908.36 426.506V355.646H909.05V342.282Z" fill="white"/>
<path d="M926.479 415.903C926.479 415.903 911.802 368.562 889.787 383.128C867.771 397.695 904.464 437.753 904.464 437.753L926.479 415.903Z" fill="#FFB8B8"/>
<path d="M825.575 381.308C825.575 381.308 851.26 350.354 864.102 364.92C876.944 379.487 842.087 412.261 842.087 412.261L825.575 381.308Z" fill="#FFB8B8"/>
<path d="M759.529 319.4C759.529 319.4 750.356 317.579 744.853 333.967C739.349 350.354 719.168 412.261 719.168 423.186C719.168 434.111 726.506 477.81 766.868 470.527C807.229 463.244 854.929 412.261 854.929 412.261L829.245 374.024L774.206 406.799L759.529 319.4Z" fill="#2F2E41"/>
<path opacity="0.1" d="M767.457 366.605L775.124 405.888L831.997 373.115L778.793 393.143L767.063 364.26L767.457 366.605Z" fill="black"/>
<path opacity="0.1" d="M929.231 405.888L936.569 411.351L940.238 385.859L929.231 405.888Z" fill="black"/>
<path opacity="0.1" d="M758.612 475.079C758.612 475.079 812.5 460.53 837.842 428.657C837.842 428.657 811.816 471.438 758.612 475.079Z" fill="black"/>
<path opacity="0.1" d="M894.373 442.305C894.373 442.305 905.72 497.421 934.904 498.996C934.904 498.996 899.877 509.675 894.373 442.305Z" fill="black"/>
<path d="M953.998 355.816C953.998 355.816 959.502 359.458 963.171 375.845C966.84 392.233 990.69 454.14 981.517 468.706C972.344 483.273 957.667 516.047 926.479 494.198L895.291 437.753L926.479 408.62L939.321 417.724L953.998 355.816Z" fill="#2F2E41"/>
<path d="M832.583 251.483C832.583 251.483 801.041 200.747 834.638 198.108C845.85 197.33 856.797 194.37 866.857 189.396C877.994 183.771 892.012 179.496 899.472 188.154C902.727 192.113 906.522 195.603 910.748 198.522C917.301 202.835 924.883 209.827 920.684 217.327L913.802 229.623L904.165 254.215C906.409 243.608 906.466 234.702 900.724 230.306C900.724 230.306 868.689 243.837 852.544 219.377C834.471 205.919 828.721 248.279 832.583 251.483Z" fill="#2F2E41"/>
<path d="M877.862 358.548C882.928 358.548 887.035 354.472 887.035 349.444C887.035 344.416 882.928 340.34 877.862 340.34C872.796 340.34 868.689 344.416 868.689 349.444C868.689 354.472 872.796 358.548 877.862 358.548Z" fill="#6C63FF"/>
<defs>
<filter id="filter0_d" x="28.1707" y="255.315" width="536.089" height="532.116" filterUnits="userSpaceOnUse" color-interpolation-filters="sRGB">
<feFlood flood-opacity="0" result="BackgroundImageFix"/>
<feColorMatrix in="SourceAlpha" type="matrix" values="0 0 0 0 0 0 0 0 0 0 0 0 0 0 0 0 0 0 127 0"/>
<feOffset dy="4"/>
<feGaussianBlur stdDeviation="2"/>
<feColorMatrix type="matrix" values="0 0 0 0 0 0 0 0 0 0 0 0 0 0 0 0 0 0 0.25 0"/>
<feBlend mode="normal" in2="BackgroundImageFix" result="effect1_dropShadow"/>
<feBlend mode="normal" in="SourceGraphic" in2="effect1_dropShadow" result="shape"/>
</filter>
</defs>
</svg>
