<svg width="1028" height="959" viewBox="0 0 1028 959" fill="none" xmlns="http://www.w3.org/2000/svg">
<path d="M817.404 959C933.713 959 1028 944.998 1028 927.726C1028 910.454 933.713 896.453 817.404 896.453C701.095 896.453 606.808 910.454 606.808 927.726C606.808 944.998 701.095 959 817.404 959Z" fill="#E6E6E6"/>
<path d="M732.882 280.122C782.921 280.122 823.486 239.862 823.486 190.2C823.486 140.537 782.921 100.278 732.882 100.278C682.843 100.278 642.278 140.537 642.278 190.2C642.278 239.862 682.843 280.122 732.882 280.122Z" fill="#F2F2F2"/>
<path d="M454.6 15.4945C458.889 15.4945 462.366 12.0437 462.366 7.78691C462.366 3.53012 458.889 0.0793152 454.6 0.0793152C450.311 0.0793152 446.834 3.53012 446.834 7.78691C446.834 12.0437 450.311 15.4945 454.6 15.4945Z" fill="#FF6584"/>
<path d="M706.995 531.903C711.284 531.903 714.761 528.452 714.761 524.196C714.761 519.939 711.284 516.488 706.995 516.488C702.706 516.488 699.229 519.939 699.229 524.196C699.229 528.452 702.706 531.903 706.995 531.903Z" fill="#FF6584"/>
<path d="M732.882 15.4945C737.171 15.4945 740.648 12.0437 740.648 7.78691C740.648 3.53012 737.171 0.0793152 732.882 0.0793152C728.593 0.0793152 725.116 3.53012 725.116 7.78691C725.116 12.0437 728.593 15.4945 732.882 15.4945Z" fill="#F2F2F2"/>
<path d="M841.606 386.743C845.895 386.743 849.372 383.293 849.372 379.036C849.372 374.779 845.895 371.328 841.606 371.328C837.317 371.328 833.84 374.779 833.84 379.036C833.84 383.293 837.317 386.743 841.606 386.743Z" fill="#F2F2F2"/>
<path d="M532.26 223.599C536.549 223.599 540.026 220.149 540.026 215.892C540.026 211.635 536.549 208.184 532.26 208.184C527.971 208.184 524.494 211.635 524.494 215.892C524.494 220.149 527.971 223.599 532.26 223.599Z" fill="#F2F2F2"/>
<path d="M121.955 172.216C126.244 172.216 129.721 168.765 129.721 164.508C129.721 160.251 126.244 156.8 121.955 156.8C117.666 156.8 114.189 160.251 114.189 164.508C114.189 168.765 117.666 172.216 121.955 172.216Z" fill="#F2F2F2"/>
<g filter="url(#filter0_d)">
<path d="M268.215 746.431C414.043 746.431 532.26 629.104 532.26 484.373C532.26 339.642 414.043 222.315 268.215 222.315C122.387 222.315 4.17065 339.642 4.17065 484.373C4.17065 629.104 122.387 746.431 268.215 746.431Z" fill="#6C63FF"/>
<path d="M531.76 484.373C531.76 628.824 413.77 745.931 268.215 745.931C122.66 745.931 4.67065 628.824 4.67065 484.373C4.67065 339.922 122.66 222.815 268.215 222.815C413.77 222.815 531.76 339.922 531.76 484.373Z" stroke="black"/>
</g>
<path opacity="0.2" d="M256.566 416.289C278.011 416.289 295.396 399.035 295.396 377.751C295.396 356.467 278.011 339.213 256.566 339.213C235.121 339.213 217.736 356.467 217.736 377.751C217.736 399.035 235.121 416.289 256.566 416.289Z" fill="black"/>
<path opacity="0.2" d="M256.566 702.755C293.738 702.755 323.872 672.848 323.872 635.956C323.872 599.064 293.738 569.157 256.566 569.157C219.394 569.157 189.261 599.064 189.261 635.956C189.261 672.848 219.394 702.755 256.566 702.755Z" fill="black"/>
<path opacity="0.2" d="M61.1215 551.172C70.4145 551.172 77.9479 543.695 77.9479 534.472C77.9479 525.249 70.4145 517.773 61.1215 517.773C51.8286 517.773 44.2952 525.249 44.2952 534.472C44.2952 543.695 51.8286 551.172 61.1215 551.172Z" fill="black"/>
<path opacity="0.2" d="M725 152.694C729.94 152.694 733.945 148.72 733.945 143.817C733.945 138.914 729.94 134.939 725 134.939C720.06 134.939 716.056 138.914 716.056 143.817C716.056 148.72 720.06 152.694 725 152.694Z" fill="black"/>
<path opacity="0.2" d="M345.76 328.684C350.7 328.684 354.705 324.71 354.705 319.807C354.705 314.904 350.7 310.929 345.76 310.929C340.82 310.929 336.815 314.904 336.815 319.807C336.815 324.71 340.82 328.684 345.76 328.684Z" fill="black"/>
<path opacity="0.2" d="M244.917 507.496C251.351 507.496 256.566 502.32 256.566 495.934C256.566 489.549 251.351 484.373 244.917 484.373C238.484 484.373 233.268 489.549 233.268 495.934C233.268 502.32 238.484 507.496 244.917 507.496Z" fill="black"/>
<path opacity="0.2" d="M703.228 223.622C708.168 223.622 712.173 219.648 712.173 214.745C712.173 209.842 708.168 205.867 703.228 205.867C698.288 205.867 694.283 209.842 694.283 214.745C694.283 219.648 698.288 223.622 703.228 223.622Z" fill="black"/>
<path opacity="0.2" d="M462.481 442.004C467.421 442.004 471.426 438.03 471.426 433.127C471.426 428.224 467.421 424.249 462.481 424.249C457.541 424.249 453.536 428.224 453.536 433.127C453.536 438.03 457.541 442.004 462.481 442.004Z" fill="black"/>
<path opacity="0.2" d="M783.384 219.195C790.52 219.195 796.305 213.454 796.305 206.372C796.305 199.29 790.52 193.549 783.384 193.549C776.249 193.549 770.464 199.29 770.464 206.372C770.464 213.454 776.249 219.195 783.384 219.195Z" fill="black"/>
<path opacity="0.2" d="M388.612 536.491C395.747 536.491 401.532 530.75 401.532 523.668C401.532 516.586 395.747 510.845 388.612 510.845C381.476 510.845 375.691 516.586 375.691 523.668C375.691 530.75 381.476 536.491 388.612 536.491Z" fill="black"/>
<path opacity="0.2" d="M105.129 394.451C114.422 394.451 121.955 386.974 121.955 377.751C121.955 368.528 114.422 361.052 105.129 361.052C95.8359 361.052 88.3025 368.528 88.3025 377.751C88.3025 386.974 95.8359 394.451 105.129 394.451Z" fill="black"/>
<path d="M731.53 869.058L733.364 885.446L716.853 883.624V863.595L731.53 869.058Z" fill="#FFB8B8"/>
<path d="M903.983 869.058L902.147 885.446L918.659 883.624V863.595L903.983 869.058Z" fill="#FFB8B8"/>
<path d="M729.695 515.822L722.356 703.365C722.356 703.365 698.506 843.567 704.01 847.209C709.514 850.85 704.01 870.879 704.01 870.879L735.199 874.521C735.199 874.521 735.199 859.954 742.537 854.492C749.875 849.03 817.756 592.296 817.756 592.296L887.471 839.926C887.471 839.926 885.637 854.492 891.14 854.492C896.644 854.492 898.479 874.521 898.479 874.521H929.667V854.492C929.667 854.492 938.84 852.671 933.336 838.105C927.833 823.538 907.652 515.822 907.652 515.822L729.695 515.822Z" fill="#2F2E41"/>
<path d="M720.522 869.058C720.522 869.058 711.349 863.596 707.68 867.237C704.01 870.879 674.657 907.295 674.657 907.295C674.657 907.295 634.295 932.787 670.987 940.07C707.68 947.353 735.199 912.758 737.033 909.116C738.868 905.474 735.199 876.342 733.364 879.983C731.529 883.625 726.026 881.804 724.191 879.983C722.356 878.162 720.522 869.058 720.522 869.058Z" fill="#2F2E41"/>
<path d="M914.99 869.058C914.99 869.058 924.163 863.596 927.833 867.237C931.502 870.879 960.856 907.295 960.856 907.295C960.856 907.295 1001.22 932.787 964.525 940.07C927.833 947.353 900.313 912.758 898.479 909.116C896.644 905.474 900.313 876.342 902.148 879.983C903.983 883.625 909.486 881.804 911.321 879.983C913.156 878.162 914.99 869.058 914.99 869.058Z" fill="#2F2E41"/>
<path d="M840.689 246.343C861.46 246.343 878.298 229.631 878.298 209.016C878.298 188.401 861.46 171.689 840.689 171.689C819.917 171.689 803.079 188.401 803.079 209.016C803.079 229.631 819.917 246.343 840.689 246.343Z" fill="#FFB8B8"/>
<path d="M815.922 229.955L810.417 286.4L854.448 295.505L865.456 228.135L815.922 229.955Z" fill="#FFB8B8"/>
<path d="M861.787 273.655C861.787 273.655 850.779 297.325 810.418 271.834L735.199 515.822C735.199 515.822 836.102 575.908 900.314 530.388L878.298 284.579L861.787 273.655Z" fill="#575A89"/>
<path d="M817.756 246.342L782.898 240.88L779.229 264.551C779.229 264.551 731.53 270.013 726.026 288.221L731.53 422.961C731.53 422.961 715.018 452.094 729.695 470.302C729.695 470.302 705.845 519.463 724.191 528.568C724.191 528.568 766.387 508.539 792.072 514.001C792.072 514.001 806.748 510.359 806.748 499.435C806.748 488.51 817.756 246.342 817.756 246.342Z" fill="#2F2E41"/>
<path d="M859.952 249.984L880.133 255.447L881.967 280.938C881.967 280.938 931.502 311.892 933.336 330.1C935.171 348.308 896.644 435.706 896.644 435.706C896.644 435.706 911.321 461.198 905.817 477.585C905.817 477.585 929.667 524.926 914.99 537.671C914.99 537.671 887.471 544.955 883.802 534.03C880.133 523.105 847.11 397.469 861.787 337.383C861.787 337.383 847.11 260.909 859.952 249.984Z" fill="#2F2E41"/>
<path d="M881.05 309.282H880.36V290.507C880.36 289.08 880.076 287.667 879.526 286.349C878.976 285.031 878.17 283.833 877.153 282.824C876.136 281.815 874.929 281.014 873.601 280.468C872.272 279.922 870.849 279.641 869.411 279.641H829.333C827.895 279.641 826.472 279.922 825.143 280.468C823.815 281.014 822.608 281.815 821.591 282.824C820.575 283.833 819.768 285.031 819.218 286.349C818.668 287.667 818.385 289.08 818.385 290.507V393.506C818.385 394.933 818.668 396.346 819.218 397.664C819.768 398.982 820.575 400.18 821.591 401.189C822.608 402.198 823.815 402.999 825.143 403.545C826.472 404.091 827.895 404.372 829.333 404.372H869.411C870.849 404.372 872.272 404.091 873.601 403.545C874.929 402.999 876.136 402.198 877.153 401.189C878.17 400.18 878.976 398.982 879.526 397.664C880.076 396.346 880.36 394.933 880.36 393.506V322.646H881.05V309.282Z" fill="white"/>
<path d="M898.479 382.903C898.479 382.903 883.802 335.562 861.787 350.128C839.771 364.695 876.464 404.753 876.464 404.753L898.479 382.903Z" fill="#FFB8B8"/>
<path d="M797.575 348.308C797.575 348.308 823.26 317.354 836.102 331.92C848.944 346.487 814.087 379.261 814.087 379.261L797.575 348.308Z" fill="#FFB8B8"/>
<path d="M731.529 286.4C731.529 286.4 722.356 284.579 716.853 300.967C711.349 317.354 691.168 379.261 691.168 390.186C691.168 401.111 698.506 444.81 738.868 437.527C779.229 430.244 826.929 379.261 826.929 379.261L801.245 341.024L746.206 373.799L731.529 286.4Z" fill="#2F2E41"/>
<path opacity="0.1" d="M739.457 333.605L747.124 372.888L803.997 340.115L750.793 360.143L739.063 331.26L739.457 333.605Z" fill="black"/>
<path opacity="0.1" d="M901.231 372.888L908.569 378.351L912.238 352.859L901.231 372.888Z" fill="black"/>
<path opacity="0.1" d="M730.612 442.079C730.612 442.079 784.5 427.53 809.842 395.657C809.842 395.657 783.816 438.438 730.612 442.079Z" fill="black"/>
<path opacity="0.1" d="M866.373 409.305C866.373 409.305 877.72 464.421 906.904 465.996C906.904 465.996 871.877 476.675 866.373 409.305Z" fill="black"/>
<path d="M925.998 322.816C925.998 322.816 931.502 326.458 935.171 342.845C938.84 359.233 962.69 421.14 953.517 435.706C944.344 450.273 929.667 483.047 898.479 461.198L867.291 404.753L898.479 375.62L911.321 384.724L925.998 322.816Z" fill="#2F2E41"/>
<path d="M804.583 218.483C804.583 218.483 773.041 167.747 806.638 165.108C817.85 164.33 828.797 161.37 838.857 156.396C849.994 150.771 864.012 146.496 871.472 155.154C874.727 159.113 878.522 162.603 882.748 165.522C889.301 169.835 896.883 176.827 892.684 184.327L885.802 196.623L876.165 221.215C878.409 210.608 878.466 201.702 872.724 197.306C872.724 197.306 840.689 210.837 824.544 186.377C806.471 172.919 800.721 215.279 804.583 218.483Z" fill="#2F2E41"/>
<path d="M849.862 325.548C854.928 325.548 859.035 321.472 859.035 316.444C859.035 311.416 854.928 307.34 849.862 307.34C844.796 307.34 840.689 311.416 840.689 316.444C840.689 321.472 844.796 325.548 849.862 325.548Z" fill="#6C63FF"/>
<defs>
<filter id="filter0_d" x="0.170654" y="222.315" width="536.089" height="532.116" filterUnits="userSpaceOnUse" color-interpolation-filters="sRGB">
<feFlood flood-opacity="0" result="BackgroundImageFix"/>
<feColorMatrix in="SourceAlpha" type="matrix" values="0 0 0 0 0 0 0 0 0 0 0 0 0 0 0 0 0 0 127 0"/>
<feOffset dy="4"/>
<feGaussianBlur stdDeviation="2"/>
<feColorMatrix type="matrix" values="0 0 0 0 0 0 0 0 0 0 0 0 0 0 0 0 0 0 0.25 0"/>
<feBlend mode="normal" in2="BackgroundImageFix" result="effect1_dropShadow"/>
<feBlend mode="normal" in="SourceGraphic" in2="effect1_dropShadow" result="shape"/>
</filter>
</defs>
</svg>
