<svg width="470" height="339" viewBox="0 0 470 339" fill="none" xmlns="http://www.w3.org/2000/svg">
<g clip-path="url(#clip0)">
<path opacity="0.1" d="M265.846 46.1522C235.719 46.1943 206.721 37.2719 178.985 27.3598C151.249 17.4478 123.726 6.3484 94.1596 1.64504C75.1447 -1.37825 53.5222 -1.10035 38.6585 9.87697C24.351 20.4374 20.2078 37.9161 18.2088 54.0642C16.7055 66.2121 16.0123 78.9621 21.6426 90.0741C25.552 97.7882 32.2423 104.146 36.9577 111.498C53.4174 137.074 43.519 169.745 27.5228 195.915C20.0224 208.193 11.2364 219.962 5.56579 232.943C-0.104824 245.925 -2.4303 260.646 3.35316 273.459C9.08423 286.158 22.0295 295.376 35.9219 301.671C64.1339 314.48 96.9808 317.225 128.945 318.282C199.701 320.627 270.593 315.844 341.297 311.061C367.461 309.292 393.743 307.511 419.367 302.386C433.594 299.544 448.244 295.325 458.332 286.078C471.137 274.339 473.756 255.172 464.438 241.394C448.813 218.286 407.611 213.928 396.407 188.925C390.228 175.16 395.557 159.374 403.403 146.106C420.234 117.637 449.204 92.1374 449.691 60.296C450.026 38.4298 434.961 17.0983 412.46 7.59477C388.874 -2.35935 356.717 0.200765 340.192 18.7531C323.201 37.8656 292.446 46.1228 265.846 46.1522Z" fill="#6C63FF"/>
<path d="M400.018 271.742C400.018 271.742 395.065 268.327 390.156 270.757C390.156 270.757 391.667 273.797 397.882 273.511L400.018 271.742Z" fill="#6C63FF"/>
<path d="M400.647 271.923C400.647 271.923 402.154 277.919 398.374 282C398.374 282 396.101 279.528 398.374 273.473L400.647 271.923Z" fill="#6C63FF"/>
<path d="M406.805 266.167C406.805 266.167 406.438 261.068 395.416 262.761C395.416 262.761 395.363 266.049 399.232 267.607C403.101 269.165 404.875 267.852 406.805 266.167Z" fill="#6C63FF"/>
<path d="M407.498 266.134C407.498 266.134 412.157 267.696 408.002 278.496C408.002 278.496 404.927 277.78 404.375 273.481C403.823 269.182 405.459 267.7 407.498 266.134Z" fill="#6C63FF"/>
<path d="M413.721 258.9C413.721 258.9 414.354 250.508 403.089 251.367C403.089 251.367 402.283 258.946 411.734 260.917L413.721 258.9Z" fill="#6C63FF"/>
<path d="M421.165 249.426C421.165 249.426 419.622 239.914 408.361 242.747C408.361 242.747 408.321 250.971 419.327 251.691L421.165 249.426Z" fill="#6C63FF"/>
<path d="M426.606 239.631C426.606 239.631 424.018 230.368 412.863 233.139C412.863 233.139 415.518 241.472 425.864 241.341L426.606 239.631Z" fill="#6C63FF"/>
<path d="M431.773 230.065C431.773 230.065 429.246 220.452 418.473 223.328C418.473 223.328 422.068 232.461 431.059 231.69L431.773 230.065Z" fill="#6C63FF"/>
<path d="M435.102 220.978C435.102 220.978 433.159 209.222 423.116 211.824C423.116 211.824 426.034 222.519 434.364 222.692L435.102 220.978Z" fill="#6C63FF"/>
<path d="M438.225 210.001C438.225 210.001 435.892 198.152 425.731 201.579C425.731 201.579 429.713 212.78 437.504 211.622L438.225 210.001Z" fill="#6C63FF"/>
<path d="M440.144 199.786C440.144 199.786 436.44 187.932 428.585 188.252C428.585 188.252 432.369 200.771 439.487 202.148L440.144 199.786Z" fill="#6C63FF"/>
<path d="M441.385 189.815C441.385 189.815 437.355 175.549 430.963 176.648C430.963 176.648 433.752 187.553 441.159 192.038L441.385 189.815Z" fill="#6C63FF"/>
<path d="M442.086 177.919C442.086 177.919 438.306 166.032 432.01 165.557C432.01 165.557 434.582 177.254 441.961 181.01L442.086 177.919Z" fill="#6C63FF"/>
<path d="M442.848 166.82C442.848 166.82 438.136 154.92 433.981 154.651C433.981 154.651 436.029 166.369 442.445 168.774L442.848 166.82Z" fill="#6C63FF"/>
<path d="M443.368 156.495C443.368 156.495 440.47 143.573 436.307 142.499C436.307 142.499 436.875 153.072 442.949 157.464L443.368 156.495Z" fill="#6C63FF"/>
<path d="M444.94 142.97C444.94 142.97 441.893 132.667 438.519 131.096C438.519 131.096 439.184 143.244 444.162 145.488L444.94 142.97Z" fill="#6C63FF"/>
<path d="M446.241 134.128L446.854 115.963C446.854 115.963 440.547 129.656 445.786 137.315L446.241 134.128Z" fill="#6C63FF"/>
<path d="M451.11 116.06C451.11 116.06 455.652 102.796 456.752 102.055C456.752 102.055 447.846 110.662 448.716 121.732L451.11 116.06Z" fill="#6C63FF"/>
<path d="M414.027 258.836C414.027 258.836 422.015 257.746 421.778 269.54C421.778 269.54 414.559 270.77 412.202 261.013L414.027 258.836Z" fill="#6C63FF"/>
<path d="M421.544 249.106C421.544 249.106 430.773 249.076 430.007 261.148C430.007 261.148 422.257 262.597 419.702 251.388L421.544 249.106Z" fill="#6C63FF"/>
<path d="M426.694 240.41C426.694 240.41 435.073 236.305 440.434 246.903C440.434 246.903 432.696 250.322 425.953 242.124L426.694 240.41Z" fill="#6C63FF"/>
<path d="M431.958 230.153C431.958 230.153 440.539 225.787 445.576 236.137C445.576 236.137 436.637 239.354 431.249 231.791L431.958 230.153Z" fill="#6C63FF"/>
<path d="M434.993 221.235C434.993 221.235 443.251 212.994 449.84 221.327C449.84 221.327 441.405 228.111 434.614 223.071L434.993 221.235Z" fill="#6C63FF"/>
<path d="M437.757 209.719C437.757 209.719 446.064 201.297 452.601 210.106C452.601 210.106 443.279 217.024 437.459 211.487L437.757 209.719Z" fill="#6C63FF"/>
<path d="M439.309 199.449C439.309 199.449 445.709 188.922 453.246 191.271C453.246 191.271 446.604 202.417 439.382 201.92L439.309 199.449Z" fill="#6C63FF"/>
<path d="M441.196 189.747C441.196 189.747 447.644 176.492 453.746 178.799C453.746 178.799 449.095 188.989 441.03 191.983L441.196 189.747Z" fill="#6C63FF"/>
<path d="M441.643 177.229C441.643 177.229 448.273 166.795 454.483 168.07C454.483 168.07 449.063 178.652 440.998 180.248L441.643 177.229Z" fill="#6C63FF"/>
<path d="M442.159 166.588C442.159 166.588 447.297 154.878 451.473 154.798C451.473 154.798 449.006 166.424 442.505 168.576L442.159 166.588Z" fill="#6C63FF"/>
<path d="M443.167 156.243C443.167 156.243 448.877 144.385 453.17 144.36C453.17 144.36 450.248 154.499 443.356 157.283L443.167 156.243Z" fill="#6C63FF"/>
<path d="M444.025 143.712C444.025 143.712 448.297 133.901 451.836 132.789C451.836 132.789 449.7 144.747 444.496 146.314L444.025 143.712Z" fill="#6C63FF"/>
<path d="M446.749 133.77L456.297 118.574C456.297 118.574 453.851 133.564 445.355 136.68L446.749 133.77Z" fill="#6C63FF"/>
<path d="M453.303 117.285C453.303 117.285 464.398 109.285 464.801 107.992C464.801 107.992 459.159 119.197 448.68 121.176L453.303 117.285Z" fill="#6C63FF"/>
<path d="M453.967 113.685C453.967 113.685 466.707 100.889 469.96 100.901C469.96 100.901 459.453 101.402 453.661 113.003L453.967 113.685Z" fill="#6C63FF"/>
<path d="M444.15 145.611L444.613 145.674C447.007 126.098 450.497 114.515 454.439 113.095L454.286 112.632C450.106 114.148 446.592 125.555 444.15 145.611Z" fill="#444053"/>
<path d="M440.627 192.425L441.328 192.484C441.478 190.657 441.59 188.787 441.667 186.922C442.336 170.719 443.372 155.838 444.734 144.684L444.331 144.158C442.965 155.337 441.635 170.664 440.966 186.892C440.889 188.745 440.776 190.606 440.627 192.425Z" fill="#444053"/>
<path d="M386.944 281.082C387.065 281.027 399.41 275.267 412.222 261.531C419.728 253.487 425.966 244.249 430.701 234.162C436.625 221.559 440.237 206.072 441.446 191.027L440.716 191.385C437.996 225.155 423.281 248.23 411.581 260.799C398.894 274.412 386.686 280.113 386.565 280.168L386.944 281.082Z" fill="#444053"/>
<path d="M418.908 35.8879H31.646C30.731 35.8879 29.8535 36.2676 29.2065 36.9436C28.5595 37.6195 28.196 38.5363 28.196 39.4922V49.9938H422.358V39.4922C422.358 38.5363 421.995 37.6195 421.348 36.9436C420.701 36.2676 419.823 35.8879 418.908 35.8879Z" fill="#3F3D56"/>
<path d="M28.196 49.9938V286.316C28.196 288.243 28.9289 290.092 30.2335 291.455C31.538 292.818 33.3074 293.583 35.1523 293.583H415.402C417.247 293.583 419.016 292.818 420.321 291.455C421.625 290.092 422.358 288.243 422.358 286.316V49.9938H28.196Z" fill="white"/>
<path opacity="0.8" d="M34.4388 44.5198C35.3291 44.5198 36.0509 43.7657 36.0509 42.8355C36.0509 41.9053 35.3291 41.1512 34.4388 41.1512C33.5484 41.1512 32.8267 41.9053 32.8267 42.8355C32.8267 43.7657 33.5484 44.5198 34.4388 44.5198Z" fill="#FA5959"/>
<path opacity="0.8" d="M38.8721 44.5198C39.7625 44.5198 40.4842 43.7657 40.4842 42.8355C40.4842 41.9053 39.7625 41.1512 38.8721 41.1512C37.9818 41.1512 37.26 41.9053 37.26 42.8355C37.26 43.7657 37.9818 44.5198 38.8721 44.5198Z" fill="#FED253"/>
<path opacity="0.8" d="M43.3055 44.5198C44.1958 44.5198 44.9176 43.7657 44.9176 42.8355C44.9176 41.9053 44.1958 41.1512 43.3055 41.1512C42.4151 41.1512 41.6934 41.9053 41.6934 42.8355C41.6934 43.7657 42.4151 44.5198 43.3055 44.5198Z" fill="#8CCF4D"/>
<path opacity="0.05" d="M381.616 89.3976H64.8352V234.928H381.616V89.3976Z" fill="black"/>
<path d="M379.198 90.5007H67.2534V232.823H379.198V90.5007Z" fill="#3F3D56"/>
<path d="M152.293 127.13C146.155 127.13 140.155 129.031 135.051 132.594C129.948 136.157 125.97 141.22 123.622 147.145C121.273 153.069 120.658 159.588 121.856 165.878C123.053 172.167 126.009 177.944 130.349 182.478C134.689 187.013 140.218 190.101 146.238 191.352C152.258 192.603 158.498 191.961 164.168 189.507C169.839 187.053 174.686 182.897 178.096 177.565C181.506 172.233 183.326 165.965 183.326 159.552C183.326 155.294 182.523 151.078 180.963 147.145C179.404 143.211 177.118 139.637 174.236 136.626C171.355 133.615 167.934 131.227 164.168 129.598C160.403 127.968 156.368 127.13 152.293 127.13ZM157.858 160.331V175.683H146.888V160.331C145.37 159.131 144.251 157.462 143.689 155.561C143.128 153.661 143.151 151.624 143.758 149.738C144.364 147.852 145.521 146.213 147.067 145.051C148.613 143.89 150.469 143.265 152.373 143.265C154.277 143.265 156.133 143.89 157.679 145.051C159.225 146.213 160.382 147.852 160.989 149.738C161.595 151.624 161.619 153.661 161.057 155.561C160.495 157.462 159.376 159.131 157.858 160.331Z" fill="#6C63FF"/>
<path opacity="0.05" d="M152.293 127.13C146.155 127.13 140.155 129.031 135.051 132.594C129.948 136.157 125.97 141.22 123.622 147.145C121.273 153.069 120.658 159.588 121.856 165.878C123.053 172.167 126.009 177.944 130.349 182.478C134.689 187.013 140.218 190.101 146.238 191.352C152.258 192.603 158.498 191.961 164.168 189.507C169.839 187.053 174.686 182.897 178.096 177.565C181.506 172.233 183.326 165.965 183.326 159.552C183.326 155.294 182.523 151.078 180.963 147.145C179.404 143.211 177.118 139.637 174.236 136.626C171.355 133.615 167.934 131.227 164.168 129.598C160.403 127.968 156.368 127.13 152.293 127.13ZM157.858 160.331V175.683H146.888V160.331C145.37 159.131 144.251 157.462 143.689 155.561C143.128 153.661 143.151 151.624 143.758 149.738C144.364 147.852 145.521 146.213 147.067 145.051C148.613 143.89 150.469 143.265 152.373 143.265C154.277 143.265 156.133 143.89 157.679 145.051C159.225 146.213 160.382 147.852 160.989 149.738C161.595 151.624 161.619 153.661 161.057 155.561C160.495 157.462 159.376 159.131 157.858 160.331Z" fill="black"/>
<path d="M152.292 117.866C144.401 117.866 136.687 120.311 130.125 124.892C123.564 129.472 118.45 135.983 115.43 143.6C112.41 151.217 111.62 159.598 113.159 167.685C114.699 175.771 118.499 183.199 124.079 189.029C129.659 194.859 136.769 198.829 144.508 200.437C152.248 202.046 160.271 201.22 167.561 198.065C174.852 194.91 181.084 189.567 185.468 182.712C189.852 175.856 192.192 167.797 192.192 159.552C192.192 148.496 187.989 137.893 180.506 130.076C173.023 122.258 162.875 117.866 152.292 117.866ZM159.446 160.554V180.29H145.34V160.554C143.388 159.011 141.948 156.865 141.226 154.42C140.503 151.976 140.534 149.356 141.313 146.931C142.093 144.505 143.581 142.397 145.569 140.903C147.558 139.41 149.944 138.606 152.393 138.606C154.842 138.606 157.229 139.41 159.217 140.903C161.205 142.397 162.694 144.505 163.473 146.931C164.253 149.356 164.283 151.976 163.561 154.42C162.838 156.865 161.399 159.011 159.446 160.554Z" fill="#6C63FF"/>
<path d="M337.686 154.083H208.716V168.399H337.686V154.083Z" fill="white"/>
<path d="M337.686 180.189H309.877V194.505H337.686V180.189Z" fill="#6C63FF"/>
<path d="M221.412 161.026H219.078L221.154 158.862C221.191 158.822 221.212 158.768 221.212 158.712C221.212 158.656 221.191 158.603 221.154 158.563C221.135 158.543 221.113 158.527 221.088 158.517C221.064 158.506 221.037 158.5 221.011 158.5C220.984 158.5 220.958 158.506 220.933 158.517C220.909 158.527 220.886 158.543 220.868 158.563L218.792 160.731V158.289C218.792 158.233 218.771 158.18 218.733 158.14C218.695 158.101 218.644 158.078 218.591 158.078C218.537 158.08 218.487 158.102 218.449 158.141C218.412 158.181 218.39 158.234 218.389 158.289V160.731L216.317 158.55C216.299 158.53 216.276 158.515 216.252 158.504C216.227 158.493 216.201 158.488 216.174 158.488C216.148 158.488 216.121 158.493 216.097 158.504C216.072 158.515 216.05 158.53 216.031 158.55C215.994 158.59 215.973 158.644 215.973 158.7C215.973 158.755 215.994 158.809 216.031 158.849L218.107 161.013H215.769C215.716 161.014 215.666 161.037 215.628 161.076C215.59 161.115 215.569 161.168 215.568 161.224C215.568 161.28 215.589 161.333 215.627 161.373C215.665 161.412 215.716 161.434 215.769 161.434H218.107L216.031 163.603C215.994 163.643 215.973 163.697 215.973 163.752C215.973 163.808 215.994 163.862 216.031 163.902C216.07 163.94 216.121 163.961 216.174 163.961C216.228 163.961 216.279 163.94 216.317 163.902L218.389 161.733V164.171C218.389 164.227 218.41 164.281 218.448 164.32C218.486 164.36 218.537 164.382 218.591 164.382C218.644 164.382 218.695 164.36 218.733 164.32C218.771 164.281 218.792 164.227 218.792 164.171V161.733L220.868 163.902C220.906 163.94 220.958 163.961 221.011 163.961C221.064 163.961 221.115 163.94 221.154 163.902C221.191 163.862 221.212 163.808 221.212 163.752C221.212 163.697 221.191 163.643 221.154 163.603L219.078 161.434H221.412C221.465 161.434 221.516 161.412 221.554 161.373C221.592 161.333 221.613 161.28 221.613 161.224C221.61 161.17 221.588 161.12 221.55 161.083C221.513 161.046 221.463 161.026 221.412 161.026Z" fill="#6C63FF"/>
<path d="M229.876 161.026H227.542L229.618 158.862C229.655 158.822 229.676 158.768 229.676 158.712C229.676 158.656 229.655 158.603 229.618 158.563C229.599 158.543 229.577 158.527 229.552 158.517C229.528 158.506 229.501 158.5 229.475 158.5C229.448 158.5 229.422 158.506 229.397 158.517C229.373 158.527 229.35 158.543 229.332 158.563L227.256 160.731V158.289C227.256 158.233 227.235 158.18 227.197 158.14C227.159 158.101 227.108 158.078 227.054 158.078C227.001 158.08 226.951 158.102 226.913 158.141C226.876 158.181 226.854 158.234 226.853 158.289V160.731L224.781 158.55C224.763 158.53 224.74 158.515 224.716 158.504C224.691 158.493 224.665 158.488 224.638 158.488C224.612 158.488 224.585 158.493 224.561 158.504C224.536 158.515 224.514 158.53 224.495 158.55C224.458 158.59 224.437 158.644 224.437 158.7C224.437 158.755 224.458 158.809 224.495 158.849L226.571 161.013H224.233C224.18 161.014 224.129 161.037 224.092 161.076C224.054 161.115 224.033 161.168 224.032 161.224C224.032 161.28 224.053 161.333 224.091 161.373C224.129 161.412 224.18 161.434 224.233 161.434H226.571L224.495 163.603C224.458 163.643 224.437 163.697 224.437 163.752C224.437 163.808 224.458 163.862 224.495 163.902C224.534 163.94 224.585 163.961 224.638 163.961C224.691 163.961 224.743 163.94 224.781 163.902L226.853 161.733V164.171C226.853 164.227 226.874 164.281 226.912 164.32C226.95 164.36 227.001 164.382 227.054 164.382C227.108 164.382 227.159 164.36 227.197 164.32C227.235 164.281 227.256 164.227 227.256 164.171V161.733L229.332 163.902C229.37 163.94 229.421 163.961 229.475 163.961C229.528 163.961 229.579 163.94 229.618 163.902C229.655 163.862 229.676 163.808 229.676 163.752C229.676 163.697 229.655 163.643 229.618 163.603L227.542 161.434H229.876C229.929 161.434 229.98 161.412 230.018 161.373C230.056 161.333 230.077 161.28 230.077 161.224C230.074 161.17 230.051 161.12 230.014 161.083C229.977 161.046 229.927 161.026 229.876 161.026Z" fill="#6C63FF"/>
<path d="M238.339 161.026H236.005L238.081 158.862C238.118 158.822 238.139 158.768 238.139 158.712C238.139 158.656 238.118 158.603 238.081 158.563C238.062 158.543 238.04 158.527 238.016 158.517C237.991 158.506 237.965 158.5 237.938 158.5C237.911 158.5 237.885 158.506 237.861 158.517C237.836 158.527 237.814 158.543 237.795 158.563L235.719 160.731V158.289C235.719 158.233 235.698 158.18 235.66 158.14C235.623 158.101 235.571 158.078 235.518 158.078C235.465 158.08 235.414 158.102 235.376 158.141C235.339 158.181 235.317 158.234 235.316 158.289V160.731L233.245 158.55C233.226 158.53 233.204 158.515 233.179 158.504C233.155 158.493 233.128 158.488 233.102 158.488C233.075 158.488 233.049 158.493 233.024 158.504C233 158.515 232.977 158.53 232.959 158.55C232.921 158.59 232.901 158.644 232.901 158.7C232.901 158.755 232.921 158.809 232.959 158.849L235.034 161.013H232.697C232.644 161.014 232.593 161.037 232.555 161.076C232.518 161.115 232.496 161.168 232.495 161.224C232.495 161.28 232.516 161.333 232.554 161.373C232.592 161.412 232.643 161.434 232.697 161.434H235.034L232.959 163.603C232.921 163.643 232.901 163.697 232.901 163.752C232.901 163.808 232.921 163.862 232.959 163.902C232.997 163.94 233.049 163.961 233.102 163.961C233.155 163.961 233.206 163.94 233.245 163.902L235.316 161.733V164.171C235.316 164.227 235.338 164.281 235.375 164.32C235.413 164.36 235.464 164.382 235.518 164.382C235.571 164.382 235.623 164.36 235.66 164.32C235.698 164.281 235.719 164.227 235.719 164.171V161.733L237.795 163.902C237.834 163.94 237.885 163.961 237.938 163.961C237.991 163.961 238.042 163.94 238.081 163.902C238.118 163.862 238.139 163.808 238.139 163.752C238.139 163.697 238.118 163.643 238.081 163.603L236.005 161.434H238.339C238.392 161.434 238.444 161.412 238.482 161.373C238.519 161.333 238.541 161.28 238.541 161.224C238.537 161.17 238.515 161.12 238.477 161.083C238.44 161.046 238.39 161.026 238.339 161.026Z" fill="#6C63FF"/>
<path d="M246.803 161.026H244.469L246.545 158.862C246.582 158.822 246.603 158.768 246.603 158.712C246.603 158.656 246.582 158.603 246.545 158.563C246.526 158.543 246.504 158.527 246.479 158.517C246.455 158.506 246.428 158.5 246.402 158.5C246.375 158.5 246.349 158.506 246.324 158.517C246.3 158.527 246.277 158.543 246.259 158.563L244.183 160.731V158.289C244.183 158.233 244.162 158.18 244.124 158.14C244.086 158.101 244.035 158.078 243.981 158.078C243.928 158.08 243.878 158.102 243.84 158.141C243.803 158.181 243.781 158.234 243.78 158.289V160.731L241.708 158.55C241.69 158.53 241.667 158.515 241.643 158.504C241.618 158.493 241.592 158.488 241.565 158.488C241.539 158.488 241.512 158.493 241.488 158.504C241.463 158.515 241.441 158.53 241.422 158.55C241.385 158.59 241.364 158.644 241.364 158.7C241.364 158.755 241.385 158.809 241.422 158.849L243.498 161.013H241.16C241.107 161.014 241.056 161.037 241.019 161.076C240.981 161.115 240.96 161.168 240.959 161.224C240.959 161.28 240.98 161.333 241.018 161.373C241.056 161.412 241.107 161.434 241.16 161.434H243.498L241.422 163.603C241.385 163.643 241.364 163.697 241.364 163.752C241.364 163.808 241.385 163.862 241.422 163.902C241.461 163.94 241.512 163.961 241.565 163.961C241.618 163.961 241.67 163.94 241.708 163.902L243.78 161.733V164.171C243.78 164.227 243.801 164.281 243.839 164.32C243.877 164.36 243.928 164.382 243.981 164.382C244.035 164.382 244.086 164.36 244.124 164.32C244.162 164.281 244.183 164.227 244.183 164.171V161.733L246.259 163.902C246.297 163.94 246.349 163.961 246.402 163.961C246.455 163.961 246.506 163.94 246.545 163.902C246.582 163.862 246.603 163.808 246.603 163.752C246.603 163.697 246.582 163.643 246.545 163.603L244.469 161.434H246.803C246.856 161.434 246.907 161.412 246.945 161.373C246.983 161.333 247.004 161.28 247.004 161.224C247.001 161.17 246.979 161.12 246.941 161.083C246.904 161.046 246.854 161.026 246.803 161.026Z" fill="#6C63FF"/>
<path d="M255.266 161.026H252.933L255.008 158.862C255.046 158.822 255.066 158.768 255.066 158.712C255.066 158.656 255.046 158.603 255.008 158.563C254.99 158.543 254.967 158.527 254.943 158.517C254.918 158.506 254.892 158.5 254.865 158.5C254.839 158.5 254.812 158.506 254.788 158.517C254.763 158.527 254.741 158.543 254.722 158.563L252.647 160.731V158.289C252.647 158.233 252.625 158.18 252.588 158.14C252.55 158.101 252.499 158.078 252.445 158.078C252.392 158.08 252.341 158.102 252.304 158.141C252.266 158.181 252.245 158.234 252.244 158.289V160.731L250.172 158.55C250.153 158.53 250.131 158.515 250.106 158.504C250.082 158.493 250.056 158.488 250.029 158.488C250.002 158.488 249.976 158.493 249.951 158.504C249.927 158.515 249.905 158.53 249.886 158.55C249.849 158.59 249.828 158.644 249.828 158.7C249.828 158.755 249.849 158.809 249.886 158.849L251.961 161.013H249.624C249.571 161.014 249.52 161.037 249.483 161.076C249.445 161.115 249.423 161.168 249.422 161.224C249.422 161.28 249.444 161.333 249.481 161.373C249.519 161.412 249.57 161.434 249.624 161.434H251.961L249.886 163.603C249.849 163.643 249.828 163.697 249.828 163.752C249.828 163.808 249.849 163.862 249.886 163.902C249.925 163.94 249.976 163.961 250.029 163.961C250.082 163.961 250.133 163.94 250.172 163.902L252.244 161.733V164.171C252.244 164.227 252.265 164.281 252.303 164.32C252.34 164.36 252.392 164.382 252.445 164.382C252.499 164.382 252.55 164.36 252.588 164.32C252.625 164.281 252.647 164.227 252.647 164.171V161.733L254.722 163.902C254.761 163.94 254.812 163.961 254.865 163.961C254.918 163.961 254.97 163.94 255.008 163.902C255.046 163.862 255.066 163.808 255.066 163.752C255.066 163.697 255.046 163.643 255.008 163.603L252.933 161.434H255.266C255.32 161.434 255.371 161.412 255.409 161.373C255.447 161.333 255.468 161.28 255.468 161.224C255.465 161.17 255.442 161.12 255.405 161.083C255.367 161.046 255.318 161.026 255.266 161.026Z" fill="#6C63FF"/>
<path d="M263.73 161.026H261.396L263.472 158.862C263.509 158.822 263.53 158.768 263.53 158.712C263.53 158.656 263.509 158.603 263.472 158.563C263.453 158.543 263.431 158.527 263.406 158.517C263.382 158.506 263.356 158.5 263.329 158.5C263.302 158.5 263.276 158.506 263.251 158.517C263.227 158.527 263.205 158.543 263.186 158.563L261.11 160.731V158.289C261.11 158.233 261.089 158.18 261.051 158.14C261.013 158.101 260.962 158.078 260.909 158.078C260.856 158.08 260.805 158.102 260.767 158.141C260.73 158.181 260.708 158.234 260.707 158.289V160.731L258.636 158.55C258.617 158.53 258.595 158.515 258.57 158.504C258.545 158.493 258.519 158.488 258.493 158.488C258.466 158.488 258.44 158.493 258.415 158.504C258.39 158.515 258.368 158.53 258.349 158.55C258.312 158.59 258.291 158.644 258.291 158.7C258.291 158.755 258.312 158.809 258.349 158.849L260.425 161.013H258.088C258.034 161.014 257.984 161.037 257.946 161.076C257.909 161.115 257.887 161.168 257.886 161.224C257.886 161.28 257.907 161.333 257.945 161.373C257.983 161.412 258.034 161.434 258.088 161.434H260.425L258.349 163.603C258.312 163.643 258.291 163.697 258.291 163.752C258.291 163.808 258.312 163.862 258.349 163.902C258.388 163.94 258.439 163.961 258.493 163.961C258.546 163.961 258.597 163.94 258.636 163.902L260.707 161.733V164.171C260.707 164.227 260.728 164.281 260.766 164.32C260.804 164.36 260.855 164.382 260.909 164.382C260.962 164.382 261.013 164.36 261.051 164.32C261.089 164.281 261.11 164.227 261.11 164.171V161.733L263.186 163.902C263.225 163.94 263.276 163.961 263.329 163.961C263.382 163.961 263.433 163.94 263.472 163.902C263.509 163.862 263.53 163.808 263.53 163.752C263.53 163.697 263.509 163.643 263.472 163.603L261.396 161.434H263.73C263.783 161.434 263.835 161.412 263.872 161.373C263.91 161.333 263.931 161.28 263.931 161.224C263.928 161.17 263.906 161.12 263.868 161.083C263.831 161.046 263.781 161.026 263.73 161.026Z" fill="#6C63FF"/>
<path d="M272.194 161.026H269.86L271.936 158.862C271.973 158.822 271.994 158.768 271.994 158.712C271.994 158.656 271.973 158.603 271.936 158.563C271.917 158.543 271.895 158.527 271.87 158.517C271.845 158.506 271.819 158.5 271.793 158.5C271.766 158.5 271.74 158.506 271.715 158.517C271.69 158.527 271.668 158.543 271.649 158.563L269.574 160.731V158.289C269.574 158.233 269.553 158.18 269.515 158.14C269.477 158.101 269.426 158.078 269.372 158.078C269.319 158.08 269.269 158.102 269.231 158.141C269.193 158.181 269.172 158.234 269.171 158.289V160.731L267.099 158.55C267.081 158.53 267.058 158.515 267.034 158.504C267.009 158.493 266.983 158.488 266.956 158.488C266.93 158.488 266.903 158.493 266.879 158.504C266.854 158.515 266.832 158.53 266.813 158.55C266.776 158.59 266.755 158.644 266.755 158.7C266.755 158.755 266.776 158.809 266.813 158.849L268.889 161.013H266.551C266.498 161.014 266.447 161.037 266.41 161.076C266.372 161.115 266.351 161.168 266.35 161.224C266.35 161.28 266.371 161.333 266.409 161.373C266.446 161.412 266.498 161.434 266.551 161.434H268.889L266.813 163.603C266.776 163.643 266.755 163.697 266.755 163.752C266.755 163.808 266.776 163.862 266.813 163.902C266.852 163.94 266.903 163.961 266.956 163.961C267.009 163.961 267.06 163.94 267.099 163.902L269.171 161.733V164.171C269.171 164.227 269.192 164.281 269.23 164.32C269.268 164.36 269.319 164.382 269.372 164.382C269.426 164.382 269.477 164.36 269.515 164.32C269.553 164.281 269.574 164.227 269.574 164.171V161.733L271.649 163.902C271.688 163.94 271.739 163.961 271.793 163.961C271.846 163.961 271.897 163.94 271.936 163.902C271.973 163.862 271.994 163.808 271.994 163.752C271.994 163.697 271.973 163.643 271.936 163.603L269.86 161.434H272.194C272.247 161.434 272.298 161.412 272.336 161.373C272.374 161.333 272.395 161.28 272.395 161.224C272.392 161.17 272.369 161.12 272.332 161.083C272.294 161.046 272.245 161.026 272.194 161.026Z" fill="#6C63FF"/>
<path d="M280.657 161.026H278.323L280.399 158.862C280.436 158.822 280.457 158.768 280.457 158.712C280.457 158.656 280.436 158.603 280.399 158.563C280.38 158.543 280.358 158.527 280.333 158.517C280.309 158.506 280.283 158.5 280.256 158.5C280.229 158.5 280.203 158.506 280.178 158.517C280.154 158.527 280.132 158.543 280.113 158.563L278.037 160.731V158.289C278.037 158.233 278.016 158.18 277.978 158.14C277.94 158.101 277.889 158.078 277.836 158.078C277.783 158.08 277.732 158.102 277.694 158.141C277.657 158.181 277.635 158.234 277.634 158.289V160.731L275.563 158.55C275.544 158.53 275.522 158.515 275.497 158.504C275.472 158.493 275.446 158.488 275.42 158.488C275.393 158.488 275.367 158.493 275.342 158.504C275.317 158.515 275.295 158.53 275.276 158.55C275.239 158.59 275.218 158.644 275.218 158.7C275.218 158.755 275.239 158.809 275.276 158.849L277.352 161.013H275.015C274.961 161.014 274.911 161.037 274.873 161.076C274.836 161.115 274.814 161.168 274.813 161.224C274.813 161.28 274.834 161.333 274.872 161.373C274.91 161.412 274.961 161.434 275.015 161.434H277.352L275.276 163.603C275.239 163.643 275.218 163.697 275.218 163.752C275.218 163.808 275.239 163.862 275.276 163.902C275.315 163.94 275.366 163.961 275.42 163.961C275.473 163.961 275.524 163.94 275.563 163.902L277.634 161.733V164.171C277.634 164.227 277.655 164.281 277.693 164.32C277.731 164.36 277.782 164.382 277.836 164.382C277.889 164.382 277.94 164.36 277.978 164.32C278.016 164.281 278.037 164.227 278.037 164.171V161.733L280.113 163.902C280.152 163.94 280.203 163.961 280.256 163.961C280.309 163.961 280.36 163.94 280.399 163.902C280.436 163.862 280.457 163.808 280.457 163.752C280.457 163.697 280.436 163.643 280.399 163.603L278.323 161.434H280.657C280.71 161.434 280.762 161.412 280.799 161.373C280.837 161.333 280.858 161.28 280.858 161.224C280.855 161.17 280.833 161.12 280.795 161.083C280.758 161.046 280.708 161.026 280.657 161.026Z" fill="#6C63FF"/>
<path d="M289.121 161.026H286.787L288.863 158.862C288.9 158.822 288.921 158.768 288.921 158.712C288.921 158.656 288.9 158.603 288.863 158.563C288.844 158.543 288.822 158.527 288.797 158.517C288.773 158.506 288.746 158.5 288.72 158.5C288.693 158.5 288.667 158.506 288.642 158.517C288.618 158.527 288.595 158.543 288.577 158.563L286.501 160.731V158.289C286.501 158.233 286.48 158.18 286.442 158.14C286.404 158.101 286.353 158.078 286.3 158.078C286.246 158.08 286.196 158.102 286.158 158.141C286.121 158.181 286.099 158.234 286.098 158.289V160.731L284.026 158.55C284.008 158.53 283.985 158.515 283.961 158.504C283.936 158.493 283.91 158.488 283.883 158.488C283.857 158.488 283.83 158.493 283.806 158.504C283.781 158.515 283.759 158.53 283.74 158.55C283.703 158.59 283.682 158.644 283.682 158.7C283.682 158.755 283.703 158.809 283.74 158.849L285.816 161.013H283.478C283.425 161.014 283.375 161.037 283.337 161.076C283.299 161.115 283.278 161.168 283.277 161.224C283.277 161.28 283.298 161.333 283.336 161.373C283.374 161.412 283.425 161.434 283.478 161.434H285.816L283.74 163.603C283.703 163.643 283.682 163.697 283.682 163.752C283.682 163.808 283.703 163.862 283.74 163.902C283.779 163.94 283.83 163.961 283.883 163.961C283.937 163.961 283.988 163.94 284.026 163.902L286.098 161.733V164.171C286.098 164.227 286.119 164.281 286.157 164.32C286.195 164.36 286.246 164.382 286.3 164.382C286.353 164.382 286.404 164.36 286.442 164.32C286.48 164.281 286.501 164.227 286.501 164.171V161.733L288.577 163.902C288.616 163.94 288.667 163.961 288.72 163.961C288.773 163.961 288.824 163.94 288.863 163.902C288.9 163.862 288.921 163.808 288.921 163.752C288.921 163.697 288.9 163.643 288.863 163.603L286.787 161.434H289.121C289.174 161.434 289.225 161.412 289.263 161.373C289.301 161.333 289.322 161.28 289.322 161.224C289.319 161.17 289.297 161.12 289.259 161.083C289.222 161.046 289.172 161.026 289.121 161.026Z" fill="#6C63FF"/>
<path d="M297.584 161.026H295.251L297.326 158.862C297.364 158.822 297.384 158.768 297.384 158.712C297.384 158.656 297.364 158.603 297.326 158.563C297.308 158.543 297.285 158.527 297.261 158.517C297.236 158.506 297.21 158.5 297.183 158.5C297.157 158.5 297.13 158.506 297.106 158.517C297.081 158.527 297.059 158.543 297.04 158.563L294.965 160.731V158.289C294.965 158.233 294.943 158.18 294.906 158.14C294.868 158.101 294.817 158.078 294.763 158.078C294.71 158.08 294.659 158.102 294.622 158.141C294.584 158.181 294.563 158.234 294.562 158.289V160.731L292.49 158.55C292.471 158.53 292.449 158.515 292.425 158.504C292.4 158.493 292.374 158.488 292.347 158.488C292.32 158.488 292.294 158.493 292.27 158.504C292.245 158.515 292.223 158.53 292.204 158.55C292.167 158.59 292.146 158.644 292.146 158.7C292.146 158.755 292.167 158.809 292.204 158.849L294.28 161.013H291.942C291.889 161.014 291.838 161.037 291.801 161.076C291.763 161.115 291.742 161.168 291.74 161.224C291.74 161.28 291.762 161.333 291.799 161.373C291.837 161.412 291.889 161.434 291.942 161.434H294.28L292.204 163.603C292.167 163.643 292.146 163.697 292.146 163.752C292.146 163.808 292.167 163.862 292.204 163.902C292.243 163.94 292.294 163.961 292.347 163.961C292.4 163.961 292.451 163.94 292.49 163.902L294.562 161.733V164.171C294.562 164.227 294.583 164.281 294.621 164.32C294.658 164.36 294.71 164.382 294.763 164.382C294.817 164.382 294.868 164.36 294.906 164.32C294.943 164.281 294.965 164.227 294.965 164.171V161.733L297.04 163.902C297.079 163.94 297.13 163.961 297.183 163.961C297.236 163.961 297.288 163.94 297.326 163.902C297.364 163.862 297.384 163.808 297.384 163.752C297.384 163.697 297.364 163.643 297.326 163.603L295.251 161.434H297.584C297.638 161.434 297.689 161.412 297.727 161.373C297.765 161.333 297.786 161.28 297.786 161.224C297.783 161.17 297.76 161.12 297.723 161.083C297.685 161.046 297.636 161.026 297.584 161.026Z" fill="#6C63FF"/>
<path d="M306.048 161.026H303.714L305.79 158.862C305.827 158.822 305.848 158.768 305.848 158.712C305.848 158.656 305.827 158.603 305.79 158.563C305.771 158.543 305.749 158.527 305.724 158.517C305.7 158.506 305.673 158.5 305.647 158.5C305.62 158.5 305.594 158.506 305.569 158.517C305.545 158.527 305.522 158.543 305.504 158.563L303.428 160.731V158.289C303.428 158.233 303.407 158.18 303.369 158.14C303.331 158.101 303.28 158.078 303.227 158.078C303.173 158.08 303.123 158.102 303.085 158.141C303.048 158.181 303.026 158.234 303.025 158.289V160.731L300.953 158.55C300.935 158.53 300.912 158.515 300.888 158.504C300.863 158.493 300.837 158.488 300.81 158.488C300.784 158.488 300.757 158.493 300.733 158.504C300.708 158.515 300.686 158.53 300.667 158.55C300.63 158.59 300.609 158.644 300.609 158.7C300.609 158.755 300.63 158.809 300.667 158.849L302.743 161.013H300.405C300.352 161.014 300.302 161.037 300.264 161.076C300.226 161.115 300.205 161.168 300.204 161.224C300.204 161.28 300.225 161.333 300.263 161.373C300.301 161.412 300.352 161.434 300.405 161.434H302.743L300.667 163.603C300.63 163.643 300.609 163.697 300.609 163.752C300.609 163.808 300.63 163.862 300.667 163.902C300.706 163.94 300.757 163.961 300.81 163.961C300.864 163.961 300.915 163.94 300.953 163.902L303.025 161.733V164.171C303.025 164.227 303.046 164.281 303.084 164.32C303.122 164.36 303.173 164.382 303.227 164.382C303.28 164.382 303.331 164.36 303.369 164.32C303.407 164.281 303.428 164.227 303.428 164.171V161.733L305.504 163.902C305.542 163.94 305.594 163.961 305.647 163.961C305.7 163.961 305.751 163.94 305.79 163.902C305.827 163.862 305.848 163.808 305.848 163.752C305.848 163.697 305.827 163.643 305.79 163.603L303.714 161.434H306.048C306.101 161.434 306.152 161.412 306.19 161.373C306.228 161.333 306.249 161.28 306.249 161.224C306.246 161.17 306.224 161.12 306.186 161.083C306.149 161.046 306.099 161.026 306.048 161.026Z" fill="#6C63FF"/>
<path d="M370.932 212.249C370.92 211.74 370.86 211.234 370.75 210.738C370.388 209.314 369.569 207.592 368.223 207.163C366.834 206.718 365.491 206.126 364.217 205.394C363.975 200.88 364.967 196.261 363.887 191.886C363.484 190.286 362.819 188.753 362.641 187.116C362.42 185.078 362.952 182.905 362.174 181.027C361.561 179.545 360.215 178.5 358.768 177.953C357.321 177.406 355.762 177.258 354.226 177.111C352.292 176.947 346.029 176.172 343.844 177.978C343.693 178.1 343.558 178.242 343.441 178.399C343.393 178.469 343.35 178.542 343.312 178.618L343.292 178.652C343.248 178.74 343.212 178.831 343.183 178.926C343.153 179.029 343.13 179.135 343.115 179.241C343.115 179.275 343.115 179.309 343.115 179.343C343.115 179.376 343.115 179.49 343.115 179.566V179.679C343.115 179.755 343.115 179.831 343.115 179.911C343.115 179.991 343.115 179.97 343.115 179.999C343.143 180.378 343.195 180.757 343.195 181.132C343.2 181.319 343.183 181.505 343.147 181.688C343.013 182.185 342.785 182.648 342.478 183.052L342.405 183.162C342.361 183.229 342.317 183.292 342.276 183.36C342.236 183.427 342.204 183.477 342.172 183.536C342.139 183.595 342.107 183.633 342.079 183.688C342.04 183.757 342.005 183.829 341.974 183.903C341.974 183.945 341.93 183.983 341.914 184.025C341.863 184.139 341.823 184.257 341.793 184.379C341.698 184.744 341.69 185.129 341.769 185.499C341.877 185.971 342.064 186.42 342.321 186.825C342.421 186.998 342.53 187.166 342.643 187.334L342.925 187.734C342.873 188.125 342.844 188.519 342.841 188.913C342.841 190.232 343.127 191.533 343.679 192.719C344.231 193.905 345.032 194.945 346.025 195.76C346.184 197.538 346.167 199.329 345.972 201.103C345.936 201.474 345.892 201.849 345.843 202.219C345.795 202.59 345.759 202.834 345.71 203.141C345.12 203.23 344.519 203.182 343.949 203.003C343.686 202.88 343.417 202.772 343.143 202.678C341.97 202.371 340.773 203.592 339.612 203.221C339.612 203.28 339.58 203.335 339.56 203.39C339.318 203.233 339.039 203.147 338.754 203.141C338.065 203.108 337.505 202.586 337.005 202.093L335.469 200.581C335.369 200.489 335.28 200.384 335.203 200.27C335.121 200.106 335.058 199.932 335.018 199.752C334.76 198.88 334.135 198.185 333.531 197.524C333.416 197.374 333.264 197.259 333.091 197.192C333.025 197.181 332.957 197.181 332.89 197.192C332.849 197.133 332.804 197.077 332.757 197.023C332.653 196.898 332.541 196.78 332.422 196.67C331.689 195.962 331.616 195.356 330.979 194.564C330.424 193.809 329.92 193.014 329.472 192.185C329.42 191.743 329.347 191.288 329.259 190.829C329.055 189.779 328.76 188.75 328.376 187.756L327.57 185.89L327.477 185.987C326.893 185.078 326.268 184.581 325.708 184.699C324.769 184.901 324.305 186.804 324.454 189.292L324.777 191.819C324.777 191.882 324.805 191.945 324.821 192.008C324.763 192.308 324.733 192.612 324.733 192.918C324.733 193.272 325.047 193.533 325.212 193.848C325.477 194.276 325.617 194.775 325.615 195.284C325.595 195.465 325.543 195.638 325.535 195.815C325.556 196.21 325.688 196.591 325.913 196.91L327.929 200.447L328.332 201.188L328.356 201.221C328.483 201.48 328.668 201.702 328.896 201.87C328.975 202.755 329.2 203.62 329.561 204.426C329.629 204.586 329.706 204.737 329.787 204.889C330.328 205.819 330.966 206.685 331.689 207.47L332.648 208.594C333.595 209.698 334.542 210.805 335.57 211.824C335.938 212.233 336.382 212.558 336.876 212.78C337.117 212.881 337.38 212.913 337.638 212.874C337.896 212.835 338.139 212.725 338.343 212.557C338.343 213.079 338.343 213.601 338.343 214.123C338.492 214.133 338.637 214.184 338.761 214.271C338.886 214.359 338.985 214.479 339.05 214.62C339.115 214.762 339.143 214.918 339.13 215.074C339.118 215.231 339.066 215.38 338.98 215.508C338.133 217.778 337.279 220.069 335.997 222.102C336.902 222.662 337.74 223.33 338.496 224.094C338.986 224.662 339.422 225.278 339.798 225.934C339.834 226.246 339.862 226.553 339.878 226.86C340.177 231.88 338.319 236.861 336.654 241.644C336.174 243 335.651 244.419 335.691 245.83C335.375 246.033 335.073 246.26 334.788 246.508C335.119 247.409 334.99 248.213 334.953 249.177C334.941 249.755 334.828 250.326 334.619 250.861C334.444 251.233 334.25 251.594 334.038 251.944C332.995 253.868 332.765 256.154 332.555 258.352C332.43 259.679 332.922 261.3 332.346 262.487C331.35 264.525 330.468 266.698 330.331 268.963C330.326 269.473 330.264 269.98 330.145 270.475C330.02 270.896 329.799 271.254 329.686 271.667C329.57 272.219 329.542 272.789 329.605 273.351C329.682 275.369 329.395 277.385 328.759 279.292C328.255 280.795 327.699 282.404 328.094 283.949C327.121 285.016 326.521 286.394 326.389 287.861C326.379 288.236 326.335 288.61 326.26 288.977C326.137 289.352 325.975 289.712 325.776 290.051C324.965 291.594 324.585 293.345 324.68 295.103C323.471 296.817 322.866 298.931 322.508 301.032C322.149 303.133 321.992 305.272 321.532 307.348C320.92 310.094 319.812 312.868 319.594 315.681C318.288 316.553 317.724 318.241 317.474 319.837C317.224 321.433 317.184 323.109 316.543 324.583C316.212 325.349 315.737 326.035 315.423 326.818C315.202 327.442 315.04 328.086 314.939 328.743C314.745 329.77 314.576 330.915 314.814 331.901C314.472 332.279 314.073 332.596 313.633 332.84C313.698 332.579 313.75 332.318 313.794 332.052C312.755 333.038 310.868 332.692 310.038 333.876C309.789 334.257 309.692 334.725 309.767 335.18C309.842 335.635 310.084 336.042 310.441 336.314C310.701 336.479 310.982 336.605 311.275 336.688C313.291 337.362 315.362 338.04 317.434 337.682C317.679 337.654 317.916 337.576 318.131 337.451C318.4 337.243 318.622 336.976 318.78 336.667C319.09 336.154 319.4 335.64 319.707 335.126C320.449 335.358 321.204 335.542 321.968 335.678C322.044 336.351 322.101 337.025 322.129 337.699C322.532 337.783 323.072 337.808 323.261 337.417C323.319 337.269 323.342 337.109 323.33 336.949C323.33 336.65 323.37 336.255 323.394 335.85H323.475C324.705 335.902 325.928 335.644 327.042 335.097C326.611 331.366 328.033 327.72 329.267 324.191C330.568 320.477 331.685 316.696 332.809 312.915C333.615 310.254 334.506 307.677 335.296 305.011C336.29 301.643 337.288 298.274 338.29 294.905C338.726 293.423 339.165 291.958 339.665 290.484C340.717 287.502 341.965 284.6 343.401 281.798C343.804 281.002 344.207 280.214 344.537 279.389C344.94 278.383 345.227 277.33 345.549 276.29C346.252 274.156 347.097 272.076 348.08 270.067C348.108 270.012 348.128 269.961 348.157 269.911C348.483 271.304 348.809 272.719 349.027 274.121C349.322 275.841 349.345 277.599 349.096 279.326C348.902 280.501 348.535 281.663 348.58 282.854C348.64 284.501 349.483 285.996 349.898 287.583C350.165 288.771 350.316 289.984 350.349 291.204C350.462 293.099 351.445 295.226 350.752 296.981C348.596 302.544 349.64 308.826 348.41 314.666C347.778 317.664 345.839 320.481 345.992 323.547C346.1 325.722 346.282 327.892 346.54 330.056C346.603 330.739 346.773 331.407 347.044 332.031C347.205 332.36 347.39 332.675 347.596 332.975C347.419 333.046 347.27 333.236 347.141 333.636C346.81 334.688 347.141 335.994 348.036 336.583C348.4 336.787 348.793 336.929 349.2 337.004C349.748 337.167 350.315 337.249 350.885 337.248C351.062 337.238 351.239 337.216 351.413 337.181C352.036 337.454 352.672 337.693 353.319 337.897C353.319 338.069 353.352 338.242 353.372 338.415C353.373 338.505 353.392 338.594 353.428 338.676C353.464 338.758 353.516 338.831 353.581 338.891C353.682 338.94 353.793 338.96 353.904 338.95H356.092C356.092 338.76 356.092 338.566 356.092 338.377C356.343 338.404 356.596 338.376 356.835 338.295C357.075 338.214 357.295 338.081 357.483 337.905C357.676 337.647 357.814 337.349 357.886 337.029C358.482 334.916 359.075 332.8 359.663 330.684C360.369 328.344 360.662 325.89 360.53 323.441C359.752 315.681 361.461 307.896 360.904 300.114C360.57 295.437 360.8 290.735 361.59 286.118C361.771 285.073 361.993 284.012 362.073 282.972C362.25 281.01 362.033 279.027 362.166 277.077C362.21 276.395 362.299 275.717 362.379 275.039C362.932 270.832 363.221 266.591 363.246 262.344C363.234 260.937 363.15 259.531 362.996 258.133C363.416 258.022 363.798 257.788 364.096 257.46C364.455 256.971 364.362 256.285 364.358 255.662C364.358 254.171 364.959 252.765 365.442 251.358C366.063 249.418 366.572 247.442 366.966 245.438C367.382 243.824 367.61 242.162 367.643 240.49C367.643 240.322 367.635 240.154 367.619 239.985C367.771 239.875 367.897 239.731 367.99 239.564C368.095 239.317 368.16 239.054 368.183 238.785C368.328 237.711 368.477 236.633 368.622 235.556C368.73 234.784 368.836 234.013 368.941 233.244L370.222 223.9C370.331 223.088 370.444 222.279 370.553 221.471L370.887 219.054C370.924 218.767 370.964 218.481 370.992 218.212C371.976 216.494 371.037 214.203 370.932 212.249ZM360.239 247.232C359.764 246.053 359.32 244.844 359.433 243.573H359.389C359.495 243.181 359.477 242.765 359.337 242.385C359.212 242.078 358.994 241.817 358.861 241.509C358.718 241.134 358.644 240.734 358.643 240.33C358.543 237.769 358.737 235.205 359.22 232.692C359.272 232.397 359.329 232.099 359.381 231.804C359.55 231.702 359.705 231.576 359.84 231.429C360.052 231.177 360.228 230.893 360.36 230.587C360.816 229.631 361.231 228.658 361.614 227.669C361.739 227.349 361.92 226.978 362.23 226.898C362.166 229.362 362.408 231.875 361.448 234.099C361.266 234.457 361.131 234.839 361.045 235.236C360.957 235.863 361.207 236.499 361.118 237.122C361.074 237.446 360.941 237.745 360.888 238.065C360.848 238.222 360.849 238.388 360.89 238.544C360.931 238.701 361.011 238.844 361.122 238.958C361.175 238.997 361.234 239.028 361.295 239.05C361.271 239.219 361.251 239.391 361.235 239.556C361.203 239.901 361.186 240.225 361.166 240.427C361.074 241.457 361.037 242.492 361.058 243.526C361.058 244.642 361.098 245.758 361.082 246.895C361.097 247.221 361.044 247.547 360.929 247.851C360.849 248.007 360.745 248.15 360.622 248.272C360.505 247.893 360.376 247.56 360.239 247.232Z" fill="url(#paint0_linear)"/>
<path d="M328.425 198.375C329.655 198.111 330.073 194.949 329.36 191.31C328.646 187.672 327.071 184.936 325.841 185.199C324.611 185.463 324.193 188.626 324.906 192.264C325.62 195.902 327.195 198.638 328.425 198.375Z" fill="#FBBEBE"/>
<path d="M347.205 333.716C346.875 334.76 347.205 336.065 348.1 336.634C348.463 336.835 348.853 336.977 349.257 337.055C349.804 337.216 350.369 337.297 350.937 337.295C351.635 337.261 352.304 336.975 353.001 336.874C353.081 336.852 353.167 336.865 353.239 336.907C353.274 336.946 353.3 336.993 353.315 337.044C353.33 337.095 353.335 337.149 353.327 337.202C353.335 337.616 353.364 338.029 353.416 338.44C353.417 338.53 353.436 338.619 353.472 338.701C353.508 338.783 353.56 338.857 353.626 338.916C353.726 338.965 353.837 338.985 353.948 338.975H356.132C356.182 336.97 355.972 334.967 355.508 333.021C355.477 332.872 355.423 332.729 355.347 332.6C355.161 332.388 354.918 332.241 354.649 332.179C354.115 331.947 353.538 331.842 352.961 331.871C352.255 331.968 351.667 332.444 351.066 332.84C350.466 333.236 349.648 333.585 348.918 333.383C348.189 333.181 347.58 332.545 347.205 333.716Z" fill="#3F3D56"/>
<path d="M315.132 331.867C314.518 332.554 313.765 333.089 312.928 333.433L312.557 333.619C312.506 333.639 312.462 333.676 312.432 333.724C312.425 333.757 312.425 333.791 312.432 333.823C312.439 333.856 312.452 333.887 312.472 333.913C312.781 334.412 313.237 334.792 313.771 334.995C314.305 335.197 314.887 335.213 315.43 335.038C315.67 334.975 315.893 334.854 316.079 334.684C316.387 334.303 316.562 333.826 316.579 333.328C316.701 332.815 316.68 332.276 316.519 331.774C315.958 330.456 315.753 331.054 315.132 331.867Z" fill="#FBBEBE"/>
<path d="M323.507 337.055C323.52 337.214 323.496 337.374 323.439 337.522C323.249 337.909 322.721 337.888 322.31 337.804C322.248 336.376 322.082 334.954 321.814 333.551C321.033 333.513 320.468 334.288 320.049 334.983L318.969 336.773C318.813 337.081 318.592 337.348 318.324 337.556C318.108 337.679 317.871 337.758 317.627 337.787C315.563 338.145 313.48 337.467 311.489 336.794C311.196 336.711 310.915 336.587 310.655 336.423C310.299 336.151 310.059 335.745 309.984 335.291C309.909 334.837 310.005 334.371 310.252 333.989C311.086 332.81 312.96 333.147 314 332.17C313.891 332.858 313.713 333.531 313.468 334.179C314.858 333.96 315.793 332.629 316.914 331.741C317.195 331.491 317.534 331.323 317.897 331.252C318.169 331.228 318.442 331.258 318.703 331.341C319.995 331.681 321.204 332.302 322.25 333.164C322.673 333.513 323.334 334.006 323.519 334.545C323.717 335.189 323.507 336.368 323.507 337.055Z" fill="#3F3D56"/>
<path d="M351.231 198.126C355.83 198.126 359.558 194.232 359.558 189.427C359.558 184.623 355.83 180.728 351.231 180.728C346.633 180.728 342.905 184.623 342.905 189.427C342.905 194.232 346.633 198.126 351.231 198.126Z" fill="#FBBEBE"/>
<path d="M367.635 240.789C367.601 242.452 367.375 244.105 366.962 245.712C366.568 247.707 366.059 249.675 365.438 251.607C364.959 253.009 364.358 254.415 364.362 255.902C364.362 256.521 364.459 257.207 364.096 257.695C363.773 258.038 363.366 258.282 362.919 258.399C362.697 258.46 362.491 258.576 362.319 258.736C362.146 258.896 362.013 259.097 361.928 259.321C361.55 258.73 361.266 258.079 361.09 257.392C360.367 255.079 359.695 252.753 359.075 250.415C359.018 250.28 358.993 250.133 359.003 249.987C359.013 249.84 359.057 249.698 359.131 249.573C359.233 249.48 359.353 249.41 359.482 249.367C359.895 249.191 360.273 248.937 360.598 248.617C360.751 248.476 360.876 248.306 360.969 248.116C361.086 247.814 361.14 247.49 361.126 247.164C361.126 246.049 361.126 244.937 361.098 243.821C361.081 242.791 361.119 241.76 361.211 240.735C361.211 240.532 361.247 240.208 361.279 239.863C361.34 239.202 361.461 238.436 361.803 238.179C362.315 237.821 363.846 238.301 364.427 238.385C365.426 238.528 366.442 238.697 367.417 238.895C367.559 239.515 367.632 240.151 367.635 240.789Z" fill="#3F3D56"/>
<path d="M334.014 199.167C333.692 199.84 332.918 200.164 332.321 200.59L330.278 202.055C330.141 202.184 329.981 202.282 329.808 202.344C329.634 202.406 329.45 202.431 329.266 202.417C329.1 202.353 328.948 202.255 328.818 202.128C328.689 202.002 328.585 201.849 328.513 201.68C328.514 201.669 328.514 201.658 328.513 201.647L328.089 200.906L326.074 197.377C325.85 197.061 325.72 196.683 325.699 196.291C325.699 196.11 325.76 195.941 325.776 195.76C325.781 195.251 325.641 194.753 325.373 194.328C325.212 194.013 324.889 193.752 324.897 193.398C324.882 192.933 324.959 192.47 325.123 192.038C325.335 191.638 325.638 191.299 326.006 191.052C326.195 190.909 326.389 190.775 326.59 190.631C326.697 190.555 326.816 190.498 326.941 190.463C327.275 190.391 327.606 190.682 327.944 190.695C329.399 191.714 329.959 193.642 331.104 195.032C331.749 195.823 331.813 196.43 332.543 197.137C332.66 197.246 332.773 197.364 332.881 197.486C333.026 197.651 333.148 197.835 333.244 198.034C333.377 198.396 334.179 198.821 334.014 199.167Z" fill="#3F3D56"/>
<path d="M348.306 198.131C348.906 199.457 349.374 200.914 349.2 202.371C349.165 202.766 349.045 203.147 348.85 203.487C348.269 204.417 347.052 204.586 345.992 204.641C345.769 204.621 345.544 204.648 345.331 204.72C345.118 204.793 344.921 204.909 344.751 205.062C344.609 205.277 344.54 205.535 344.554 205.795C344.568 206.056 344.664 206.304 344.827 206.502C345.168 206.881 345.591 207.17 346.061 207.344C347.737 208.114 349.547 208.75 351.369 208.573C352.215 208.489 353.037 208.232 353.879 208.102C354.798 207.998 355.721 207.944 356.644 207.942C357.74 207.9 358.833 207.786 359.925 207.672L362.819 207.373C362.977 207.376 363.13 207.317 363.25 207.209C363.463 206.948 363.189 206.565 362.923 206.367C361.388 205.179 359.433 204.363 358.559 202.577C358.156 201.735 358.031 200.733 357.732 199.823C357.434 198.914 356.959 198.093 356.773 197.167C356.674 196.354 356.63 195.535 356.64 194.716C356.65 193.89 356.363 193.09 355.834 192.476C355.258 191.916 354.423 191.773 353.642 191.739C351.715 191.65 349.664 192.13 348.297 193.55C347.931 193.933 347.616 194.392 347.237 194.737C346.859 195.082 346.343 195.183 346.593 195.638C346.843 196.093 347.334 196.375 347.6 196.775C347.869 197.207 348.105 197.66 348.306 198.131Z" fill="#FBBEBE"/>
<path d="M364.721 210.38C364.213 213.622 363.386 216.801 362.254 219.866C361.685 221.251 361.201 222.671 360.803 224.119C360.493 225.425 360.554 226.822 360.267 228.132C359.913 229.762 359.558 231.395 359.272 233.037C358.792 235.545 358.6 238.104 358.7 240.659C358.701 241.061 358.774 241.46 358.917 241.834C359.05 242.137 359.264 242.398 359.389 242.709C359.482 242.983 359.52 243.274 359.501 243.564C359.482 243.854 359.405 244.136 359.276 244.394C359.069 244.876 358.789 245.319 358.446 245.708C354.689 246.878 350.671 246.495 346.758 246.743C343.151 246.971 339.503 247.745 335.949 247.101C335.546 245.417 336.219 243.653 336.795 242.011C338.468 237.24 340.317 232.271 340.019 227.273C339.988 226.69 339.925 226.109 339.83 225.534C339.245 221.993 339.882 218.325 340.902 214.894C341.535 212.754 341.506 210.477 341.361 208.249C341.289 207.526 341.28 206.797 341.333 206.072C341.391 205.332 341.655 204.625 342.091 204.038C342.091 204.009 342.127 203.979 342.147 203.95C342.167 203.92 342.325 203.925 342.449 203.95C342.481 203.964 342.516 203.971 342.55 203.971C342.585 203.971 342.619 203.964 342.651 203.95L342.695 203.92C342.712 203.908 342.733 203.901 342.754 203.901C342.775 203.901 342.795 203.908 342.812 203.92C342.905 203.979 342.957 204.182 343.159 204.219C343.457 204.266 343.757 204.296 344.058 204.308C344.42 204.319 344.779 204.373 345.13 204.468H345.178C345.702 204.56 346.24 204.512 346.742 204.329C347.076 204.242 347.398 204.112 347.701 203.941C347.79 203.84 348.346 203.748 348.459 203.676C348.825 203.445 348.745 202.358 348.821 201.912C348.864 201.464 348.965 201.025 349.124 200.607C349.307 200.298 349.56 200.041 349.861 199.858C350.162 199.675 350.501 199.572 350.849 199.558C351.543 199.541 352.236 199.606 352.916 199.752C354.419 199.975 355.959 199.937 357.434 200.299C358.176 200.48 358.986 200.754 359.667 200.4C359.852 200.447 359.88 200.615 359.88 200.821C359.863 201.017 359.825 201.211 359.768 201.398C359.51 202.56 360.384 203.63 361.19 204.472C361.531 204.869 361.933 205.203 362.379 205.462C362.782 205.655 363.185 205.735 363.588 205.946C363.915 206.128 364.192 206.393 364.394 206.716C364.627 207.087 364.783 207.504 364.854 207.942C364.94 208.756 364.895 209.58 364.721 210.38Z" fill="#3F3D56"/>
<path opacity="0.1" d="M364.721 210.38C364.213 213.622 363.386 216.801 362.254 219.866C361.685 221.251 361.201 222.671 360.803 224.119C360.493 225.425 360.553 226.823 360.267 228.132C359.913 229.762 359.558 231.395 359.272 233.038C359.187 233.088 359.099 233.134 359.01 233.176C358.508 233.427 357.977 233.605 357.43 233.707C356.447 233.831 355.452 233.797 354.48 233.606L348.729 232.802C346.431 232.478 343.985 232.086 342.28 230.461C341.333 229.568 340.712 228.389 340.031 227.252C340 226.669 339.937 226.088 339.842 225.513C339.257 221.972 339.894 218.304 340.914 214.873C341.547 212.733 341.518 210.455 341.373 208.228C341.302 207.505 341.292 206.776 341.345 206.051C341.403 205.311 341.667 204.604 342.103 204.017C342.221 203.981 342.34 203.953 342.462 203.933C342.543 203.916 342.625 203.905 342.707 203.899H342.824C342.96 203.9 343.095 203.917 343.227 203.95C343.502 204.041 343.771 204.15 344.033 204.274H344.082C344.427 204.393 344.79 204.447 345.154 204.434C345.686 204.434 346.234 204.346 346.766 204.308C347.423 204.201 348.096 204.327 348.676 204.666C349.051 204.98 349.406 205.319 349.74 205.681C350.143 206.011 350.597 206.269 351.082 206.443C354.552 207.826 358.4 207.742 361.811 206.207C362.139 206.012 362.51 205.913 362.887 205.921C363.165 205.977 363.429 206.095 363.661 206.266C363.903 206.413 364.14 206.556 364.386 206.687C364.619 207.058 364.775 207.475 364.846 207.912C364.938 208.736 364.896 209.571 364.721 210.38Z" fill="black"/>
<path d="M368.231 207.592C366.627 207.08 365.084 206.373 363.637 205.487C363.404 205.317 363.141 205.2 362.863 205.142C362.485 205.137 362.113 205.236 361.783 205.428C358.374 206.962 354.526 207.047 351.058 205.664C350.574 205.488 350.12 205.231 349.716 204.902C349.381 204.541 349.026 204.203 348.652 203.887C347.326 202.99 345.492 204.043 344.009 203.466C343.746 203.343 343.477 203.235 343.203 203.141C342.03 202.834 340.837 204.055 339.685 203.685C339.256 204.902 338.939 206.16 338.738 207.441C338.574 208.911 338.486 210.39 338.476 211.87C338.476 212.759 338.435 213.647 338.476 214.536C338.618 214.56 338.753 214.615 338.874 214.697C338.995 214.779 339.098 214.886 339.177 215.011C339.23 215.158 339.252 215.315 339.24 215.472C339.229 215.628 339.186 215.78 339.113 215.917C338.27 218.178 337.416 220.464 336.138 222.49C337.039 223.05 337.874 223.717 338.629 224.477C340.04 226.035 340.733 228.22 342.256 229.661C343.973 231.282 346.419 231.677 348.705 231.997L354.456 232.802C355.43 232.992 356.426 233.028 357.41 232.907C357.956 232.803 358.486 232.623 358.986 232.372C359.313 232.229 359.611 232.024 359.864 231.766C360.077 231.514 360.252 231.23 360.384 230.924C360.84 229.972 361.255 228.999 361.638 228.014C361.771 227.665 361.972 227.256 362.335 227.227C364.471 225.214 366.486 223.151 368.622 221.138C369.481 220.395 370.251 219.547 370.916 218.612C371.976 216.974 371.012 214.654 370.916 212.674C370.904 212.168 370.843 211.665 370.734 211.171C370.388 209.735 369.573 208.017 368.231 207.592Z" fill="#6C63FF"/>
<path opacity="0.1" d="M334.014 199.167C333.692 199.84 332.918 200.165 332.321 200.59L330.278 202.055C330.142 202.184 329.982 202.282 329.808 202.344C329.634 202.406 329.45 202.431 329.266 202.417C329.1 202.353 328.948 202.255 328.818 202.128C328.689 202.002 328.585 201.849 328.513 201.68C328.513 201.583 328.513 201.478 328.513 201.377C328.497 201.036 328.541 200.695 328.642 200.371C328.842 199.895 329.152 199.478 329.545 199.158C330.303 198.407 331.206 197.833 332.192 197.474C332.346 197.411 332.513 197.394 332.676 197.423C332.739 197.44 332.799 197.467 332.853 197.503C332.998 197.668 333.12 197.852 333.216 198.051C333.377 198.396 334.179 198.821 334.014 199.167Z" fill="black"/>
<path d="M338.826 203.605C338.141 203.571 337.581 203.053 337.081 202.56L335.554 201.078C335.451 200.988 335.362 200.883 335.288 200.767C335.205 200.603 335.143 200.429 335.102 200.249C334.778 199.398 334.271 198.637 333.619 198.025C333.506 197.875 333.353 197.761 333.18 197.697C333.016 197.665 332.847 197.683 332.692 197.747C331.705 198.106 330.803 198.681 330.044 199.432C329.652 199.752 329.342 200.168 329.141 200.644C329.04 200.969 328.996 201.31 329.013 201.651C329.022 202.763 329.261 203.861 329.714 204.868C329.782 205.024 329.859 205.179 329.939 205.331C330.477 206.26 331.113 207.122 331.834 207.904L332.793 209.024C333.736 210.127 334.679 211.23 335.703 212.245C336.07 212.654 336.515 212.978 337.009 213.197C337.257 213.302 337.528 213.335 337.792 213.29C338.057 213.246 338.304 213.126 338.508 212.944C338.701 212.71 338.846 212.438 338.935 212.144C339.556 210.46 340.144 208.708 340.18 206.893C340.189 206.166 340.16 205.44 340.092 204.716C340.031 203.95 339.511 203.651 338.826 203.605Z" fill="#6C63FF"/>
<path d="M363.25 262.555C363.226 266.79 362.938 271.02 362.387 275.216C362.307 275.894 362.218 276.572 362.174 277.25C362.041 279.216 362.258 281.191 362.081 283.145C361.988 284.202 361.779 285.25 361.601 286.282C360.814 290.886 360.583 295.576 360.916 300.24C361.472 308.001 359.767 315.765 360.541 323.505C360.635 325.01 360.555 326.521 360.304 328.006C360.159 328.927 359.95 329.836 359.679 330.726C359.09 332.834 358.499 334.94 357.905 337.042C357.836 337.362 357.698 337.661 357.502 337.918C357.297 338.104 357.056 338.241 356.795 338.322C356.534 338.403 356.26 338.424 355.991 338.385C353.666 338.309 351.477 337.261 349.365 336.238C349.122 336.138 348.898 335.995 348.7 335.817C348.261 335.341 348.297 334.591 348.104 333.964C347.91 333.337 347.386 332.747 347.088 332.103C346.843 331.493 346.695 330.846 346.649 330.187C346.38 328.031 346.197 325.867 346.101 323.694C345.948 320.637 347.882 317.824 348.519 314.852C349.728 309.007 348.704 302.742 350.852 297.196C351.53 295.444 350.546 293.322 350.449 291.436C350.415 290.219 350.263 289.009 349.998 287.823C349.595 286.24 348.745 284.749 348.684 283.107C348.64 281.92 349.007 280.762 349.196 279.591C349.447 277.868 349.424 276.114 349.128 274.399C348.914 272.985 348.587 271.57 348.261 270.189L348.188 270.344C347.207 272.35 346.362 274.425 345.661 276.555C345.339 277.587 345.057 278.64 344.654 279.642C344.323 280.484 343.916 281.254 343.517 282.046C342.086 284.838 340.841 287.729 339.789 290.699C339.29 292.156 338.85 293.646 338.415 295.108L335.429 305.213C334.623 307.87 333.74 310.439 332.95 313.092C331.834 316.881 330.717 320.637 329.419 324.343C328.21 327.858 326.772 331.501 327.203 335.215C326.092 335.76 324.871 336.019 323.644 335.968C321.567 335.776 319.529 335.26 317.599 334.436C316.829 334.137 316.031 333.8 315.511 333.139C314.616 331.998 314.838 330.326 315.108 328.873C315.21 328.218 315.372 327.575 315.591 326.953C315.898 326.178 316.398 325.492 316.712 324.726C317.345 323.256 317.385 321.593 317.635 319.997C317.885 318.401 318.441 316.717 319.747 315.85C319.968 313.045 321.073 310.279 321.681 307.538C322.141 305.462 322.294 303.327 322.657 301.222C323.019 299.116 323.604 297.011 324.821 295.306C324.725 293.547 325.105 291.796 325.917 290.253C326.113 289.914 326.274 289.554 326.397 289.179C326.472 288.813 326.515 288.441 326.526 288.067C326.659 286.604 327.258 285.23 328.226 284.164C327.823 282.627 328.384 281.023 328.887 279.532C329.522 277.63 329.809 275.62 329.734 273.608C329.671 273.046 329.697 272.477 329.81 271.923C329.923 271.502 330.145 271.144 330.274 270.74C330.389 270.245 330.45 269.738 330.455 269.229C330.612 266.951 331.495 264.803 332.47 262.769C333.051 261.582 332.559 259.969 332.68 258.647C332.889 256.449 333.119 254.175 334.163 252.259C334.357 251.897 334.566 251.552 334.739 251.177C334.949 250.642 335.063 250.071 335.074 249.493C335.11 248.529 335.239 247.729 334.909 246.832C337.065 244.958 340.007 244.432 342.812 244.305C345.617 244.179 348.454 244.444 351.199 243.821C352.005 243.632 352.811 243.371 353.662 243.244C355.592 242.95 357.551 243.408 359.457 243.863C359.324 245.126 359.767 246.339 360.263 247.514C362.199 252.273 363.214 257.384 363.25 262.555Z" fill="#33313F"/>
<path opacity="0.1" d="M353.758 263.519L349.128 274.399C348.914 272.984 348.587 271.57 348.261 270.189L348.188 270.344V270.117L350.711 264.319L353.758 263.519Z" fill="black"/>
<path opacity="0.1" d="M367.635 240.789C367.368 240.998 367.049 241.122 366.716 241.147C366.205 241.166 365.695 241.094 365.208 240.933L361.581 239.985C361.467 239.956 361.357 239.915 361.251 239.863C361.311 239.202 361.432 238.436 361.775 238.179C362.287 237.821 363.818 238.301 364.398 238.385C365.398 238.528 366.414 238.697 367.389 238.895C367.54 239.514 367.623 240.15 367.635 240.789Z" fill="black"/>
<path d="M370.702 215.736C370.778 216.085 370.887 216.43 370.952 216.784C371.06 217.652 371.032 218.532 370.867 219.391L370.537 221.799L370.206 224.22L368.929 233.539L368.614 235.846L368.171 239.067C368.15 239.335 368.084 239.597 367.977 239.842C367.845 240.071 367.661 240.262 367.441 240.398C367.221 240.534 366.971 240.61 366.716 240.621C366.205 240.638 365.696 240.565 365.209 240.406L361.581 239.455C361.422 239.425 361.271 239.36 361.138 239.265C361.027 239.152 360.947 239.01 360.906 238.854C360.865 238.698 360.864 238.533 360.904 238.377C360.957 238.057 361.09 237.758 361.134 237.438C361.223 236.814 360.973 236.174 361.061 235.555C361.148 235.161 361.284 234.781 361.464 234.423C362.674 231.631 361.972 228.372 362.383 225.34C362.753 222.954 363.718 220.712 365.18 218.839C366.083 217.657 367.119 216.593 368.268 215.673C368.719 215.306 369.436 214.552 370.005 214.409C370.734 214.249 370.581 215.205 370.702 215.736Z" fill="#6C63FF"/>
<path d="M343.251 179.465C342.985 180.349 343.401 181.322 343.211 182.223C343.006 183.216 342.111 183.907 341.857 184.905C341.454 186.425 342.687 187.81 343.59 189.073C346.935 193.764 346.496 200.257 345.351 205.979C344.43 210.571 343.157 215.077 341.543 219.454C341.039 220.814 340.483 222.195 339.491 223.214C341.345 222.658 343.316 222.098 345.174 222.637C347.528 223.319 349.559 225.707 351.945 225.163C353.38 224.831 354.387 223.5 355.677 222.763C358.095 221.403 361.009 222.258 363.705 222.696C364.286 222.839 364.894 222.807 365.458 222.603C365.89 222.361 366.256 222.009 366.522 221.58C367.726 219.967 368.446 218.019 368.594 215.98C368.658 214.965 368.514 213.947 368.173 212.993C367.832 212.04 367.301 211.174 366.615 210.451C366.043 209.887 365.358 209.432 364.918 208.767C364.491 207.99 364.262 207.111 364.253 206.215C363.935 201.583 365.015 196.855 363.903 192.375C363.5 190.779 362.843 189.25 362.665 187.617C362.444 185.583 362.972 183.406 362.198 181.545C361.589 180.067 360.247 179.018 358.8 178.479C357.353 177.94 355.806 177.789 354.27 177.637C352.062 177.443 344.174 176.454 343.251 179.465Z" fill="#33313F"/>
<g opacity="0.1">
<path opacity="0.1" d="M345.351 205.979C344.435 210.552 343.168 215.039 341.563 219.399C341.841 218.822 342.075 218.216 342.296 217.614C343.912 213.237 345.186 208.731 346.105 204.139C347.254 198.413 347.693 191.928 344.348 187.233C343.542 186.113 342.506 184.901 342.542 183.587C342.244 183.984 342.013 184.431 341.857 184.909C341.454 186.429 342.687 187.814 343.59 189.078C346.935 193.764 346.496 200.257 345.351 205.979Z" fill="black"/>
<path opacity="0.1" d="M343.259 181.797C343.583 181.378 343.824 180.895 343.969 180.378C344.031 179.753 344.015 179.121 343.92 178.5C343.61 178.744 343.377 179.08 343.251 179.465C343.014 180.21 343.288 181.018 343.259 181.797Z" fill="black"/>
<path opacity="0.1" d="M367.28 219.727C367.013 220.155 366.647 220.506 366.216 220.746C365.653 220.954 365.043 220.987 364.463 220.839C361.767 220.418 358.82 219.551 356.435 220.911C355.141 221.643 354.137 222.974 352.698 223.311C350.317 223.867 348.285 221.479 345.932 220.784C344.263 220.3 342.506 220.7 340.825 221.205C340.491 221.949 340.04 222.63 339.491 223.218C341.345 222.662 343.316 222.102 345.174 222.641C347.528 223.323 349.559 225.711 351.945 225.168C353.38 224.835 354.387 223.504 355.677 222.768C358.095 221.408 361.009 222.262 363.705 222.7C364.286 222.843 364.894 222.811 365.458 222.608C365.89 222.365 366.256 222.013 366.522 221.584C367.253 220.578 367.817 219.451 368.191 218.25C367.922 218.764 367.617 219.258 367.28 219.727Z" fill="black"/>
</g>
</g>
<defs>
<linearGradient id="paint0_linear" x1="309.768" y1="257.872" x2="371.431" y2="257.872" gradientUnits="userSpaceOnUse">
<stop stop-color="#808080" stop-opacity="0.25"/>
<stop offset="0.54" stop-color="#808080" stop-opacity="0.12"/>
<stop offset="1" stop-color="#808080" stop-opacity="0.1"/>
</linearGradient>
<clipPath id="clip0">
<rect width="470" height="339" fill="white"/>
</clipPath>
</defs>
</svg>
