<svg width="145" height="144" viewBox="0 0 145 144" fill="none" xmlns="http://www.w3.org/2000/svg">
<path d="M72.3965 143.704C112.38 143.704 144.793 111.534 144.793 71.8518C144.793 32.1691 112.38 0 72.3965 0C32.413 0 0 32.1691 0 71.8518C0 111.534 32.413 143.704 72.3965 143.704Z" fill="white"/>
<path opacity="0.2" d="M66.0989 33.8925C70.0463 33.8925 73.2462 30.7167 73.2462 26.799C73.2462 22.8814 70.0463 19.7055 66.0989 19.7055C62.1516 19.7055 58.9517 22.8814 58.9517 26.799C58.9517 30.7167 62.1516 33.8925 66.0989 33.8925Z" fill="black"/>
<path opacity="0.2" d="M48.7015 90.5675C52.6488 90.5675 55.8488 87.3916 55.8488 83.474C55.8488 79.5563 52.6488 76.3804 48.7015 76.3804C44.7541 76.3804 41.5542 79.5563 41.5542 83.474C41.5542 87.3916 44.7541 90.5675 48.7015 90.5675Z" fill="black"/>
<path opacity="0.2" d="M112.75 87.0299C118.452 87.0299 123.074 82.4425 123.074 76.7837C123.074 71.1248 118.452 66.5374 112.75 66.5374C107.048 66.5374 102.426 71.1248 102.426 76.7837C102.426 82.4425 107.048 87.0299 112.75 87.0299Z" fill="black"/>
</svg>
