<svg width="572" height="349" viewBox="0 0 572 349" fill="none" xmlns="http://www.w3.org/2000/svg">
<g clip-path="url(#clip0)">
<path opacity="0.1" d="M572 207.658C572.031 224.206 567.513 240.444 558.94 254.599C558.94 271.909 550.87 287.599 537.78 299.034C534.504 301.892 530.976 304.45 527.24 306.674C527.09 306.769 526.935 306.859 526.78 306.949C526.5 307.114 526.22 307.279 525.935 307.449L525.67 307.604C513.276 314.508 499.307 318.091 485.12 318.005H108.585C105.585 318.005 102.612 317.885 99.6652 317.645C89.1935 316.82 78.9035 314.437 69.1352 310.574C67.2285 309.821 65.3585 309.011 63.5252 308.144C62.6519 307.734 61.7869 307.313 60.9302 306.879C60.3952 306.609 59.8602 306.329 59.3302 306.049C53.1702 302.803 47.3912 298.881 42.1002 294.354C25.1002 279.739 14.5602 259.549 14.5602 237.248C5.02391 222.564 -0.0349375 205.422 0.000181615 187.913C0.000181615 138.342 39.6202 98.1564 88.5002 98.1564C90.0002 98.1564 91.5002 98.2014 93.0002 98.2814C93.2152 98.2814 93.4252 98.2814 93.6402 98.3114C101.88 84.2662 112.895 71.361 126.14 60.0009C162.26 29.0504 215.05 9.54013 273.855 9.54013C323.265 9.54013 368.43 23.3153 403.025 46.0757C416.135 38.665 430.941 34.7802 446 34.8005C494.87 34.8005 534.5 74.9861 534.5 124.557C534.493 127.693 534.326 130.827 534 133.947C545.78 142.286 555.382 153.336 561.996 166.165C568.609 178.994 572.041 193.225 572 207.658Z" fill="#6C63FF"/>
<g opacity="0.2">
<path opacity="0.2" d="M69.1851 309.899C69.1851 310.129 69.1601 310.354 69.1351 310.574C67.2284 309.821 65.3584 309.011 63.5251 308.144C62.5457 308.016 61.6348 307.572 60.9301 306.879C60.3951 306.609 59.8601 306.329 59.3301 306.049C59.4501 305.798 59.5853 305.554 59.7351 305.319C60.7651 303.689 62.3301 302.669 64.0551 302.724C65.7801 302.779 67.2751 303.894 68.2001 305.579C68.9075 306.906 69.2476 308.397 69.1851 309.899Z" fill="#3F3D56"/>
<path opacity="0.2" d="M69.4553 301.339C69.4212 302.839 68.988 304.303 68.2003 305.579C67.1703 307.204 65.6053 308.224 63.8803 308.169L63.5253 308.144C62.5459 308.016 61.635 307.572 60.9303 306.879C60.4524 306.426 60.0491 305.899 59.7353 305.319C59.0453 303.988 58.7078 302.503 58.7551 301.004C58.8024 299.506 59.2328 298.044 60.0053 296.759C61.0353 295.129 62.6003 294.109 64.3253 294.164C66.0503 294.219 67.5453 295.334 68.4703 297.019C69.1777 298.346 69.5178 299.837 69.4553 301.339Z" fill="#3F3D56"/>
<path opacity="0.2" d="M69.7267 292.794C69.8489 288.927 67.5539 285.717 64.6006 285.624C61.6474 285.53 59.1542 288.589 59.032 292.456C58.9098 296.323 61.2049 299.534 64.1581 299.627C67.1114 299.72 69.6045 296.661 69.7267 292.794Z" fill="#3F3D56"/>
<path opacity="0.2" d="M69.9945 284.234C70.1167 280.367 67.8217 277.157 64.8685 277.063C61.9152 276.97 59.4221 280.029 59.2999 283.896C59.1777 287.763 61.4727 290.973 64.426 291.067C67.3792 291.16 69.8723 288.101 69.9945 284.234Z" fill="#3F3D56"/>
<path opacity="0.2" d="M70.3076 275.109C70.4237 271.24 68.1225 268.032 65.1677 267.943C62.213 267.855 59.7237 270.919 59.6076 274.788C59.4915 278.657 61.7927 281.865 64.7474 281.954C67.7022 282.042 70.1915 278.978 70.3076 275.109Z" fill="#3F3D56"/>
<path opacity="0.2" d="M46.7351 216.278C46.031 215.325 45.396 214.322 44.8351 213.278L58.9651 211.413L43.7551 211.048C42.3978 207.828 41.7115 204.366 41.7381 200.872C41.7648 197.378 42.5038 193.926 43.9101 190.728L63.9701 201.953L45.5951 187.528C47.4488 184.53 49.9007 181.946 52.7977 179.938C55.6948 177.93 58.9747 176.541 62.4327 175.858C65.8907 175.174 69.4524 175.211 72.8954 175.966C76.3385 176.721 79.5888 178.178 82.4435 180.246C85.2983 182.313 87.696 184.948 89.487 187.984C91.278 191.019 92.4238 194.392 92.8528 197.891C93.2818 201.39 92.9848 204.939 91.9804 208.318C90.976 211.697 89.2857 214.832 87.0151 217.528C88.1092 219.012 89.0397 220.609 89.7901 222.293L71.2451 231.198L90.9101 225.283C92.1485 229.37 92.3481 233.7 91.4908 237.883C90.6334 242.066 88.7462 245.969 86.0001 249.239C88.8552 253.112 90.5625 257.711 90.9269 262.51C91.2912 267.308 90.2979 272.112 88.0605 276.373C85.8231 280.633 82.4319 284.178 78.2747 286.602C74.1176 289.025 69.3622 290.23 64.5525 290.079C59.7427 289.927 55.0727 288.425 51.0765 285.744C47.0803 283.063 43.9191 279.312 41.9545 274.919C39.99 270.526 39.3012 265.669 39.9672 260.903C40.6331 256.137 42.6267 251.655 45.7201 247.969C42.3092 243.339 40.5533 237.698 40.7347 231.95C40.916 226.203 43.0241 220.683 46.7201 216.278H46.7351Z" fill="#6C63FF"/>
<path opacity="0.1" d="M92.0001 233.568C91.8228 239.319 89.7085 244.84 86.0001 249.239C88.8552 253.112 90.5625 257.711 90.9269 262.51C91.2912 267.308 90.2979 272.112 88.0605 276.373C85.8231 280.633 82.4319 284.178 78.2747 286.602C74.1176 289.025 69.3622 290.23 64.5525 290.079C59.7427 289.927 55.0727 288.425 51.0765 285.744C47.0803 283.063 43.9191 279.312 41.9545 274.919C39.99 270.526 39.3012 265.669 39.9672 260.903C40.6331 256.137 42.6267 251.655 45.7201 247.969C42.4351 243.504 92.0901 230.688 92.0001 233.568Z" fill="black"/>
</g>
<path d="M479 69.206V308.799C479 311.241 478.03 313.582 476.304 315.308C474.578 317.035 472.236 318.005 469.795 318.005H102.205C101.346 318.006 100.49 317.884 99.665 317.645C97.7434 317.095 96.0532 315.935 94.8505 314.339C93.6478 312.743 92.9981 310.798 93 308.799V201.878C93 201.333 93 200.793 93 200.253V98.2814C93.215 98.2814 93.425 98.2814 93.64 98.3114C101.88 84.2662 112.895 71.361 126.14 60.0009H469.795C472.236 60.0009 474.578 60.9707 476.304 62.697C478.03 64.4233 479 66.7646 479 69.206Z" fill="white"/>
<path d="M416.01 91.1163H365.075C360.11 91.1163 356.085 95.1413 356.085 100.106C356.085 105.072 360.11 109.097 365.075 109.097H416.01C420.975 109.097 425 105.072 425 100.106C425 95.1413 420.975 91.1163 416.01 91.1163Z" fill="#3F3D56"/>
<path opacity="0.1" d="M414.52 94.1214H366.56C363.255 94.1214 360.575 96.7998 360.575 100.104C360.575 103.408 363.255 106.087 366.56 106.087H414.52C417.826 106.087 420.505 103.408 420.505 100.104C420.505 96.7998 417.826 94.1214 414.52 94.1214Z" fill="black"/>
<path d="M413.68 94.7764H402.69C399.749 94.7764 397.365 97.1605 397.365 100.101V100.106C397.365 103.047 399.749 105.432 402.69 105.432H413.68C416.621 105.432 419.005 103.047 419.005 100.106V100.101C419.005 97.1605 416.621 94.7764 413.68 94.7764Z" fill="#6C63FF"/>
<path d="M408.02 103.436C409.859 103.436 411.35 101.946 411.35 100.106C411.35 98.2673 409.859 96.7764 408.02 96.7764C406.181 96.7764 404.69 98.2673 404.69 100.106C404.69 101.946 406.181 103.436 408.02 103.436Z" fill="white"/>
<path d="M416.01 209.643H365.075C360.11 209.643 356.085 213.668 356.085 218.633C356.085 223.598 360.11 227.623 365.075 227.623H416.01C420.975 227.623 425 223.598 425 218.633C425 213.668 420.975 209.643 416.01 209.643Z" fill="#3F3D56"/>
<path opacity="0.1" d="M414.52 212.648H366.56C363.255 212.648 360.575 215.327 360.575 218.631C360.575 221.935 363.255 224.613 366.56 224.613H414.52C417.826 224.613 420.505 221.935 420.505 218.631C420.505 215.327 417.826 212.648 414.52 212.648Z" fill="black"/>
<path d="M413.68 213.303H402.69C399.749 213.303 397.365 215.687 397.365 218.628V218.633C397.365 221.574 399.749 223.958 402.69 223.958H413.68C416.621 223.958 419.005 221.574 419.005 218.633V218.628C419.005 215.687 416.621 213.303 413.68 213.303Z" fill="#6C63FF"/>
<path d="M408.02 221.963C409.859 221.963 411.35 220.472 411.35 218.633C411.35 216.794 409.859 215.303 408.02 215.303C406.181 215.303 404.69 216.794 404.69 218.633C404.69 220.472 406.181 221.963 408.02 221.963Z" fill="white"/>
<path d="M416.01 268.904H365.075C360.11 268.904 356.085 272.929 356.085 277.894C356.085 282.859 360.11 286.884 365.075 286.884H416.01C420.975 286.884 425 282.859 425 277.894C425 272.929 420.975 268.904 416.01 268.904Z" fill="#3F3D56"/>
<path opacity="0.1" d="M414.52 271.914H366.56C363.255 271.914 360.575 274.592 360.575 277.896C360.575 281.201 363.255 283.879 366.56 283.879H414.52C417.826 283.879 420.505 281.201 420.505 277.896C420.505 274.592 417.826 271.914 414.52 271.914Z" fill="black"/>
<path d="M413.68 272.569H402.69C399.749 272.569 397.365 274.953 397.365 277.894V277.899C397.365 280.84 399.749 283.224 402.69 283.224H413.68C416.621 283.224 419.005 280.84 419.005 277.899V277.894C419.005 274.953 416.621 272.569 413.68 272.569Z" fill="#6C63FF"/>
<path d="M408.02 281.224C409.859 281.224 411.35 279.733 411.35 277.894C411.35 276.055 409.859 274.564 408.02 274.564C406.181 274.564 404.69 276.055 404.69 277.894C404.69 279.733 406.181 281.224 408.02 281.224Z" fill="white"/>
<path d="M181.96 79.7961H152.325C149.384 79.7961 147 82.1803 147 85.1212V85.1262C147 88.0672 149.384 90.4513 152.325 90.4513H181.96C184.901 90.4513 187.285 88.0672 187.285 85.1262V85.1212C187.285 82.1803 184.901 79.7961 181.96 79.7961Z" fill="#6C63FF"/>
<path d="M253.54 94.7764H152.325C149.384 94.7764 147 97.1605 147 100.101V100.106C147 103.047 149.384 105.432 152.325 105.432H253.54C256.481 105.432 258.865 103.047 258.865 100.106V100.101C258.865 97.1605 256.481 94.7764 253.54 94.7764Z" fill="#6C63FF"/>
<path d="M253.54 109.762H152.325C149.384 109.762 147 112.146 147 115.087V115.092C147 118.033 149.384 120.417 152.325 120.417H253.54C256.481 120.417 258.865 118.033 258.865 115.092V115.087C258.865 112.146 256.481 109.762 253.54 109.762Z" fill="#6C63FF"/>
<g opacity="0.5">
<path opacity="0.5" d="M181.96 139.057H152.325C149.384 139.057 147 141.441 147 144.382V144.387C147 147.328 149.384 149.712 152.325 149.712H181.96C184.901 149.712 187.285 147.328 187.285 144.387V144.382C187.285 141.441 184.901 139.057 181.96 139.057Z" fill="#6C63FF"/>
<path opacity="0.5" d="M225.175 154.042H152.325C149.384 154.042 147 156.426 147 159.367V159.372C147 162.313 149.384 164.697 152.325 164.697H225.175C228.116 164.697 230.5 162.313 230.5 159.372V159.367C230.5 156.426 228.116 154.042 225.175 154.042Z" fill="#6C63FF"/>
<path opacity="0.5" d="M253.54 169.022H152.325C149.384 169.022 147 171.407 147 174.348V174.353C147 177.293 149.384 179.678 152.325 179.678H253.54C256.481 179.678 258.865 177.293 258.865 174.353V174.348C258.865 171.407 256.481 169.022 253.54 169.022Z" fill="#6C63FF"/>
</g>
<path d="M181.96 198.323H152.325C149.384 198.323 147 200.707 147 203.648V203.653C147 206.594 149.384 208.978 152.325 208.978H181.96C184.901 208.978 187.285 206.594 187.285 203.653V203.648C187.285 200.707 184.901 198.323 181.96 198.323Z" fill="#6C63FF"/>
<path d="M253.54 213.303H152.325C149.384 213.303 147 215.687 147 218.628V218.633C147 221.574 149.384 223.958 152.325 223.958H253.54C256.481 223.958 258.865 221.574 258.865 218.633V218.628C258.865 215.687 256.481 213.303 253.54 213.303Z" fill="#6C63FF"/>
<path d="M211.175 228.288H152.325C149.384 228.288 147 230.672 147 233.613V233.618C147 236.559 149.384 238.943 152.325 238.943H211.175C214.116 238.943 216.5 236.559 216.5 233.618V233.613C216.5 230.672 214.116 228.288 211.175 228.288Z" fill="#6C63FF"/>
<path d="M181.96 257.584H152.325C149.384 257.584 147 259.968 147 262.909V262.914C147 265.855 149.384 268.239 152.325 268.239H181.96C184.901 268.239 187.285 265.855 187.285 262.914V262.909C187.285 259.968 184.901 257.584 181.96 257.584Z" fill="#6C63FF"/>
<path d="M253.54 272.569H152.325C149.384 272.569 147 274.953 147 277.894V277.899C147 280.84 149.384 283.224 152.325 283.224H253.54C256.481 283.224 258.865 280.84 258.865 277.899V277.894C258.865 274.953 256.481 272.569 253.54 272.569Z" fill="#6C63FF"/>
<path d="M231.675 287.549H152.325C149.384 287.549 147 289.933 147 292.874V292.879C147 295.82 149.384 298.204 152.325 298.204H231.675C234.616 298.204 237 295.82 237 292.879V292.874C237 289.933 234.616 287.549 231.675 287.549Z" fill="#6C63FF"/>
<path opacity="0.7" d="M130 129.997H456" stroke="#3F3D56" stroke-miterlimit="10" stroke-linecap="round"/>
<path opacity="0.7" d="M130 190.248H456" stroke="#3F3D56" stroke-miterlimit="10" stroke-linecap="round"/>
<path opacity="0.7" d="M130 250.499H456" stroke="#3F3D56" stroke-miterlimit="10" stroke-linecap="round"/>
<path opacity="0.7" d="M130 312.249H456" stroke="#3F3D56" stroke-miterlimit="10" stroke-linecap="round"/>
<path opacity="0.1" d="M397.5 349C438.281 349 471.34 346.649 471.34 343.75C471.34 340.85 438.281 338.5 397.5 338.5C356.719 338.5 323.66 340.85 323.66 343.75C323.66 346.649 356.719 349 397.5 349Z" fill="#6C63FF"/>
<path opacity="0.1" d="M35.2598 81.4062C41.2328 81.4062 46.0748 76.564 46.0748 70.591C46.0748 64.618 41.2328 59.7758 35.2598 59.7758C29.2869 59.7758 24.4448 64.618 24.4448 70.591C24.4448 76.564 29.2869 81.4062 35.2598 81.4062Z" fill="#6C63FF"/>
<path opacity="0.1" d="M80.335 21.6303C86.308 21.6303 91.15 16.7882 91.15 10.8152C91.15 4.84211 86.308 0 80.335 0C74.3621 0 69.52 4.84211 69.52 10.8152C69.52 16.7882 74.3621 21.6303 80.335 21.6303Z" fill="#6C63FF"/>
<path opacity="0.1" d="M76.6702 70.006C86.6803 70.006 94.7952 61.8911 94.7952 51.8808C94.7952 41.8704 86.6803 33.7555 76.6702 33.7555C66.66 33.7555 58.5452 41.8704 58.5452 51.8808C58.5452 61.8911 66.66 70.006 76.6702 70.006Z" fill="#6C63FF"/>
<path d="M416.01 150.377H365.075C360.11 150.377 356.085 154.402 356.085 159.367C356.085 164.332 360.11 168.357 365.075 168.357H416.01C420.975 168.357 425 164.332 425 159.367C425 154.402 420.975 150.377 416.01 150.377Z" fill="#3F3D56"/>
<path opacity="0.1" d="M414.52 153.387H366.56C363.255 153.387 360.575 156.066 360.575 159.37C360.575 162.674 363.255 165.352 366.56 165.352H414.52C417.826 165.352 420.505 162.674 420.505 159.37C420.505 156.066 417.826 153.387 414.52 153.387Z" fill="black"/>
<path d="M362.585 330.505C363.37 330.39 364.155 330.23 364.925 330.05C364.825 330.82 364.602 331.57 364.265 332.27C363.5 333.72 362.005 334.595 360.63 335.485C360.441 335.308 360.196 335.202 359.937 335.184C359.679 335.167 359.422 335.24 359.21 335.39C357.555 336.39 356.235 337.8 354.48 338.66C353.865 338.96 353.225 339.2 352.625 339.535C351.17 340.422 349.965 341.666 349.125 343.15C348.625 343.925 348.22 344.945 348.71 345.715C348.898 345.976 349.141 346.192 349.42 346.35C350.133 346.847 350.987 347.101 351.855 347.075C352.355 347.03 352.855 346.84 353.4 346.755C354.085 346.635 354.785 346.695 355.475 346.635C356.476 346.506 357.457 346.252 358.395 345.88L361.83 344.68C362.8 344.366 363.745 343.979 364.655 343.52C365.2 343.225 365.715 342.88 366.27 342.61C366.895 342.333 367.54 342.106 368.2 341.93L370.15 341.36C370.431 341.253 370.732 341.213 371.03 341.245C371.3 341.295 371.53 341.465 371.805 341.535C372.225 341.61 372.657 341.568 373.055 341.415L375.315 340.775C375.793 340.667 376.248 340.477 376.66 340.215C377.695 339.48 377.88 338.02 377.875 336.745C377.87 334.813 377.652 332.888 377.225 331.005C376.936 331.122 376.683 331.314 376.49 331.56C376.26 331.234 376.011 330.922 375.745 330.625C374.704 329.414 373.935 327.993 373.49 326.46C374.307 325.853 374.988 325.084 375.49 324.2C374.295 319.645 373.07 315.02 370.64 310.999C369.845 309.689 368.935 308.459 368.14 307.169C365.775 303.419 365.29 298.669 362.585 295.169C362.328 294.814 362.19 294.387 362.19 293.949C362.19 293.511 362.328 293.084 362.585 292.729C362.895 292.319 363.395 291.934 363.3 291.424C363.23 291.059 362.85 290.724 362.995 290.384C363.065 290.219 363.235 290.129 363.365 290.009C363.825 289.579 363.765 288.854 363.81 288.224C363.91 286.634 364.855 285.224 365.765 283.944C365.95 283.638 366.195 283.372 366.485 283.164C366.73 283.014 367.02 282.944 367.265 282.794C368.125 282.249 368.065 280.984 368.475 280.044C369.015 278.804 370.375 278.179 371.265 277.174C372.4 275.894 372.69 274.114 373.885 272.999C374.008 272.881 374.14 272.774 374.28 272.679C373.762 274.576 373.524 276.538 373.575 278.504C373.46 285.269 375.14 292.269 374.355 299.004C373.735 304.334 376.99 309.649 381.605 312.314C383.413 313.278 385.302 314.08 387.25 314.71C390.14 315.745 393.02 316.81 395.855 318C397.855 318.84 399.829 319.741 401.775 320.705C404.178 321.878 406.515 323.182 408.775 324.61C411.555 326.395 414.34 328.205 416.315 330.87C417.524 330.808 418.685 330.381 419.645 329.645C420.405 330.245 421.325 330.7 422.04 331.365C423.028 332.394 423.689 333.691 423.94 335.095H423.64C423.675 335.76 423.705 336.425 423.74 337.095C423.767 337.265 423.741 337.44 423.665 337.595C423.593 337.694 423.501 337.777 423.395 337.84L421.855 338.885C420.735 339.64 419.5 340.595 419.44 341.95C419.409 342.344 419.529 342.736 419.775 343.045C420.152 343.395 420.633 343.613 421.145 343.665C423.825 344.23 426.57 344.78 429.285 344.415C430.575 344.24 431.91 343.815 432.75 342.815C433.52 341.905 433.75 340.67 433.96 339.495C434.295 337.495 434.575 335.45 434.795 333.42C434.863 332.04 435.143 330.679 435.625 329.385C435.663 329.272 435.739 329.176 435.84 329.115C435.955 329.065 436.09 329.115 436.21 329.065C436.33 329.015 436.41 328.83 436.45 328.68C436.945 326.705 437.186 324.675 437.165 322.64C437.189 322.111 437.109 321.583 436.93 321.085C436.719 320.668 436.417 320.303 436.047 320.018C435.677 319.732 435.247 319.533 434.79 319.435C433.879 319.249 432.954 319.139 432.025 319.105C431.25 319.03 430.482 318.889 429.73 318.685C429.426 318.569 429.099 318.527 428.775 318.56C428.615 318.581 428.467 318.661 428.36 318.783C428.254 318.905 428.195 319.062 428.195 319.225C428.213 319.34 428.254 319.451 428.315 319.55L427.535 319.395C426.905 319.28 426.035 319.005 425.09 318.775C425.09 318.615 425.1 318.448 425.12 318.275C425.122 318.096 425.074 317.92 424.98 317.768C424.886 317.616 424.751 317.493 424.59 317.415L411.38 310.354L408.91 309.034C403.5 306.139 397.91 303.464 392.485 300.569C392.125 300.679 391.825 300.264 391.72 299.894C391.615 299.524 391.54 299.084 391.195 298.919C391.025 298.839 390.8 298.844 390.695 298.699C390.606 298.569 390.572 298.409 390.6 298.254C390.775 295.619 392.66 293.189 392.285 290.579C392.125 289.464 391.55 288.364 391.785 287.269C391.96 286.514 392.5 285.899 392.785 285.179C393.435 283.569 392.785 281.634 393.495 280.059C393.969 279.024 394.29 277.926 394.45 276.799C394.785 274.553 395.46 272.372 396.45 270.329C396.929 269.298 397.556 268.343 398.31 267.494C398.705 267.064 399.15 266.679 399.53 266.234C400.68 264.859 401.105 263.029 401.43 261.234C402.02 258.029 402.43 254.704 401.69 251.524C401.44 250.444 401.06 249.369 401.075 248.259C401.075 246.929 401.61 245.404 400.965 244.339C401.63 243.805 402.073 243.044 402.21 242.203C402.22 241.901 402.279 241.602 402.385 241.318C402.605 241.01 402.89 240.754 403.22 240.568C403.736 240.175 404.131 239.644 404.359 239.036C404.587 238.429 404.64 237.769 404.51 237.133C405.195 237.443 405.915 236.748 406.24 236.063C406.565 235.378 406.81 234.563 407.505 234.253C407.975 234.053 408.505 234.173 409.005 234.043C409.8 233.838 410.285 233.043 410.845 232.458C411.985 231.228 413.6 230.593 415.095 229.838C419.525 227.583 423.135 224.018 426.67 220.508C428.514 218.796 430.188 216.911 431.67 214.878C432.065 214.293 432.425 213.688 432.765 213.068L432.855 213.023L432.885 213.133C432.94 213.353 433.005 213.573 433.07 213.788C433.23 214.288 433.41 214.823 433.57 215.333C434.11 216.833 434.695 218.433 435.795 219.568C436.133 219.914 436.516 220.212 436.935 220.453C437.844 220.941 438.843 221.241 439.87 221.333C440.26 221.383 440.655 221.413 441.05 221.433C441.445 221.453 441.84 221.468 442.23 221.478L450.32 221.693C447.54 217.663 447.32 212.423 447.505 207.518C447.97 194.918 450.425 182.203 448.145 169.802C447.87 168.302 447.505 166.802 446.59 165.597C445.39 164.022 443.42 163.262 441.5 162.817C439.58 162.372 437.585 162.157 435.79 161.352C434.29 160.667 432.91 159.567 431.29 159.207C430.097 159.007 428.877 159.028 427.69 159.267C426.23 159.484 424.779 159.741 423.335 160.037L422.985 160.112H423L422.76 160.167H422.695L422.48 160.217H422.4L422.2 160.272L422.11 160.297L421.925 160.357L421.82 160.392L421.65 160.447L421.54 160.492L421.38 160.552L421.26 160.602L421.115 160.667L420.995 160.727L420.86 160.792L420.74 160.862L420.615 160.932L420.495 161.012L420.38 161.087L420.26 161.172L420.16 161.252L420.045 161.352L419.95 161.437C419.911 161.473 419.874 161.512 419.84 161.552L419.755 161.637C419.716 161.682 419.679 161.729 419.645 161.777C419.645 161.802 419.6 161.827 419.58 161.857C419.56 161.887 419.49 161.987 419.445 162.062V162.092C419.333 162.28 419.24 162.48 419.17 162.687C419.135 162.792 419.1 162.897 419.075 163.002C419.024 163.216 418.987 163.433 418.965 163.652C418.965 163.762 418.965 163.877 418.94 163.987C418.94 164.207 418.94 164.432 418.94 164.652C418.961 165.028 419.002 165.402 419.065 165.772C417.292 166.82 415.813 168.301 414.767 170.075C413.721 171.85 413.143 173.861 413.085 175.92C413.027 177.979 413.492 180.019 414.436 181.85C415.381 183.68 416.774 185.242 418.485 186.388C418.509 186.585 418.523 186.784 418.525 186.983V187.113C418.497 187.82 418.424 188.525 418.305 189.223C416.329 188.839 414.318 188.66 412.305 188.688C411.105 188.688 409.895 188.798 408.685 188.893C407.388 187.328 406.18 185.692 405.065 183.993L402.395 180.078C401.478 178.798 400.643 177.462 399.895 176.078C399.24 174.808 398.73 173.457 398 172.227C396.5 169.692 394.05 167.537 393.745 164.602L393.04 164.747C392.655 164.117 392.17 163.452 391.99 163.087C391.025 161.004 390.281 158.826 389.77 156.587C389.525 155.427 389.34 154.217 388.705 153.217C388.273 152.592 387.748 152.036 387.15 151.567C386.186 150.659 385.055 149.946 383.82 149.467C383.269 149.267 382.683 149.181 382.097 149.216C381.512 149.25 380.939 149.404 380.415 149.667C380.252 149.592 380.086 149.525 379.915 149.467C379.296 149.232 378.63 149.149 377.972 149.225C377.314 149.302 376.684 149.536 376.135 149.907C375.085 150.712 374.635 152.092 374.475 153.407C374.199 155.227 374.511 157.087 375.365 158.717C376.365 160.507 378.155 161.717 379.635 163.137C380.665 164.135 381.567 165.257 382.32 166.477C382.553 169.178 382.484 171.897 382.115 174.583C381.925 175.733 381.615 176.863 381.525 178.023C381.16 182.213 383.34 186.403 382.56 190.523C382.432 191.142 382.499 191.786 382.752 192.366C383.006 192.945 383.433 193.432 383.975 193.758C385.095 194.363 386.405 194.443 387.635 194.758C390.05 195.378 392.135 196.923 394.575 197.498C395.7 197.768 396.87 197.818 397.99 198.118L398.165 198.173C397.303 199.149 396.687 200.319 396.37 201.583C395.87 203.683 396.34 205.928 395.84 208.028C395.43 209.758 394.4 211.268 393.385 212.733C391.432 215.56 389.475 218.393 387.515 221.233C386.206 223.225 384.76 225.124 383.19 226.918C380.495 229.863 375.845 232.198 374.475 235.738C374.445 235.653 374.405 235.568 374.375 235.483C372.435 236.908 371.71 239.563 370.165 241.408C369.41 242.303 368.48 243.029 367.665 243.859C366.656 244.93 365.731 246.078 364.9 247.294C362.6 250.484 360.285 253.689 358.64 257.264C357.78 259.124 357.115 261.059 356.43 262.984C353.74 270.569 349.35 277.764 347.525 285.609C347.08 287.524 345.915 289.254 345.74 291.214C345.545 293.304 346.5 295.314 347.49 297.159C348.99 299.979 350.66 302.719 351.99 305.619C352.775 307.309 353.455 309.054 354.33 310.704C355.285 312.505 356.455 314.175 357.455 315.95C359.89 320.505 361.29 325.54 362.585 330.505ZM395.665 187.228L395.425 187.108C394.529 186.72 393.708 186.176 393 185.503C390.845 183.203 389.92 179.738 389.245 176.643C389.165 176.273 389.095 175.908 389.03 175.538C391.645 179.253 394.115 183.093 395.665 187.238V187.228Z" fill="url(#paint0_linear)"/>
<path d="M385.84 157.202C385.595 156.047 385.415 154.847 384.78 153.857C384.345 153.236 383.819 152.683 383.22 152.217C382.25 151.315 381.116 150.607 379.88 150.132C379.26 149.9 378.595 149.818 377.937 149.893C377.28 149.969 376.65 150.2 376.1 150.567C375.045 151.367 374.6 152.737 374.435 154.067C374.159 155.876 374.471 157.725 375.325 159.342C376.35 161.122 378.12 162.312 379.605 163.732C380.683 164.772 381.621 165.949 382.395 167.232C382.748 167.898 383.174 168.522 383.665 169.092C383.913 169.372 384.223 169.59 384.57 169.73C384.917 169.87 385.292 169.927 385.665 169.897C386.288 169.733 386.854 169.399 387.3 168.932C387.91 168.397 389.55 167.432 389.6 166.597C389.64 165.912 388.36 164.362 388.045 163.717C387.083 161.629 386.344 159.445 385.84 157.202Z" fill="#FBBEBE"/>
<path opacity="0.1" d="M385.84 157.202C385.595 156.047 385.415 154.847 384.78 153.857C384.345 153.236 383.819 152.683 383.22 152.217C382.25 151.315 381.116 150.607 379.88 150.132C379.26 149.9 378.595 149.818 377.937 149.893C377.28 149.969 376.65 150.2 376.1 150.567C375.045 151.367 374.6 152.737 374.435 154.067C374.159 155.876 374.471 157.725 375.325 159.342C376.35 161.122 378.12 162.312 379.605 163.732C380.683 164.772 381.621 165.949 382.395 167.232C382.748 167.898 383.174 168.522 383.665 169.092C383.913 169.372 384.223 169.59 384.57 169.73C384.917 169.87 385.292 169.927 385.665 169.897C386.288 169.733 386.854 169.399 387.3 168.932C387.91 168.397 389.55 167.432 389.6 166.597C389.64 165.912 388.36 164.362 388.045 163.717C387.083 161.629 386.344 159.445 385.84 157.202Z" fill="black"/>
<path d="M420.425 190.118C417.788 189.411 415.065 189.074 412.335 189.118C407.78 189.183 403.09 190.288 398.75 188.888C397.634 188.508 396.547 188.045 395.5 187.503C394.602 187.118 393.78 186.578 393.07 185.908C390.91 183.623 389.98 180.178 389.31 177.108C388.718 174.018 388.375 170.887 388.285 167.742C387.16 168.267 385.97 168.782 384.735 168.677C383.5 168.572 382.235 167.622 382.235 166.382C382.42 169.292 382.555 172.237 382.07 175.107C381.88 176.248 381.57 177.373 381.485 178.523C381.115 182.688 383.3 186.848 382.52 190.953C382.389 191.569 382.455 192.21 382.709 192.786C382.963 193.362 383.392 193.844 383.935 194.163C385.055 194.768 386.37 194.843 387.6 195.163C390.015 195.778 392.1 197.313 394.55 197.888C395.675 198.153 396.85 198.203 397.97 198.503C399.565 198.928 401.02 199.843 402.65 200.128C403.87 200.348 405.15 200.198 406.365 200.303C407.44 200.393 408.49 200.673 409.57 200.703C412.21 200.768 414.7 199.278 416.45 197.298C418.2 195.318 419.315 192.503 420.425 190.118Z" fill="#F86D70"/>
<path opacity="0.1" d="M420.425 190.118C417.788 189.411 415.065 189.074 412.335 189.118C407.78 189.183 403.09 190.288 398.75 188.888C397.634 188.508 396.547 188.045 395.5 187.503C394.602 187.118 393.78 186.578 393.07 185.908C390.91 183.623 389.98 180.178 389.31 177.108C388.718 174.018 388.375 170.887 388.285 167.742C387.16 168.267 385.97 168.782 384.735 168.677C383.5 168.572 382.235 167.622 382.235 166.382C382.42 169.292 382.555 172.237 382.07 175.107C381.88 176.248 381.57 177.373 381.485 178.523C381.115 182.688 383.3 186.848 382.52 190.953C382.389 191.569 382.455 192.21 382.709 192.786C382.963 193.362 383.392 193.844 383.935 194.163C385.055 194.768 386.37 194.843 387.6 195.163C390.015 195.778 392.1 197.313 394.55 197.888C395.675 198.153 396.85 198.203 397.97 198.503C399.565 198.928 401.02 199.843 402.65 200.128C403.87 200.348 405.15 200.198 406.365 200.303C407.44 200.393 408.49 200.673 409.57 200.703C412.21 200.768 414.7 199.278 416.45 197.298C418.2 195.318 419.315 192.503 420.425 190.118Z" fill="black"/>
<path d="M427.655 318.84C428.471 318.941 429.262 319.188 429.99 319.57C430.94 320.245 431.651 321.204 432.02 322.31C433.11 325 433.335 327.96 433.385 330.865C433.425 333.21 433.345 335.61 432.505 337.8C432.276 338.491 431.879 339.114 431.35 339.615C430.881 339.982 430.339 340.245 429.76 340.385C428.505 340.73 427.055 340.725 426.03 339.925C424.89 339.035 424.605 337.46 424.365 336.035C424.04 334.115 423.58 332.07 422.15 330.745C421.09 329.745 419.57 329.245 418.8 328.035C417.88 326.58 418.365 324.68 418.95 323.06C419.45 321.655 420.205 318.81 421.675 318.09C423.145 317.37 426.13 318.565 427.655 318.84Z" fill="#FBBEBE"/>
<path d="M373.5 325.74C373.941 327.309 374.723 328.762 375.79 329.995C376.44 330.745 377.255 331.655 376.915 332.585C376.772 332.901 376.562 333.182 376.3 333.41C371.47 338.13 364.715 340.41 358.015 341.27C357.908 341.298 357.796 341.298 357.69 341.27C357.495 341.185 357.445 340.935 357.425 340.72C357.315 340.022 357.315 339.312 357.425 338.615C357.75 336.98 359.185 335.825 360.59 334.92C361.995 334.015 363.53 333.145 364.31 331.67C365.285 329.84 364.875 327.455 366.035 325.74C366.975 324.345 368.725 323.74 370.39 323.49C370.965 323.4 372.19 322.77 372.68 323.06C373.17 323.35 373.33 325.165 373.5 325.74Z" fill="#FBBEBE"/>
<path d="M428.315 318.67C428.315 318.508 428.374 318.352 428.48 318.23C428.587 318.109 428.735 318.03 428.895 318.01C429.218 317.978 429.545 318.019 429.85 318.13C430.601 318.338 431.369 318.481 432.145 318.555C433.076 318.587 434.002 318.696 434.915 318.88C435.372 318.975 435.801 319.172 436.172 319.455C436.543 319.737 436.847 320.1 437.06 320.515C437.238 321.011 437.318 321.538 437.295 322.065C437.315 324.087 437.075 326.104 436.58 328.065C436.54 328.215 436.48 328.39 436.335 328.445C436.19 328.5 436.085 328.445 435.97 328.5C435.918 328.528 435.872 328.567 435.836 328.613C435.799 328.66 435.771 328.713 435.755 328.77C435.271 330.052 434.989 331.401 434.92 332.77C434.7 334.77 434.42 336.8 434.085 338.8C433.89 339.97 433.645 341.2 432.875 342.1C432.03 343.1 430.695 343.515 429.405 343.69C426.685 344.05 423.94 343.505 421.255 342.945C420.742 342.894 420.26 342.678 419.88 342.33C419.633 342.023 419.514 341.633 419.545 341.24C419.605 339.895 420.845 338.945 421.96 338.195L423.505 337.16C423.613 337.1 423.705 337.016 423.775 336.915C423.851 336.76 423.877 336.585 423.85 336.415L423.75 334.415C424.773 334.433 425.772 334.728 426.641 335.269C427.51 335.809 428.216 336.575 428.685 337.485C428.895 337.91 429.1 338.405 429.54 338.57C429.826 338.635 430.126 338.587 430.377 338.435C430.629 338.283 430.811 338.039 430.885 337.755C431.017 337.182 431.002 336.585 430.84 336.02C429.935 331.185 430.15 326.215 429.6 321.33C429.565 320.779 429.393 320.247 429.1 319.78C428.865 319.445 428.37 319.12 428.315 318.67Z" fill="#F86D70"/>
<path d="M367.4 164.697H378.39C381.331 164.697 383.715 162.313 383.715 159.372V159.367C383.715 156.426 381.331 154.042 378.39 154.042H367.4C364.459 154.042 362.075 156.426 362.075 159.367V159.372C362.075 162.313 364.459 164.697 367.4 164.697Z" fill="#6C63FF"/>
<path d="M373.06 162.697C374.899 162.697 376.39 161.206 376.39 159.367C376.39 157.528 374.899 156.037 373.06 156.037C371.221 156.037 369.73 157.528 369.73 159.367C369.73 161.206 371.221 162.697 373.06 162.697Z" fill="white"/>
<path d="M361.055 337.415C360.83 337.79 360.475 338.08 360.265 338.465C360.146 338.648 360.097 338.868 360.129 339.084C360.16 339.301 360.269 339.498 360.435 339.64C360.66 339.738 360.91 339.763 361.15 339.71C365.979 339.107 370.512 337.053 374.15 333.82C374.755 333.31 375.291 332.723 375.745 332.075C376.17 331.43 376.53 330.64 377.245 330.37C377.68 332.247 377.905 334.167 377.915 336.095C377.915 337.365 377.735 338.81 376.7 339.545C376.284 339.803 375.828 339.989 375.35 340.095L373.09 340.735C372.69 340.886 372.256 340.927 371.835 340.855C371.57 340.785 371.335 340.615 371.06 340.565C370.761 340.533 370.46 340.573 370.18 340.68L368.225 341.25C367.564 341.421 366.918 341.647 366.295 341.925C365.735 342.19 365.22 342.53 364.675 342.825C363.763 343.282 362.817 343.667 361.845 343.975L358.41 345.17C357.469 345.538 356.487 345.789 355.485 345.92C354.795 345.98 354.09 345.92 353.405 346.035C352.905 346.125 352.405 346.315 351.855 346.355C350.987 346.382 350.133 346.129 349.42 345.635C349.141 345.477 348.899 345.263 348.71 345.005C348.21 344.24 348.645 343.23 349.125 342.455C349.97 340.983 351.174 339.748 352.625 338.865C353.225 338.535 353.87 338.295 354.485 337.995C356.24 337.145 357.565 335.725 359.22 334.755C360.785 333.84 361.79 336.205 361.055 337.415Z" fill="#F86D70"/>
<path d="M409.345 198.973C411.162 200.22 413.243 201.029 415.425 201.338C416.566 201.479 417.716 201.541 418.865 201.523C423.662 201.518 428.449 201.118 433.18 200.328C431.3 198.253 429.395 196.033 428.68 193.328C428.327 191.894 428.253 190.405 428.46 188.943C428.749 187.074 429.197 185.234 429.8 183.443C427.783 183.548 425.76 183.497 423.75 183.288C422.605 183.168 419.795 182.128 418.8 182.918C417.805 183.708 418.57 186.253 418.585 187.448C418.588 187.491 418.588 187.534 418.585 187.578C418.537 189.398 418.145 191.193 417.43 192.868C416 196.098 412.9 198.758 409.345 198.973Z" fill="#FBBEBE"/>
<path opacity="0.1" d="M418.59 187.423C420.032 188.365 421.661 188.987 423.364 189.246C425.068 189.505 426.808 189.395 428.465 188.923C428.753 187.054 429.202 185.214 429.805 183.423C427.787 183.529 425.764 183.477 423.755 183.268C422.61 183.148 419.8 182.108 418.805 182.898C417.81 183.688 418.575 186.228 418.59 187.423Z" fill="black"/>
<path d="M425.19 188.828C431.848 188.828 437.245 183.43 437.245 176.773C437.245 170.115 431.848 164.717 425.19 164.717C418.532 164.717 413.135 170.115 413.135 176.773C413.135 183.43 418.532 188.828 425.19 188.828Z" fill="#FBBEBE"/>
<path d="M374.045 237.768C374.041 238.741 374.289 239.698 374.766 240.545C375.243 241.393 375.932 242.102 376.765 242.603C377.693 243.091 378.687 243.441 379.715 243.644C385.215 244.974 390.875 246.044 396.54 245.719C397.768 245.708 398.982 245.453 400.11 244.969C400.671 244.72 401.165 244.34 401.549 243.86C401.932 243.381 402.195 242.816 402.315 242.213C402.321 241.914 402.378 241.618 402.485 241.338C402.705 241.031 402.99 240.777 403.32 240.593C403.836 240.205 404.231 239.679 404.46 239.075C404.689 238.472 404.743 237.816 404.615 237.183C405.3 237.493 406.02 236.798 406.345 236.118C406.67 235.438 406.92 234.618 407.61 234.323C408.08 234.123 408.61 234.243 409.11 234.113C409.905 233.908 410.39 233.113 410.95 232.538C412.09 231.318 413.715 230.688 415.205 229.933C419.645 227.698 423.26 224.153 426.805 220.668C428.648 218.97 430.322 217.098 431.805 215.078C432.202 214.497 432.569 213.896 432.905 213.278C433.973 211.225 434.9 209.102 435.68 206.923C436.13 205.753 436.585 204.523 436.4 203.283C436.4 203.173 436.36 203.063 436.335 202.948C436.104 202.152 435.733 201.404 435.24 200.738C434.015 198.938 432.41 197.238 430.3 196.678C428.19 196.118 426.09 196.793 423.945 197.248C423.235 197.407 422.515 197.517 421.79 197.578C419.52 197.738 417.29 197.128 415.08 196.523L412.69 195.863C411.495 195.533 410.895 194.088 409.69 193.833C409.148 193.751 408.595 193.78 408.065 193.918C405.61 194.383 403.13 194.988 400.965 196.238C400.481 196.515 400.02 196.829 399.585 197.178C398.014 198.351 396.883 200.019 396.375 201.913C395.875 203.998 396.345 206.228 395.845 208.313C395.435 210.033 394.4 211.533 393.39 212.983L387.5 221.418C386.187 223.395 384.74 225.279 383.17 227.058C380 230.503 374.13 233.093 374.045 237.768Z" fill="#F86D70"/>
<path d="M389.765 157.202C389.52 156.047 389.34 154.847 388.705 153.857C388.27 153.236 387.744 152.683 387.145 152.217C386.175 151.315 385.041 150.607 383.805 150.132C383.186 149.9 382.52 149.818 381.863 149.893C381.205 149.969 380.576 150.2 380.025 150.567C378.97 151.367 378.525 152.737 378.36 154.067C378.084 155.876 378.396 157.725 379.25 159.342C380.25 161.122 382.045 162.312 383.53 163.732C384.609 164.772 385.547 165.949 386.32 167.232C386.673 167.898 387.099 168.522 387.59 169.092C387.839 169.372 388.149 169.59 388.496 169.73C388.843 169.87 389.217 169.927 389.59 169.897C390.214 169.733 390.779 169.399 391.225 168.932C391.835 168.397 393.475 167.432 393.525 166.597C393.565 165.912 392.285 164.362 391.97 163.717C391.008 161.629 390.269 159.445 389.765 157.202Z" fill="#FBBEBE"/>
<path d="M347.405 296.824C348.905 299.624 350.575 302.324 351.93 305.224C352.715 306.909 353.395 308.639 354.27 310.279C355.225 312.064 356.4 313.725 357.4 315.485C359.9 319.935 361.315 324.955 362.61 329.9C366.229 329.361 369.711 328.136 372.87 326.29C373.082 326.17 373.287 326.038 373.485 325.895C374.33 325.29 375.036 324.511 375.555 323.61C374.36 319.11 373.135 314.494 370.7 310.499C369.905 309.199 368.995 307.999 368.2 306.694C365.835 302.969 365.345 298.274 362.64 294.789C362.382 294.439 362.242 294.015 362.242 293.579C362.242 293.144 362.382 292.72 362.64 292.369C362.95 291.964 363.45 291.579 363.355 291.074C363.285 290.709 362.905 290.379 363.05 290.039C363.12 289.874 363.29 289.784 363.42 289.664C363.88 289.244 363.82 288.519 363.865 287.899C363.965 286.319 364.91 284.934 365.825 283.644C366.011 283.34 366.256 283.077 366.545 282.869C366.79 282.719 367.08 282.649 367.325 282.499C368.185 281.964 368.125 280.704 368.54 279.769C369.08 278.539 370.44 277.914 371.335 276.919C372.47 275.649 372.755 273.884 373.955 272.774C374.079 272.658 374.211 272.551 374.35 272.454C373.83 274.344 373.592 276.3 373.645 278.259C373.53 284.979 375.21 291.929 374.425 298.604C373.805 303.894 377.065 309.174 381.685 311.824C383.497 312.781 385.389 313.578 387.34 314.205C390.23 315.23 393.12 316.285 395.955 317.47C397.955 318.3 399.955 319.2 401.885 320.155C404.287 321.319 406.624 322.614 408.885 324.035C411.67 325.805 414.46 327.605 416.435 330.25C418.35 330.2 420.105 329.05 421.315 327.565C422.525 326.08 423.28 324.285 423.985 322.51C424.6 320.975 425.21 319.4 425.255 317.745C425.255 317.567 425.206 317.392 425.112 317.241C425.019 317.09 424.884 316.968 424.725 316.89L411.495 309.889L408.995 308.579C403.58 305.704 397.995 303.044 392.55 300.174C392.185 300.279 391.885 299.864 391.78 299.504C391.675 299.144 391.6 298.694 391.255 298.534C391.08 298.454 390.86 298.454 390.755 298.314C390.669 298.185 390.637 298.027 390.665 297.874C390.84 295.254 392.73 292.844 392.35 290.249C392.19 289.139 391.615 288.049 391.85 286.964C392.025 286.209 392.565 285.599 392.85 284.884C393.495 283.284 392.85 281.384 393.56 279.799C394.034 278.771 394.355 277.68 394.515 276.559C394.856 274.327 395.539 272.162 396.54 270.139C397.019 269.113 397.645 268.163 398.4 267.319C398.8 266.894 399.245 266.509 399.62 266.069C400.775 264.704 401.195 262.884 401.525 261.129C402.115 257.944 402.525 254.629 401.785 251.484C401.535 250.409 401.155 249.344 401.17 248.239C401.17 246.784 401.825 245.078 400.815 244.023C400.389 243.645 399.872 243.383 399.315 243.263C396.963 242.629 394.563 242.186 392.14 241.938L381.11 240.503C379.836 240.419 378.589 240.095 377.435 239.548C375.935 238.723 374.935 237.188 374.335 235.588C372.395 237.003 371.665 239.638 370.12 241.468C369.365 242.363 368.435 243.083 367.62 243.903C366.607 244.966 365.681 246.108 364.85 247.319C362.545 250.484 360.225 253.674 358.575 257.219C357.72 259.064 357.075 260.989 356.365 262.899C353.67 270.434 349.275 277.584 347.45 285.369C347 287.274 345.835 288.989 345.66 290.939C345.455 293.004 346.41 295.004 347.405 296.824Z" fill="#434175"/>
<path opacity="0.1" d="M405.265 234.273C405.533 234.775 405.672 235.335 405.67 235.903C405.425 234.683 403.745 234.008 403.64 232.803C403.59 232.248 403.69 232.273 404.035 232.568C404.56 233.003 404.785 233.793 405.265 234.273Z" fill="black"/>
<path opacity="0.1" d="M400.16 237.973C400.512 238.274 400.776 238.665 400.925 239.103C401.205 239.72 401.258 240.416 401.075 241.068C400.83 240.953 400.745 240.653 400.67 240.388C400.556 239.979 400.388 239.587 400.17 239.223C399.97 238.908 399.055 238.158 399.065 237.813C399.05 237.293 399.915 237.788 400.16 237.973Z" fill="black"/>
<path opacity="0.1" d="M399.57 197.178C400.345 197.842 401.198 198.409 402.11 198.868C404.5 200.078 407.145 200.713 409.55 201.868C410.736 202.47 411.888 203.138 413 203.868C415.385 205.368 417.765 206.868 420.145 208.393C420.718 208.724 421.247 209.125 421.72 209.588C422.58 210.508 422.575 212.088 423.36 213.088C423.793 213.582 424.326 213.98 424.923 214.256C425.519 214.531 426.167 214.679 426.825 214.688C428.141 214.699 429.449 214.479 430.69 214.038C431.442 213.815 432.18 213.547 432.9 213.233C433.652 212.916 434.364 212.509 435.02 212.023C435.675 211.562 436.234 210.976 436.663 210.299C437.092 209.623 437.383 208.868 437.52 208.078C437.606 206.987 437.461 205.889 437.095 204.858C436.896 204.186 436.642 203.532 436.335 202.903C436.159 202.546 435.955 202.203 435.725 201.878C434.085 199.553 431.195 198.458 428.4 197.913C426.925 197.628 425.425 197.453 423.945 197.203C423.235 197.362 422.515 197.472 421.79 197.533C419.52 197.693 417.29 197.083 415.08 196.478L412.69 195.818C411.495 195.488 410.895 194.043 409.69 193.788C409.148 193.706 408.595 193.735 408.065 193.873C405.61 194.338 403.13 194.943 400.965 196.193C400.474 196.483 400.008 196.813 399.57 197.178Z" fill="black"/>
<path d="M393.745 165.182C394.05 168.097 396.51 170.237 398.01 172.752C398.74 173.977 399.25 175.318 399.905 176.583C400.653 177.967 401.488 179.303 402.405 180.583L405.08 184.468C406.655 186.753 408.245 189.058 410.255 190.968C413.755 191.563 416.705 194.168 420.03 195.433C422.695 196.433 425.595 196.583 428.39 197.128C431.185 197.673 434.075 198.763 435.715 201.093C436.328 202.014 436.79 203.027 437.085 204.093C437.451 205.123 437.596 206.218 437.51 207.308C437.374 208.099 437.083 208.854 436.654 209.532C436.225 210.21 435.666 210.797 435.01 211.258C433.695 212.169 432.231 212.846 430.685 213.258C429.444 213.697 428.136 213.917 426.82 213.908C426.162 213.898 425.513 213.75 424.916 213.475C424.318 213.199 423.785 212.802 423.35 212.308C422.57 211.308 422.575 209.713 421.715 208.808C421.242 208.345 420.713 207.944 420.14 207.613L412.995 203.113C411.883 202.383 410.731 201.715 409.545 201.113C407.14 199.938 404.495 199.303 402.105 198.113C399.715 196.923 397.49 194.908 397.02 192.273C395.565 184.178 389.96 177.353 385.17 170.667C385.325 170.637 385.28 170.277 385.335 170.127C386.028 168.558 387.274 167.299 388.835 166.587C390.375 165.752 392.085 165.537 393.745 165.182Z" fill="#F86D70"/>
<path d="M419 165.242C418.91 164.365 419.084 163.48 419.5 162.702C420.295 161.382 421.955 160.917 423.465 160.607C424.975 160.297 426.365 160.057 427.825 159.847C429.013 159.608 430.234 159.586 431.43 159.782C433.06 160.142 434.43 161.237 435.93 161.912C437.73 162.717 439.73 162.912 441.65 163.372C443.57 163.832 445.545 164.567 446.75 166.132C447.665 167.317 448.03 168.832 448.305 170.307C450.59 182.623 448.13 195.253 447.665 207.768C447.48 212.638 447.7 217.843 450.485 221.848L442.38 221.633C440.305 221.578 438.075 221.468 436.445 220.188C435.005 219.063 434.325 217.248 433.715 215.533C433.163 214.201 432.812 212.794 432.675 211.358C432.55 208.418 434.22 205.533 433.675 202.638C433.27 200.478 431.675 198.728 430.015 197.313C428.355 195.898 426.465 194.663 425.1 192.938C422.675 189.863 422.21 185.668 422.51 181.763C422.69 179.443 423.11 177.118 422.905 174.797C422.802 173.022 422.163 171.32 421.07 169.917C419.795 168.377 419.12 167.417 419 165.242Z" fill="#434175"/>
<path opacity="0.1" d="M419.5 162.702C420.28 161.402 421.9 160.932 423.385 160.627C422.597 160.904 421.921 161.431 421.46 162.127C421.047 162.908 420.873 163.793 420.96 164.672C421.07 166.847 421.745 167.807 423.035 169.347C424.132 170.748 424.774 172.451 424.875 174.227C425.075 176.548 424.66 178.868 424.48 181.193C424.175 185.093 424.64 189.293 427.07 192.368C428.43 194.093 430.305 195.323 431.985 196.743C433.665 198.163 435.24 199.908 435.645 202.068C436.185 204.958 434.515 207.848 434.645 210.788C434.777 212.222 435.126 213.628 435.68 214.958C436.295 216.678 436.975 218.493 438.41 219.618C440.04 220.898 442.275 221.008 444.35 221.063L450.09 221.213C450.215 221.423 450.35 221.633 450.49 221.838L442.385 221.623C440.31 221.568 438.08 221.458 436.45 220.178C435.01 219.053 434.33 217.238 433.72 215.523C433.168 214.191 432.817 212.784 432.68 211.348C432.555 208.408 434.225 205.523 433.68 202.628C433.275 200.468 431.68 198.718 430.02 197.303C428.36 195.888 426.47 194.653 425.105 192.928C422.68 189.853 422.215 185.658 422.515 181.753C422.695 179.433 423.115 177.108 422.91 174.788C422.807 173.012 422.167 171.31 421.075 169.907C419.785 168.367 419.11 167.407 418.995 165.232C418.909 164.358 419.085 163.477 419.5 162.702Z" fill="black"/>
<path opacity="0.1" d="M358.61 289.619L373.5 325.895C374.346 325.29 375.052 324.511 375.57 323.61C374.375 319.11 373.15 314.495 370.715 310.499C369.92 309.199 369.01 307.999 368.215 306.694C365.85 302.969 365.36 298.274 362.655 294.789C362.397 294.439 362.258 294.015 362.258 293.579C362.258 293.144 362.397 292.72 362.655 292.369C362.965 291.964 363.465 291.579 363.37 291.074C363.3 290.709 362.92 290.379 363.065 290.039C363.135 289.874 363.305 289.784 363.435 289.664C363.895 289.244 363.835 288.519 363.88 287.899C363.98 286.319 364.925 284.934 365.84 283.644C366.026 283.34 366.271 283.077 366.56 282.869C366.805 282.719 367.095 282.649 367.34 282.499C368.2 281.964 368.14 280.704 368.555 279.769C369.095 278.539 370.455 277.914 371.35 276.919C372.485 275.649 372.77 273.884 373.97 272.774L374.075 272.514L372.95 265.514L358.61 289.619Z" fill="black"/>
<path d="M488.525 332.945C497.9 332.945 505.5 331.483 505.5 329.68C505.5 327.876 497.9 326.415 488.525 326.415C479.15 326.415 471.55 327.876 471.55 329.68C471.55 331.483 479.15 332.945 488.525 332.945Z" fill="#6C63FF"/>
<path d="M488.81 330.875C489.901 330.875 490.785 329.717 490.785 328.29C490.785 326.862 489.901 325.705 488.81 325.705C487.719 325.705 486.835 326.862 486.835 328.29C486.835 329.717 487.719 330.875 488.81 330.875Z" fill="#3F3D56"/>
<path d="M488.81 327.715C489.901 327.715 490.785 326.557 490.785 325.13C490.785 323.702 489.901 322.545 488.81 322.545C487.719 322.545 486.835 323.702 486.835 325.13C486.835 326.557 487.719 327.715 488.81 327.715Z" fill="#3F3D56"/>
<path d="M488.81 324.55C489.901 324.55 490.785 323.392 490.785 321.965C490.785 320.537 489.901 319.38 488.81 319.38C487.719 319.38 486.835 320.537 486.835 321.965C486.835 323.392 487.719 324.55 488.81 324.55Z" fill="#3F3D56"/>
<path d="M488.81 321.39C489.901 321.39 490.785 320.232 490.785 318.805C490.785 317.377 489.901 316.22 488.81 316.22C487.719 316.22 486.835 317.377 486.835 318.805C486.835 320.232 487.719 321.39 488.81 321.39Z" fill="#3F3D56"/>
<path d="M488.81 318.225C489.901 318.225 490.785 317.067 490.785 315.64C490.785 314.212 489.901 313.054 488.81 313.054C487.719 313.054 486.835 314.212 486.835 315.64C486.835 317.067 487.719 318.225 488.81 318.225Z" fill="#3F3D56"/>
<path d="M488.81 315.065C489.901 315.065 490.785 313.907 490.785 312.479C490.785 311.052 489.901 309.894 488.81 309.894C487.719 309.894 486.835 311.052 486.835 312.479C486.835 313.907 487.719 315.065 488.81 315.065Z" fill="#3F3D56"/>
<path d="M488.81 311.904C489.901 311.904 490.785 310.747 490.785 309.319C490.785 307.892 489.901 306.734 488.81 306.734C487.719 306.734 486.835 307.892 486.835 309.319C486.835 310.747 487.719 311.904 488.81 311.904Z" fill="#3F3D56"/>
<path d="M481.41 287.679C481.14 287.335 480.894 286.972 480.675 286.594L485.865 285.739L480.25 285.784C479.712 284.612 479.419 283.342 479.388 282.053C479.357 280.763 479.589 279.481 480.07 278.284L487.605 282.189L480.655 277.084C481.303 275.953 482.178 274.968 483.224 274.191C484.271 273.414 485.466 272.861 486.736 272.567C488.006 272.274 489.323 272.245 490.604 272.484C491.886 272.722 493.104 273.223 494.183 273.954C495.262 274.685 496.179 275.631 496.875 276.733C497.572 277.835 498.033 279.069 498.231 280.357C498.429 281.645 498.358 282.961 498.024 284.221C497.69 285.481 497.1 286.658 496.29 287.679C496.713 288.212 497.075 288.791 497.37 289.404L490.63 292.904L497.82 290.494C498.15 291.472 498.318 292.497 498.32 293.529C498.322 295.654 497.607 297.717 496.29 299.384C497.388 300.781 498.071 302.457 498.261 304.224C498.45 305.99 498.14 307.773 497.363 309.371C496.587 310.969 495.377 312.316 493.872 313.258C492.366 314.201 490.626 314.7 488.85 314.7C487.074 314.7 485.333 314.201 483.828 313.258C482.322 312.316 481.112 310.969 480.336 309.371C479.56 307.773 479.249 305.99 479.439 304.224C479.629 302.457 480.312 300.781 481.41 299.384C480.098 297.716 479.385 295.654 479.385 293.532C479.385 291.409 480.098 289.348 481.41 287.679Z" fill="#6C63FF"/>
<path opacity="0.1" d="M498.32 293.529C498.322 295.654 497.607 297.717 496.29 299.384C497.388 300.781 498.071 302.457 498.261 304.224C498.45 305.99 498.14 307.773 497.363 309.371C496.587 310.969 495.377 312.316 493.872 313.258C492.366 314.201 490.626 314.7 488.85 314.7C487.074 314.7 485.333 314.201 483.828 313.258C482.322 312.316 481.112 310.969 480.336 309.371C479.56 307.773 479.249 305.99 479.439 304.224C479.629 302.457 480.312 300.781 481.41 299.384C480.14 297.774 498.32 292.469 498.32 293.529Z" fill="black"/>
<path d="M521.585 295.614C527.889 295.614 533 294.632 533 293.419C533 292.207 527.889 291.224 521.585 291.224C515.281 291.224 510.17 292.207 510.17 293.419C510.17 294.632 515.281 295.614 521.585 295.614Z" fill="#6C63FF"/>
<path d="M521.78 294.229C522.515 294.229 523.11 293.45 523.11 292.489C523.11 291.528 522.515 290.749 521.78 290.749C521.046 290.749 520.45 291.528 520.45 292.489C520.45 293.45 521.046 294.229 521.78 294.229Z" fill="#3F3D56"/>
<path d="M521.78 292.104C522.515 292.104 523.11 291.325 523.11 290.364C523.11 289.403 522.515 288.624 521.78 288.624C521.046 288.624 520.45 289.403 520.45 290.364C520.45 291.325 521.046 292.104 521.78 292.104Z" fill="#3F3D56"/>
<path d="M521.78 289.974C522.515 289.974 523.11 289.195 523.11 288.234C523.11 287.273 522.515 286.494 521.78 286.494C521.046 286.494 520.45 287.273 520.45 288.234C520.45 289.195 521.046 289.974 521.78 289.974Z" fill="#3F3D56"/>
<path d="M521.78 287.849C522.515 287.849 523.11 287.07 523.11 286.109C523.11 285.148 522.515 284.369 521.78 284.369C521.046 284.369 520.45 285.148 520.45 286.109C520.45 287.07 521.046 287.849 521.78 287.849Z" fill="#3F3D56"/>
<path d="M521.78 285.724C522.515 285.724 523.11 284.945 523.11 283.984C523.11 283.023 522.515 282.244 521.78 282.244C521.046 282.244 520.45 283.023 520.45 283.984C520.45 284.945 521.046 285.724 521.78 285.724Z" fill="#3F3D56"/>
<path d="M521.78 283.599C522.515 283.599 523.11 282.82 523.11 281.859C523.11 280.898 522.515 280.119 521.78 280.119C521.046 280.119 520.45 280.898 520.45 281.859C520.45 282.82 521.046 283.599 521.78 283.599Z" fill="#3F3D56"/>
<path d="M521.78 281.469C522.515 281.469 523.11 280.69 523.11 279.729C523.11 278.768 522.515 277.989 521.78 277.989C521.046 277.989 520.45 278.768 520.45 279.729C520.45 280.69 521.046 281.469 521.78 281.469Z" fill="#3F3D56"/>
<path d="M516.805 265.184C516.619 264.954 516.452 264.71 516.305 264.454L519.805 263.879L516.03 263.909C515.644 263.075 515.444 262.167 515.445 261.249C515.445 260.432 515.601 259.622 515.905 258.864L520.975 261.494L516.3 258.059C516.734 257.294 517.321 256.628 518.025 256.102C518.729 255.576 519.534 255.201 520.39 255.001C521.246 254.802 522.133 254.781 522.997 254.942C523.862 255.102 524.683 255.439 525.41 255.933C526.137 256.426 526.754 257.065 527.223 257.809C527.691 258.552 528 259.385 528.13 260.254C528.261 261.123 528.21 262.01 527.981 262.858C527.752 263.707 527.35 264.498 526.8 265.184C527.083 265.543 527.327 265.932 527.525 266.344L522.995 268.699L527.825 267.074C528.167 268.08 528.253 269.156 528.074 270.204C527.895 271.252 527.457 272.238 526.8 273.074C527.541 274.013 528.003 275.142 528.133 276.331C528.262 277.52 528.054 278.722 527.533 279.799C527.011 280.875 526.196 281.783 525.183 282.419C524.169 283.054 522.997 283.391 521.8 283.391C520.604 283.391 519.432 283.054 518.418 282.419C517.404 281.783 516.59 280.875 516.068 279.799C515.546 278.722 515.338 277.52 515.468 276.331C515.597 275.142 516.059 274.013 516.8 273.074C515.916 271.953 515.435 270.567 515.435 269.139C515.435 267.711 515.916 266.325 516.8 265.204L516.805 265.184Z" fill="#6C63FF"/>
<path opacity="0.1" d="M528.17 269.119C528.171 270.546 527.692 271.932 526.81 273.054C527.551 273.993 528.013 275.122 528.143 276.311C528.272 277.501 528.064 278.702 527.542 279.779C527.02 280.856 526.206 281.763 525.192 282.399C524.179 283.034 523.006 283.371 521.81 283.371C520.614 283.371 519.441 283.034 518.428 282.399C517.414 281.763 516.599 280.856 516.078 279.779C515.556 278.702 515.348 277.501 515.477 276.311C515.607 275.122 516.069 273.993 516.81 273.054C515.95 271.969 528.17 268.404 528.17 269.119Z" fill="black"/>
</g>
<defs>
<linearGradient id="paint0_linear" x1="397.985" y1="347.095" x2="397.985" y2="149.262" gradientUnits="userSpaceOnUse">
<stop stop-color="#808080" stop-opacity="0.25"/>
<stop offset="0.54" stop-color="#808080" stop-opacity="0.12"/>
<stop offset="1" stop-color="#808080" stop-opacity="0.1"/>
</linearGradient>
<clipPath id="clip0">
<rect width="572" height="349" fill="white"/>
</clipPath>
</defs>
</svg>
