<svg width="618" height="305" viewBox="0 0 618 305" fill="none" xmlns="http://www.w3.org/2000/svg">
<path d="M376.523 305C349.052 304.952 321.605 302.9 294.313 298.852C212.225 286.787 136.518 258.278 81.1366 218.578C25.0777 178.391 -3.60761 131.336 0.363342 86.0803C3.11438 54.7262 26.5308 26.6623 71.95 0.288017C72.5696 -0.0700042 73.2737 -0.0952432 73.9076 0.217887C74.5416 0.531017 75.0537 1.15693 75.3314 1.95819C75.6092 2.75944 75.6299 3.6706 75.3891 4.49164C75.1483 5.31268 74.6656 5.97651 74.047 6.33743C30.4198 31.6696 7.98248 57.9986 5.45277 86.828C1.7301 129.247 29.4901 173.976 83.6188 212.78C138.425 252.068 213.456 280.296 294.891 292.265C376.326 304.235 454.336 298.499 514.554 276.117C574.028 254.01 608.831 218.476 612.553 176.058C615.071 147.361 602.858 116.934 577.233 88.0644C576.721 87.4871 576.407 86.67 576.36 85.7929C576.313 84.9157 576.537 84.0504 576.983 83.3873C577.429 82.7242 578.061 82.3175 578.738 82.2568C579.416 82.1961 580.085 82.4863 580.597 83.0636C607.55 113.43 620.36 145.846 617.642 176.805C613.671 222.061 577.563 259.594 515.969 282.487C475.865 297.394 427.998 305 376.523 305Z" fill="white"/>
</svg>
