<svg width="470" height="402" viewBox="0 0 470 402" fill="none" xmlns="http://www.w3.org/2000/svg">
<g clip-path="url(#clip0)">
<path d="M316.655 369.179C294.779 369.241 272.925 367.731 251.243 364.659C250.536 364.564 249.818 364.458 249.105 364.346C243.784 363.547 238.459 362.635 233.283 361.634C209.988 357.142 188.021 350.581 167.992 342.132C101.34 314.018 59.4334 320.001 36.0151 329.971C10.6714 340.761 0.929112 358.414 0.833622 358.591L0 358.092C0.0966527 357.913 9.96459 339.997 35.5852 329.064C50.6069 322.654 68.0336 319.853 87.3849 320.736C111.54 321.839 138.78 328.722 168.348 341.193C188.318 349.617 210.223 356.16 233.455 360.64C238.619 361.638 243.931 362.549 249.243 363.345C249.953 363.457 250.664 363.562 251.37 363.657C310.141 372.182 366.838 367.041 404.053 361.228C434.727 356.436 454.468 350.834 454.664 350.778L454.915 351.753C454.719 351.81 434.929 357.427 404.193 362.228C375.212 366.78 345.956 369.103 316.655 369.179Z" fill="#3F3D56"/>
<path d="M316.72 79.0846C299.823 79.0849 283.373 78.251 267.502 76.5842C231.032 72.7541 197.552 64.4902 167.992 52.022C101.34 23.9076 59.4334 29.8907 36.0151 39.8612C10.6714 50.6506 0.929112 68.304 0.833622 68.481L0 67.982C0.0966527 67.8023 9.96459 49.8866 35.5852 38.9542C50.6072 32.5442 68.0336 29.7417 87.3849 30.6257C111.54 31.7286 138.78 38.6114 168.348 51.0833C235.105 79.2416 309.39 80.3482 359.952 76.3214C414.755 71.9547 454.271 60.7802 454.664 60.668L454.915 61.6433C454.522 61.756 414.934 72.9522 360.045 77.3275C345.348 78.499 330.877 79.0846 316.72 79.0846Z" fill="#3F3D56"/>
<path d="M314.238 4.88717C314.238 4.88717 295.394 -2.2097 283.28 26.1778C271.166 54.5653 252.322 85.7915 252.322 85.7915L263.09 88.6303C263.09 88.6303 265.782 68.759 272.512 65.9203L269.82 91.469C269.82 91.469 350.581 121.276 386.923 88.6303L385.577 78.6946C385.577 78.6946 390.961 80.114 390.961 88.6303L394.999 84.3721C394.999 84.3721 390.961 75.8559 378.847 64.5009C370.896 57.048 368.163 42.8689 367.224 34.0039C366.521 26.6015 363.712 19.5961 359.167 13.9065C351.117 4.06796 336.448 -6.38897 314.238 4.88717Z" fill="#2F2E41"/>
<path d="M428.61 165.521C428.61 165.521 464.07 197.415 469.285 216.112C474.5 234.809 449.469 237.009 449.469 237.009L395.235 242.508C395.235 242.508 394.192 268.903 384.805 272.202C375.418 275.502 382.9 228.554 382.9 228.554L435.91 212.813L411.922 186.417L428.61 165.521Z" fill="#FBBEBE"/>
<path d="M262.778 198.515L258.606 256.805L235.661 355.788C235.661 355.788 214.802 400.88 232.532 401.98C250.263 403.08 249.22 359.087 249.22 359.087L282.595 265.604L285.724 201.815L262.778 198.515Z" fill="#FBBEBE"/>
<path d="M321.184 96.2331C340.193 96.2331 355.602 79.9838 355.602 59.9394C355.602 39.895 340.193 23.6458 321.184 23.6458C302.176 23.6458 286.766 39.895 286.766 59.9394C286.766 79.9838 302.176 96.2331 321.184 96.2331Z" fill="#FBBEBE"/>
<path d="M305.54 77.5364C305.54 77.5364 318.055 124.828 298.239 136.926C278.423 149.024 348.301 157.822 367.075 121.529C367.075 121.529 333.7 109.431 343.087 77.5364H305.54Z" fill="#FBBEBE"/>
<path d="M281.552 142.425L275.294 140.226C275.294 140.226 262.778 145.725 262.778 155.623C262.778 165.521 260.692 205.114 260.692 205.114L288.853 208.414L281.552 142.425Z" fill="#6C63FF"/>
<path d="M404.123 361.728C365.621 367.742 309.505 372.6 251.309 364.159C251.304 363.553 251.304 362.961 251.304 362.385C251.304 358.953 251.429 355.56 251.678 352.206C254.659 310.903 274.838 276.469 282.645 264.536C283.038 263.93 283.403 263.384 283.729 262.898C284.989 261.033 285.722 260.048 285.722 260.048C285.722 260.048 346.214 259.007 377.503 272.203C379.012 272.871 380.392 273.823 381.577 275.013C393.243 286.365 400.097 323.22 404.123 361.728Z" fill="#2F2E41"/>
<path d="M381.676 127.028C381.676 127.028 395.235 119.329 408.793 135.826L435.91 168.821L415.051 193.016L375.418 167.721L381.676 127.028Z" fill="#6C63FF"/>
<path d="M283.993 60.1697C296.177 50.8712 306.04 40.1613 312.564 27.4214C312.564 27.4214 334.924 53.62 348.589 54.93C362.253 56.2399 349.831 23.4916 349.831 23.4916L324.987 16.9419L301.384 19.5618L282.751 32.6611L283.993 60.1697Z" fill="#2F2E41"/>
<path d="M361.86 119.329C361.86 119.329 347.264 143.664 303.457 132.046L278.598 139.266L275.294 140.225C275.294 140.225 278.423 206.214 286.767 218.312C295.11 230.41 293.024 237.009 290.939 238.108C288.853 239.208 283.638 237.008 286.767 242.508C289.896 248.007 294.067 244.707 289.896 248.007C285.724 251.306 283.638 263.404 283.638 263.404L381.676 276.602C381.676 276.602 378.548 233.709 386.891 211.713C395.235 189.717 397.321 180.918 397.321 180.918L391.063 125.928L361.86 119.329Z" fill="#6C63FF"/>
<path d="M158.105 97.7986H23.9023V274.695H158.105V97.7986Z" fill="#E6E6E6"/>
<path d="M62.0063 112.708H33.2485V132.925H62.0063V112.708Z" fill="white"/>
<path d="M144.685 152.131H33.4882V159.207H144.685V152.131Z" fill="white"/>
<path d="M144.685 170.832H33.4882V177.907H144.685V170.832Z" fill="white"/>
<path d="M144.685 189.532H33.4882V196.608H144.685V189.532Z" fill="white"/>
<path d="M144.685 208.232H33.4882V215.308H144.685V208.232Z" fill="white"/>
<path d="M144.685 226.933H33.4882V234.009H144.685V226.933Z" fill="white"/>
<path d="M184.466 274.442C184.46 281.118 182.17 287.567 178.016 292.604C173.863 297.642 168.124 300.93 161.856 301.863C155.588 302.797 149.211 301.314 143.896 297.687C138.582 294.06 134.687 288.532 132.927 282.12C131.168 275.707 131.662 268.841 134.319 262.782C136.976 256.722 141.618 251.878 147.39 249.138C153.163 246.398 159.68 245.948 165.742 247.868C171.805 249.789 177.007 253.952 180.392 259.593C183.055 264.037 184.467 269.186 184.466 274.442Z" fill="#6C63FF"/>
<path d="M180.392 259.593L154.443 286.951C152.812 284.289 143.726 271.915 143.726 271.915C144.891 270.674 146.133 269.517 147.446 268.453L154.98 279.047L177.354 255.454C178.488 256.729 179.506 258.115 180.392 259.593Z" fill="white"/>
</g>
<defs>
<clipPath id="clip0">
<rect width="470" height="402" fill="white"/>
</clipPath>
</defs>
</svg>
